<svg width="180" height="90" viewBox="0 0 180 120" fill="none" xmlns="http://www.w3.org/2000/svg">
<path d="M156.241 35.0332L179.587 0.310521C179.587 0.310521 169.733 -1.36681 164.855 3.07452C161.733 5.91585 158.241 11.0252 158.241 11.0252L149.653 23.4079C149.236 24.0519 148.691 24.7532 147.82 24.7532C146.948 24.7532 146.403 24.0519 145.987 23.4079L137.396 11.0252C137.396 11.0252 133.905 5.91585 130.784 3.07452C125.905 -1.36681 116.051 0.310521 116.051 0.310521L139.396 35.0332L116.112 69.6478C116.112 69.6478 126.375 70.9438 131.253 66.5025C134.375 63.6612 137.396 59.0412 137.396 59.0412L145.987 46.6585C146.403 46.0145 146.948 45.3132 147.82 45.3132C148.691 45.3132 149.236 46.0145 149.653 46.6585L158.241 59.0412C158.241 59.0412 161.441 63.6612 164.563 66.5025C169.441 70.9438 179.524 69.6478 179.524 69.6478L156.241 35.0332ZM110.379 11.4385C110.379 11.4385 109.227 13.2172 106.6 14.6865C104.915 15.6292 103.296 16.2678 101.56 17.1012C98.6507 18.4972 97.8627 20.0518 97.8627 22.4238V23.2145V26.8798V26.9772V27.8038V69.6478C97.8627 69.6478 102.505 70.2358 105.541 68.6865C109.451 66.6945 110.348 64.7732 110.384 56.1212V13.9572L110.379 13.9585V11.4385ZM81.6413 3.34119C78.7387 5.89985 77.8907 9.97585 77.8907 9.97585L68.2813 47.2012L60.2907 16.7358C59.512 13.4972 58.1107 9.49183 55.8907 6.78516C53.0627 3.33583 47.3147 3.1185 46.7027 3.1185C46.0907 3.1185 40.3413 3.33583 37.5147 6.78516C35.2933 9.49183 33.8907 13.4972 33.112 16.7358L25.1213 47.2012L15.512 9.97585C15.512 9.97585 14.6667 5.89985 11.7627 3.34119C7.05733 -0.808148 0 0.0798248 0 0.0798248L18.4 69.6478C18.4 69.6478 24.4693 70.0852 27.508 68.5372C31.496 66.5038 33.396 64.9345 35.8107 55.4692C37.9627 47.0305 43.9787 22.2425 44.5413 20.4785C44.82 19.6065 45.172 17.5212 46.7027 17.5212C48.2667 17.5212 48.5907 19.6038 48.8627 20.4785C49.4147 22.2452 55.4413 47.0305 57.5933 55.4692C60.008 64.9345 61.908 66.5038 65.896 68.5372C68.9333 70.0852 75.0053 69.6478 75.0053 69.6478L93.4027 0.0798248C93.4027 0.0798248 86.348 -0.808148 81.6413 3.34119V3.34119ZM102.745 1.30385C99.188 3.16651 97.8627 6.31583 97.8627 15.0145C97.8627 15.0145 99.6627 13.2718 102.336 12.3038C104.284 11.5972 105.948 10.5225 106.912 9.8185C109.917 7.61583 110.384 4.77851 110.384 0.00384826C110.384 0.00384826 105.479 -0.129485 102.745 1.30385V1.30385ZM169.396 93.7825C168.229 93.7825 167.221 94.0185 166.365 94.4892C165.508 94.9612 164.803 95.5812 164.244 96.3505C163.687 97.1185 163.263 97.9932 162.979 98.9718C162.693 99.9532 162.551 100.951 162.551 101.968C162.551 103.084 162.693 104.144 162.979 105.149C163.263 106.153 163.699 107.028 164.281 107.772C164.863 108.516 165.584 109.105 166.439 109.539C167.296 109.973 168.281 110.19 169.396 110.19C170.563 110.19 171.579 109.968 172.448 109.52C173.315 109.074 174.041 108.467 174.624 107.697C175.208 106.929 175.641 106.055 175.927 105.075C176.212 104.095 176.355 103.06 176.355 101.968C176.355 100.903 176.212 99.8718 175.927 98.8798C175.641 97.8878 175.208 97.0132 174.624 96.2558C174.041 95.4998 173.315 94.8985 172.448 94.4518C171.579 94.0052 170.563 93.7825 169.396 93.7825V93.7825ZM177.805 93.0012V111.12C177.805 111.369 177.793 111.753 177.769 112.275C177.744 112.795 177.657 113.372 177.508 114.004C177.36 114.636 177.117 115.281 176.781 115.939C176.448 116.596 175.977 117.19 175.369 117.725C174.76 118.257 173.979 118.687 173.024 119.008C172.069 119.331 170.908 119.466 169.545 119.417C168.529 119.417 167.575 119.312 166.681 119.101C165.788 118.891 165.012 118.556 164.355 118.097C163.699 117.637 163.165 117.031 162.755 116.273C162.345 115.516 162.117 114.581 162.067 113.465H163.481C163.555 114.308 163.767 115.028 164.112 115.622C164.46 116.217 164.912 116.708 165.472 117.092C166.029 117.476 166.655 117.756 167.351 117.929C168.045 118.103 168.788 118.189 169.584 118.189C170.7 118.189 171.641 118.053 172.411 117.781C173.179 117.508 173.817 117.153 174.327 116.72C174.833 116.286 175.224 115.809 175.499 115.288C175.772 114.766 175.977 114.257 176.112 113.763C176.248 113.265 176.329 112.813 176.355 112.404C176.379 111.995 176.391 111.678 176.391 111.456V107.065H176.317C175.648 108.479 174.736 109.557 173.581 110.301C172.429 111.047 171.033 111.417 169.396 111.417C167.984 111.417 166.76 111.176 165.732 110.693C164.703 110.209 163.845 109.538 163.165 108.684C162.481 107.828 161.975 106.829 161.639 105.688C161.305 104.548 161.136 103.307 161.136 101.968C161.136 100.703 161.317 99.4998 161.677 98.3585C162.036 97.2185 162.563 96.2198 163.257 95.3638C163.953 94.5078 164.815 93.8265 165.844 93.3172C166.872 92.8092 168.057 92.5545 169.396 92.5545C170.141 92.5545 170.872 92.6545 171.591 92.8532C172.312 93.0518 172.975 93.3358 173.581 93.7078C174.191 94.0798 174.729 94.5385 175.2 95.0852C175.672 95.6305 176.044 96.2625 176.317 96.9825H176.391V93.0012H177.805ZM142.681 93.0012H144.096V97.0932H144.169C144.417 96.3745 144.772 95.7358 145.232 95.1772C145.691 94.6198 146.224 94.1425 146.832 93.7452C147.439 93.3492 148.103 93.0518 148.821 92.8532C149.541 92.6545 150.272 92.5545 151.017 92.5545C152.133 92.5545 153.081 92.6918 153.863 92.9638C154.644 93.2372 155.281 93.5958 155.779 94.0425C156.275 94.4892 156.667 94.9918 156.951 95.5505C157.236 96.1078 157.441 96.6718 157.565 97.2425C157.688 97.8132 157.763 98.3652 157.788 98.8985C157.812 99.4318 157.824 99.8972 157.824 100.293V112.125H156.412V100.033C156.412 99.5372 156.375 98.9358 156.3 98.2292C156.224 97.5212 156.008 96.8398 155.648 96.1825C155.288 95.5252 154.744 94.9612 154.012 94.4892C153.279 94.0185 152.269 93.7825 150.979 93.7825C149.912 93.7825 148.951 93.9812 148.096 94.3772C147.241 94.7745 146.515 95.3265 145.92 96.0332C145.324 96.7398 144.872 97.5838 144.56 98.5638C144.251 99.5438 144.096 100.616 144.096 101.782V112.125H142.681V93.0012ZM136.767 93.0012H138.18V112.125H136.767V93.0012ZM136.767 85.5598H138.18V89.3916H136.767V85.5598ZM127.503 97.2425H127.615C127.788 96.6225 128.111 96.0398 128.581 95.4932C129.053 94.9492 129.611 94.4772 130.255 94.0798C130.9 93.6838 131.627 93.3798 132.433 93.1692C133.239 92.9572 134.075 92.8652 134.944 92.8892V94.3038C134.2 94.2052 133.351 94.2785 132.396 94.5265C131.439 94.7745 130.529 95.3212 129.66 96.1638C129.312 96.5358 129.008 96.8958 128.748 97.2425C128.488 97.5905 128.272 97.9745 128.099 98.3958C127.924 98.8185 127.788 99.2892 127.688 99.8092C127.588 100.331 127.527 100.951 127.503 101.669V112.125H126.088V93.0012H127.503V97.2425ZM121.363 101.521C121.339 100.529 121.165 99.5625 120.841 98.6198C120.52 97.6772 120.06 96.8518 119.467 96.1452C118.872 95.4372 118.145 94.8678 117.288 94.4332C116.433 93.9998 115.46 93.7825 114.369 93.7825C113.303 93.7825 112.353 94.0052 111.521 94.4518C110.691 94.8985 109.979 95.4878 109.384 96.2198C108.788 96.9505 108.315 97.7825 107.969 98.7118C107.621 99.6425 107.412 100.578 107.336 101.521H121.363ZM107.336 102.749C107.312 103.865 107.441 104.944 107.727 105.985C108.012 107.028 108.453 107.945 109.048 108.739C109.644 109.533 110.381 110.167 111.263 110.637C112.141 111.109 113.179 111.344 114.369 111.344C116.179 111.344 117.687 110.841 118.888 109.837C120.091 108.833 120.867 107.437 121.215 105.652H122.629C122.257 107.909 121.357 109.627 119.932 110.804C118.505 111.983 116.651 112.572 114.369 112.572C112.979 112.572 111.751 112.317 110.684 111.809C109.617 111.301 108.732 110.606 108.024 109.725C107.317 108.845 106.784 107.816 106.424 106.637C106.065 105.46 105.899 104.213 105.924 102.899C105.899 101.584 106.053 100.307 106.388 99.0665C106.724 97.8265 107.244 96.7212 107.951 95.7545C108.657 94.7865 109.544 94.0118 110.612 93.4292C111.677 92.8465 112.929 92.5545 114.369 92.5545C115.857 92.5545 117.145 92.8278 118.239 93.3732C119.329 93.9185 120.221 94.6558 120.917 95.5865C121.612 96.5172 122.112 97.6025 122.424 98.8425C122.733 100.084 122.851 101.385 122.777 102.749H107.336ZM102.053 101.521C102.029 100.529 101.855 99.5625 101.533 98.6198C101.211 97.6772 100.751 96.8518 100.155 96.1452C99.56 95.4372 98.836 94.8678 97.9786 94.4332C97.124 93.9998 96.1507 93.7825 95.0573 93.7825C93.9907 93.7825 93.044 94.0052 92.212 94.4518C91.3813 94.8985 90.6693 95.4878 90.072 96.2198C89.4787 96.9505 89.0053 97.7825 88.66 98.7118C88.312 99.6425 88.1 100.578 88.0267 101.521H102.053ZM88.0267 102.749C88.0027 103.865 88.132 104.944 88.4173 105.985C88.7026 107.028 89.144 107.945 89.7387 108.739C90.3333 109.533 91.072 110.167 91.9506 110.637C92.8333 111.109 93.8693 111.344 95.0573 111.344C96.8693 111.344 98.3746 110.841 99.5786 109.837C100.781 108.833 101.557 107.437 101.905 105.652H103.317C102.945 107.909 102.048 109.627 100.621 110.804C99.1933 111.983 97.3413 112.572 95.0573 112.572C93.6693 112.572 92.4413 112.317 91.3747 111.809C90.308 111.301 89.4213 110.606 88.7146 109.725C88.008 108.845 87.4746 107.816 87.1146 106.637C86.7546 105.46 86.588 104.213 86.612 102.899C86.588 101.584 86.744 100.307 87.0786 99.0665C87.412 97.8265 87.9333 96.7212 88.6413 95.7545C89.348 94.7865 90.2333 94.0118 91.3 93.4292C92.3667 92.8465 93.62 92.5545 95.0573 92.5545C96.548 92.5545 97.836 92.8278 98.9293 93.3732C100.02 93.9185 100.912 94.6558 101.608 95.5865C102.3 96.5172 102.803 97.6025 103.115 98.8425C103.424 100.084 103.541 101.385 103.467 102.749H88.0267ZM68.1573 93.0012H69.572V97.0932H69.6453C69.8933 96.3745 70.248 95.7358 70.708 95.1772C71.1667 94.6198 71.7 94.1425 72.308 93.7452C72.9147 93.3492 73.5787 93.0518 74.2987 92.8532C75.0173 92.6545 75.748 92.5545 76.4933 92.5545C77.608 92.5545 78.5573 92.6918 79.3387 92.9638C80.1213 93.2372 80.7573 93.5958 81.2547 94.0425C81.7507 94.4892 82.1413 94.9918 82.4267 95.5505C82.712 96.1078 82.9173 96.6718 83.0413 97.2425C83.1653 97.8132 83.2387 98.3652 83.2653 98.8985C83.288 99.4318 83.3027 99.8972 83.3027 100.293V112.125H81.888V100.033C81.888 99.5372 81.8506 98.9358 81.7773 98.2292C81.7026 97.5212 81.484 96.8398 81.124 96.1825C80.7653 95.5252 80.22 94.9612 79.488 94.4892C78.7573 94.0185 77.7453 93.7825 76.4547 93.7825C75.388 93.7825 74.4267 93.9812 73.572 94.3772C72.7173 94.7745 71.9907 95.3265 71.396 96.0332C70.8 96.7398 70.348 97.5838 70.036 98.5638C69.7267 99.5438 69.572 100.616 69.572 101.782V112.125H68.1573V93.0012ZM62.244 93.0012H63.6575V112.125H62.244V93.0012ZM62.244 85.5598H63.6575V89.3916H62.244V85.5598ZM49.3333 93.7825C48.1667 93.7825 47.1573 94.0185 46.3 94.4892C45.4453 94.9612 44.7387 95.5812 44.1787 96.3505C43.6213 97.1185 43.2 97.9932 42.9147 98.9718C42.6293 99.9532 42.4867 100.951 42.4867 101.968C42.4867 103.084 42.6293 104.144 42.9147 105.149C43.2 106.153 43.6333 107.028 44.2173 107.772C44.8 108.516 45.52 109.105 46.3747 109.539C47.2293 109.973 48.2173 110.19 49.3333 110.19C50.4987 110.19 51.5147 109.968 52.384 109.52C53.2507 109.074 53.9773 108.467 54.56 107.697C55.1413 106.929 55.5773 106.055 55.8627 105.075C56.148 104.095 56.2907 103.06 56.2907 101.968C56.2907 100.903 56.148 99.8718 55.8627 98.8798C55.5773 97.8878 55.1413 97.0132 54.56 96.2558C53.9773 95.4998 53.2507 94.8985 52.384 94.4518C51.5147 94.0052 50.4987 93.7825 49.3333 93.7825V93.7825ZM57.7413 93.0012V111.12C57.7413 111.369 57.7293 111.753 57.7053 112.275C57.6787 112.795 57.5933 113.372 57.444 114.004C57.296 114.636 57.0533 115.281 56.7173 115.939C56.384 116.596 55.912 117.19 55.3053 117.725C54.696 118.257 53.9147 118.687 52.96 119.008C52.0053 119.331 50.8453 119.466 49.4813 119.417C48.4627 119.417 47.508 119.312 46.6173 119.101C45.724 118.891 44.948 118.556 44.2907 118.097C43.6333 117.637 43.1 117.031 42.6907 116.273C42.2813 115.516 42.0533 114.581 42.0027 113.465H43.4173C43.4907 114.308 43.7027 115.028 44.048 115.622C44.396 116.217 44.848 116.708 45.408 117.092C45.9653 117.476 46.5907 117.756 47.2867 117.929C47.9813 118.103 48.724 118.189 49.5173 118.189C50.636 118.189 51.5773 118.053 52.3453 117.781C53.1147 117.508 53.7547 117.153 54.2627 116.72C54.7693 116.286 55.16 115.809 55.4333 115.288C55.708 114.766 55.912 114.257 56.048 113.763C56.184 113.265 56.2653 112.813 56.2907 112.404C56.3147 111.995 56.3267 111.678 56.3267 111.456V107.065H56.2533C55.584 108.479 54.672 109.557 53.5173 110.301C52.3653 111.047 50.9693 111.417 49.3333 111.417C47.9173 111.417 46.696 111.176 45.6667 110.693C44.6387 110.209 43.7813 109.538 43.1 108.684C42.4173 107.828 41.9107 106.829 41.5747 105.688C41.2413 104.548 41.072 103.307 41.072 101.968C41.072 100.703 41.2533 99.4998 41.612 98.3585C41.972 97.2185 42.4987 96.2198 43.1933 95.3638C43.8867 94.5078 44.7507 93.8265 45.7787 93.3172C46.808 92.8092 47.9933 92.5545 49.3333 92.5545C50.0773 92.5545 50.808 92.6545 51.5267 92.8532C52.2453 93.0518 52.9107 93.3358 53.5173 93.7078C54.1267 94.0798 54.6653 94.5385 55.136 95.0852C55.608 95.6305 55.9787 96.2625 56.2533 96.9825H56.3267V93.0012H57.7413ZM22.6173 93.0012H24.0333V97.0932H24.1053C24.3533 96.3745 24.708 95.7358 25.1667 95.1772C25.6267 94.6198 26.16 94.1425 26.7667 93.7452C27.3747 93.3492 28.0387 93.0518 28.7573 92.8532C29.4773 92.6545 30.208 92.5545 30.9533 92.5545C32.0693 92.5545 33.0173 92.6918 33.8 92.9638C34.5813 93.2372 35.2173 93.5958 35.7147 94.0425C36.212 94.4892 36.6027 94.9918 36.8867 95.5505C37.172 96.1078 37.3773 96.6718 37.5 97.2425C37.624 97.8132 37.7 98.3652 37.724 98.8985C37.748 99.4318 37.76 99.8972 37.76 100.293V112.125H36.348V100.033C36.348 99.5372 36.3107 98.9358 36.236 98.2292C36.1627 97.5212 35.944 96.8398 35.584 96.1825C35.224 95.5252 34.6787 94.9612 33.948 94.4892C33.2147 94.0185 32.2053 93.7825 30.9147 93.7825C29.848 93.7825 28.8867 93.9812 28.032 94.3772C27.1773 94.7745 26.4507 95.3265 25.8547 96.0332C25.26 96.7398 24.808 97.5838 24.496 98.5638C24.1867 99.5438 24.0333 100.616 24.0333 101.782V112.125H22.6173V93.0012ZM20.088 110.712V112.125H2.04399V85.5598H19.9027V86.9732H3.68133V97.6145H18.936V99.0278H3.68133V110.712" fill="#1F303C"/>
</svg>
