<?xml version="1.0" encoding="UTF-8"?>
<svg width="160px" height="39px" viewBox="0 0 160 39" version="1.1" xmlns="http://www.w3.org/2000/svg" xmlns:xlink="http://www.w3.org/1999/xlink">
    <!-- Generator: Sketch 64 (93537) - https://sketch.com -->
    <title>attendify</title>
    <desc>Created with Sketch.</desc>
    <g id="Page-1" stroke="none" stroke-width="1" fill="none" fill-rule="evenodd">
        <g id="single_event_v0.1a" transform="translate(-630.000000, -4439.000000)" fill-rule="nonzero">
            <g id="block#4" transform="translate(0.000000, 3970.000000)">
                <g id="logo#1" transform="translate(540.000000, 317.000000)">
                    <g id="attendify" transform="translate(90.000000, 152.452941)">
                        <path d="M10.0785072,7.92742881 C16.1676029,7.92742881 19.4851128,11.0080378 19.4851128,16.3477589 L19.4851128,29.2863053 C19.4851128,29.4916755 18.6872338,29.7791986 17.8893465,29.7791986 C16.3355783,29.7791986 15.2017485,28.9577098 15.1597505,26.4110745 C13.4800048,28.7112591 10.6664211,30.0667296 7.390905,30.0667296 C2.72959522,30.0667296 7.07700551e-14,27.6433117 7.07700551e-14,24.028737 C7.07700551e-14,19.1408368 4.74529665,17.0460224 14.4878572,16.8817246 L15.0757628,16.8817246 L15.0757628,16.4299038 C15.0757628,13.2260695 13.1860437,11.4598586 9.7425564,11.4598586 C6.46704198,11.4598586 4.53532824,13.1439246 3.56947137,15.0744412 C3.56947137,15.1155137 0.839875323,15.0744412 0.839875323,12.9796268 C0.839875323,10.9669653 3.98940903,7.92742881 10.0785072,7.92742881 Z M15.0337731,21.2356512 L15.0337731,19.5926576 L13.8159556,19.633738 C7.51688655,19.8391082 4.32535899,20.9892005 4.32535899,23.8644393 C4.32535899,25.7538755 5.83713507,26.9450403 8.39875323,26.9450403 C12.1864256,26.9450403 14.9246634,24.6552195 15.030589,21.4302601 L15.0337731,21.2356512 Z M46.9437948,19.1408368 C46.9437948,12.7331762 51.6050996,7.96850126 57.9881563,7.96850126 C64.2032377,7.96850126 68.3606246,12.2813554 68.3606246,18.5657906 L68.3606246,18.9354666 C68.3606246,19.8391082 68.0666635,20.2087842 67.0168215,20.2087842 L51.1011817,20.2087842 C51.3951345,24.1108819 54.3766936,26.7396701 58.4500928,26.7396701 C62.2295309,26.7396701 64.11925,25.0966765 65.2110901,23.2483127 C65.2950778,23.1661678 67.5627373,23.5358358 67.5627373,25.3841996 C67.5627373,27.2325633 64.2452274,30.1488745 58.3661051,30.1488745 C51.5211202,30.1488745 46.9437948,25.7128031 46.9437948,19.1408368 Z M51.1011817,17.2514005 L64.0352623,17.2514005 C63.8252889,13.5957454 61.5156314,11.2544884 57.9461666,11.2544884 C54.3766936,11.213408 51.6470976,13.7189708 51.1011817,17.2514005 Z M74.7436731,11.6652288 C76.2134537,9.52934196 78.6070989,7.92742881 81.9246089,7.92742881 C87.6357972,7.92742881 90.2813392,11.7473817 90.2813392,16.9638775 L90.2813392,27.6843921 C90.2813392,29.2452328 89.4414622,29.7381261 88.3076822,29.7381261 L87.8037062,29.7381261 C86.6279283,29.7381261 85.8300493,29.2452328 85.8300493,27.6843921 L85.8300493,17.4978512 C85.8300493,13.924341 83.9823033,11.7473817 80.8327771,11.7473817 C78.0191933,11.7473817 75.8355132,13.2260695 74.7856711,15.4441092 L74.7856711,27.6843921 C74.7856711,29.2452328 73.9457941,29.7381261 72.8119643,29.7381261 L72.3080381,29.7381261 C71.1322104,29.7381261 70.3343314,29.2452328 70.3343314,27.6843921 L70.3343314,8.74892559 C70.3343314,8.62570027 71.0482227,8.25602433 71.9300894,8.25602433 C73.2319028,8.25602433 74.5756977,8.91322335 74.7436731,11.6652288 Z M92.0870871,19.0586919 C92.0870871,12.4045807 96.3284701,7.96850126 102.333603,7.96850126 C105.819105,7.96850126 108.464647,9.52934196 109.724504,11.4187861 L109.724504,0.533973703 C109.724504,0.41074839 110.480385,0.0410724515 111.320262,0.0410724515 C112.70603,0.0410724515 114.133879,0.739343919 114.133879,3.77888041 L114.133879,27.6843921 C114.133879,29.2452328 113.335917,29.7381261 112.160139,29.7381261 L111.698161,29.7381261 C110.522383,29.7381261 109.724504,29.2452328 109.724504,27.6843921 L109.724504,26.0413986 C108.002752,28.5880338 105.567117,30.1083638 102.165611,30.1083638 C96.3704681,30.1488745 92.0870871,25.7128031 92.0870871,19.0586919 Z M109.766502,20.3730819 L109.766502,15.8959301 C108.632639,13.2260695 106.448992,11.5420115 103.131482,11.5420115 C99.100089,11.5420115 96.4124661,14.5404675 96.4124661,19.0586919 C96.4124661,23.4536909 99.184085,26.5753723 103.047486,26.5753723 C106.616984,26.5342998 109.766502,23.9465842 109.766502,20.3730819 Z M115.934315,2.99845608 C115.934315,1.06794741 117.152174,0 119.209827,0 C121.225565,0 122.359345,1.06794741 122.359345,2.99845608 C122.359345,4.92897272 121.225565,5.91476727 119.167829,5.91476727 C117.152174,5.91476727 115.934315,4.88790027 115.934315,2.99845608 Z M116.900186,27.6843921 L116.900186,10.3508387 C116.900186,8.78999804 117.740063,8.25602433 118.915841,8.25602433 L119.377819,8.25602433 C120.553597,8.25602433 121.351559,8.74892559 121.351559,10.3508387 L121.351559,27.6843921 C121.351559,29.2452328 120.553597,29.7381261 119.377819,29.7381261 L118.915841,29.7381261 C117.740063,29.7381261 116.900186,29.2452328 116.900186,27.6843921 Z M123.157224,11.3366333 L123.157224,11.0080378 C123.157224,9.94009035 123.703198,9.44719705 125.130963,9.44719705 L127.650594,9.44719705 L127.650594,7.88635635 C127.650594,2.58770769 130.212223,0.123225313 134.495604,0.123225313 C137.813114,0.123225313 139.324876,1.47868784 139.324876,2.95738363 C139.324876,4.1896288 138.359005,4.92897272 138.233011,4.84681986 C137.603124,4.23070125 136.343267,3.61458265 134.999497,3.61458265 C132.857848,3.61458265 131.891977,4.92897272 131.891977,7.92742881 L131.891977,9.44719705 L135.545388,9.44719705 C136.973237,9.44719705 137.519128,10.0222432 137.519128,11.0901827 L137.519128,11.3777057 C137.519128,12.4456531 136.973237,13.0206993 135.545388,13.0206993 L132.017971,13.0206993 L132.017971,27.6843921 C132.017971,29.2452328 131.26209,29.7381261 130.086229,29.7381261 L129.624334,29.7381261 C128.448473,29.7381261 127.608596,29.2452328 127.608596,27.6843921 L127.608596,13.0206993 L125.088965,13.0206993 C123.703198,12.9796268 123.157224,12.4456531 123.157224,11.3366333 Z M144.11215,36.926211 L147.681648,28.3826636 C146.715777,28.3005107 146.169803,28.0129877 145.791904,27.1504184 L138.065019,9.52934196 C137.981023,9.28289929 138.946894,8.25602433 140.416658,8.25602433 C141.676515,8.25602433 142.516392,8.83107049 143.230275,10.7205147 L149.067416,25.3020547 L154.232672,10.84374 C154.862559,8.91322335 155.82843,8.29710474 157.004208,8.29710474 C158.222067,8.29710474 159.439843,9.24181888 159.355847,9.4882695 L149.19341,35.7761179 C148.479527,37.6655568 147.471658,38.1995286 146.463789,38.1995286 C145.204015,38.1173791 144.028154,37.1726593 144.11215,36.926211 Z" id="Shape" fill="#3A424D"></path>
                        <path d="M31.3757922,9.29012537 C30.6574106,9.55221392 30.257417,10.1545489 30.257417,11.0327719 C30.257417,11.8408193 30.6194298,12.4180938 31.2590029,12.6962023 L28.0657107,12.6962023 L28.0657107,22.9936492 C28.0657107,25.5284028 28.8225877,26.7561754 30.9250109,26.7561754 C32.3126132,26.7561754 33.3217852,26.1620932 33.9945583,25.330378 C34.12071,25.2115616 35.2560172,25.8056438 35.2560172,27.1126248 C35.2560172,28.6968468 33.4058808,30.2018605 30.21019,30.2018605 C25.7530403,30.2018605 23.7347044,27.8651316 23.7347044,23.468915 L23.7347044,12.7358104 L22.178911,12.7358104 C20.7913004,12.7358104 20.2446707,12.1813283 20.2446707,11.1515884 L20.2446707,10.8743474 C20.2446707,9.84460744 20.7913004,9.29012537 22.178911,9.29012537 L31.3757922,9.29012537 Z M33.3152282,12.6962023 C33.9597647,12.4229563 34.3117511,11.8565209 34.3117511,11.0327719 C34.3117511,10.1105557 33.8699504,9.48856396 33.0929874,9.25051723 L45.0953848,9.25051723 C46.4829871,9.25051723 46.9875773,9.72578303 46.9875773,10.7555309 L46.9875773,11.0327719 C46.9875773,12.10212 46.4409393,12.6565941 45.053337,12.6565941 L40.175701,12.6565941 L40.175701,22.9540411 C40.175701,25.4887947 40.932578,26.7165673 43.0350094,26.7165673 C44.4226117,26.7165673 45.4317755,26.122485 46.1045569,25.2907699 C46.2307003,25.1719534 47.3660074,25.7660357 47.3660074,27.0730166 C47.3660074,28.6572386 45.5158711,30.1622523 42.3201802,30.1622523 C37.8630305,30.1622523 35.8446947,27.8255235 35.8446947,23.4293069 L35.8446947,12.6962023 L33.3152282,12.6962023 Z M35.2139694,5.68602371 C35.2139694,3.82456068 36.4333805,2.79481281 38.4937558,2.79481281 C40.5120917,2.79481281 41.6474072,3.82456068 41.6474072,5.68602371 C41.6474072,7.54747879 40.5120917,8.49801835 38.451708,8.49801835 C36.3913327,8.49801835 35.2139694,7.46827047 35.2139694,5.68602371 Z M22.4732455,5.68602371 C22.4732455,3.82456068 23.6926566,2.79481281 25.7530403,2.79481281 C27.7713678,2.79481281 28.9066833,3.82456068 28.9066833,5.68602371 C28.9066833,7.54747879 27.7713678,8.49801835 25.7109925,8.49801835 C23.6506088,8.49801835 22.4732455,7.46827047 22.4732455,5.68602371 Z" id="Clip-5" fill="#268BFF"></path>
                        <path d="M30.8965834,11.027997 C30.8965834,10.1864773 31.4071164,9.73566716 32.3005367,9.73566716 C33.1620517,9.73566716 33.6725847,10.1864773 33.6725847,11.027997 C33.6725847,11.8695087 33.1620517,12.2902686 32.2686315,12.2902686 C31.4071164,12.2902686 30.8965834,11.8394585 30.8965834,11.027997 Z" id="Clip-8" fill="#1072E1"></path>
                    </g>
                </g>
            </g>
        </g>
    </g>
</svg>