<?xml version="1.0" encoding="UTF-8"?>
<svg width="90px" height="59px" viewBox="0 0 90 59" version="1.1" xmlns="http://www.w3.org/2000/svg" xmlns:xlink="http://www.w3.org/1999/xlink">
    <!-- Generator: Sketch 64 (93537) - https://sketch.com -->
    <title>Shape</title>
    <desc>Created with Sketch.</desc>
    <g id="Page-1" stroke="none" stroke-width="1" fill="none" fill-rule="evenodd">
        <g id="single_event_v0.1a" transform="translate(-1045.000000, -4429.000000)" fill="#1F303C" fill-rule="nonzero">
            <g id="block#4" transform="translate(0.000000, 3970.000000)">
                <g id="logo#2" transform="translate(920.000000, 317.000000)">
                    <path d="M203.1205,159.660062 L214.7935,143.013602 C214.7935,143.013602 209.8665,142.209469 207.4275,144.338695 C205.8665,145.700862 204.1205,148.150345 204.1205,148.150345 L199.8265,154.086757 C199.618,154.395498 199.3455,154.731709 198.91,154.731709 C198.474,154.731709 198.2015,154.395498 197.9935,154.086757 L193.698,148.150345 C193.698,148.150345 191.9525,145.700862 190.392,144.338695 C187.9525,142.209469 183.0255,143.013602 183.0255,143.013602 L194.698,159.660062 L183.056,176.254709 C183.056,176.254709 188.1875,176.876027 190.6265,174.746815 C192.1875,173.384662 193.698,171.16978 193.698,171.16978 L197.9935,165.233368 C198.2015,164.924627 198.474,164.588415 198.91,164.588415 C199.3455,164.588415 199.618,164.924627 199.8265,165.233368 L204.1205,171.16978 C204.1205,171.16978 205.7205,173.384662 207.2815,174.746815 C209.7205,176.876027 214.762,176.254709 214.762,176.254709 L203.1205,159.660062 Z M180.1895,148.348486 C180.1895,148.348486 179.6135,149.201215 178.3,149.905615 C177.4575,150.357557 176.648,150.663709 175.78,151.063251 C174.32535,151.732509 173.93135,152.477803 173.93135,153.614968 L173.93135,153.994039 L173.93135,155.751227 L173.93135,155.797921 L173.93135,156.194203 L173.93135,176.254709 C173.93135,176.254709 176.2525,176.536603 177.7705,175.79385 C179.7255,174.838862 180.174,173.917768 180.192,169.769898 L180.192,149.55598 L180.1895,149.556603 L180.1895,148.348486 Z M165.82065,144.46654 C164.36935,145.693192 163.94535,147.647274 163.94535,147.647274 L159.14065,165.493545 L155.14535,150.888074 C154.756,149.335451 154.05535,147.415229 152.94535,146.11762 C151.53135,144.46397 148.65735,144.35978 148.35135,144.35978 C148.04535,144.35978 145.17065,144.46397 143.75735,146.11762 C142.64665,147.415229 141.94535,149.335451 141.556,150.888074 L137.56065,165.493545 L132.756,147.647274 C132.756,147.647274 132.33335,145.693192 130.88135,144.46654 C128.528665,142.477299 125,142.903003 125,142.903003 L134.2,176.254709 C134.2,176.254709 137.23465,176.464404 138.754,175.722274 C140.748,174.747438 141.698,173.995097 142.90535,169.457321 C143.98135,165.411709 146.98935,153.52805 147.27065,152.682368 C147.41,152.264321 147.586,151.264604 148.35135,151.264604 C149.13335,151.264604 149.29535,152.263027 149.43135,152.682368 C149.70735,153.529345 152.72065,165.411709 153.79665,169.457321 C155.004,173.995097 155.954,174.747438 157.948,175.722274 C159.46665,176.464404 162.50265,176.254709 162.50265,176.254709 L171.70135,142.903003 C171.70135,142.903003 168.174,142.477299 165.82065,144.46654 L165.82065,144.46654 Z M176.3725,143.489815 C174.594,144.382796 173.93135,145.892617 173.93135,150.062862 C173.93135,150.062862 174.83135,149.227391 176.168,148.763321 C177.142,148.424568 177.974,147.909344 178.456,147.571839 C179.9585,146.515853 180.192,145.155608 180.192,142.866579 C180.192,142.866579 177.7395,142.802658 176.3725,143.489815 L176.3725,143.489815 Z M209.698,187.825168 C209.1145,187.825168 208.6105,187.938309 208.1825,188.163968 C207.754,188.390251 207.4015,188.687486 207.122,189.056297 C206.8435,189.424486 206.6315,189.843827 206.4895,190.312979 C206.3465,190.783474 206.2755,191.261831 206.2755,191.749393 C206.2755,192.284417 206.3465,192.792593 206.4895,193.274402 C206.6315,193.755731 206.8495,194.175217 207.1405,194.531899 C207.4315,194.888581 207.792,195.170955 208.2195,195.379019 C208.648,195.587084 209.1405,195.691117 209.698,195.691117 C210.2815,195.691117 210.7895,195.584687 211.224,195.369911 C211.6575,195.156093 212.0205,194.86509 212.312,194.495943 C212.604,194.127755 212.8205,193.708749 212.9635,193.238925 C213.106,192.769102 213.1775,192.272911 213.1775,191.749393 C213.1775,191.238819 213.106,190.74445 212.9635,190.268874 C212.8205,189.793297 212.604,189.374004 212.312,189.010897 C212.0205,188.648462 211.6575,188.360192 211.224,188.146038 C210.7895,187.931933 210.2815,187.825168 209.698,187.825168 L209.698,187.825168 Z M213.9025,187.450604 L213.9025,196.136969 C213.9025,196.256343 213.8965,196.440437 213.8845,196.69069 C213.872,196.939984 213.8285,197.216605 213.754,197.519593 C213.68,197.822581 213.5585,198.131802 213.3905,198.447255 C213.224,198.762228 212.9885,199.046999 212.6845,199.303484 C212.38,199.558531 211.9895,199.764678 211.512,199.918569 C211.0345,200.073419 210.454,200.13814 209.7725,200.114649 C209.2645,200.114649 208.7875,200.064311 208.3405,199.963155 C207.894,199.862478 207.506,199.701875 207.1775,199.481825 C206.8495,199.261296 206.5825,198.970772 206.3775,198.607378 C206.1725,198.244464 206.0585,197.796214 206.0335,197.26119 L206.7405,197.26119 C206.7775,197.665334 206.8835,198.010511 207.056,198.295281 C207.23,198.580531 207.456,198.815922 207.736,199.000017 C208.0145,199.184111 208.3275,199.318346 208.6755,199.401284 C209.0225,199.484702 209.394,199.525931 209.792,199.525931 C210.35,199.525931 210.8205,199.460731 211.2055,199.330331 C211.5895,199.199452 211.9085,199.029261 212.1635,198.821675 C212.4165,198.613611 212.612,198.384931 212.7495,198.135158 C212.886,197.884905 212.9885,197.640884 213.056,197.404055 C213.124,197.165308 213.1645,196.948614 213.1775,196.752534 C213.1895,196.556455 213.1955,196.404481 213.1955,196.298052 L213.1955,194.192955 L213.1585,194.192955 C212.824,194.870843 212.368,195.387649 211.7905,195.744331 C211.2145,196.101972 210.5165,196.279355 209.698,196.279355 C208.992,196.279355 208.38,196.163817 207.866,195.932261 C207.3515,195.700225 206.9225,195.37854 206.5825,194.969122 C206.2405,194.558746 205.9875,194.079814 205.8195,193.532805 C205.6525,192.986275 205.568,192.391325 205.568,191.749393 C205.568,191.142937 205.6585,190.566109 205.8385,190.018956 C206.018,189.472427 206.2815,188.993638 206.6285,188.583262 C206.9765,188.172885 207.4075,187.846262 207.922,187.602098 C208.436,187.358557 209.0285,187.23645 209.698,187.23645 C210.0705,187.23645 210.436,187.284392 210.7955,187.379651 C211.156,187.474862 211.4875,187.611015 211.7905,187.789356 C212.0955,187.967697 212.3645,188.187603 212.6,188.449698 C212.836,188.711121 213.022,189.014109 213.1585,189.359286 L213.1955,189.359286 L213.1955,187.450604 L213.9025,187.450604 Z M196.3405,187.450604 L197.048,187.450604 L197.048,189.412357 L197.0845,189.412357 C197.2085,189.067803 197.386,188.761603 197.616,188.493804 C197.8455,188.226579 198.112,187.997756 198.416,187.807286 C198.7195,187.617439 199.0515,187.474862 199.4105,187.379651 C199.7705,187.284392 200.136,187.23645 200.5085,187.23645 C201.0665,187.23645 201.5405,187.302274 201.9315,187.432674 C202.322,187.563745 202.6405,187.735662 202.8895,187.949815 C203.1375,188.163968 203.3335,188.404921 203.4755,188.672768 C203.618,188.939944 203.7205,189.210332 203.7825,189.483933 C203.844,189.757533 203.8815,190.022168 203.894,190.277839 C203.906,190.533509 203.912,190.756627 203.912,190.946378 L203.912,196.618778 L203.206,196.618778 L203.206,190.821731 C203.206,190.584039 203.1875,190.295721 203.15,189.956968 C203.112,189.617545 203.004,189.290874 202.824,188.975756 C202.644,188.660639 202.372,188.390251 202.006,188.163968 C201.6395,187.938309 201.1345,187.825168 200.4895,187.825168 C199.956,187.825168 199.4755,187.920427 199.048,188.110274 C198.6205,188.300744 198.2575,188.56538 197.96,188.90418 C197.662,189.242932 197.436,189.647556 197.28,190.117379 C197.1255,190.587203 197.048,191.101228 197.048,191.660222 L197.048,196.618778 L196.3405,196.618778 L196.3405,187.450604 Z M193.3835,187.450604 L194.09,187.450604 L194.09,196.618778 L193.3835,196.618778 L193.3835,187.450604 Z M193.3835,183.883109 L194.09,183.883109 L194.09,185.720119 L193.3835,185.720119 L193.3835,183.883109 Z M188.7515,189.483933 L188.8075,189.483933 C188.894,189.186697 189.0555,188.907344 189.2905,188.645298 C189.5265,188.384498 189.8055,188.158215 190.1275,187.967697 C190.45,187.77785 190.8135,187.632109 191.2165,187.531145 C191.6195,187.429509 192.0375,187.385404 192.472,187.396909 L192.472,188.075085 C192.1,188.027815 191.6755,188.062956 191.198,188.18185 C190.7195,188.300744 190.2645,188.562839 189.83,188.966791 C189.656,189.145132 189.504,189.317721 189.374,189.483933 C189.244,189.650768 189.136,189.834862 189.0495,190.036838 C188.962,190.239486 188.894,190.465145 188.844,190.714439 C188.794,190.964596 188.7635,191.261831 188.7515,191.606049 L188.7515,196.618778 L188.044,196.618778 L188.044,187.450604 L188.7515,187.450604 L188.7515,189.483933 Z M185.6815,191.535096 C185.6695,191.059519 185.5825,190.596168 185.4205,190.144227 C185.26,189.692333 185.03,189.296627 184.7335,188.957874 C184.436,188.618451 184.0725,188.345474 183.644,188.137121 C183.2165,187.929344 182.73,187.825168 182.1845,187.825168 C181.6515,187.825168 181.1765,187.931933 180.7605,188.146038 C180.3455,188.360192 179.9895,188.642709 179.692,188.993638 C179.394,189.343944 179.1575,189.742815 178.9845,190.188332 C178.8105,190.634521 178.706,191.083011 178.668,191.535096 L185.6815,191.535096 Z M178.668,192.123814 C178.656,192.658837 178.7205,193.176122 178.8635,193.67519 C179.006,194.175217 179.2265,194.614837 179.524,194.99549 C179.822,195.376143 180.1905,195.68009 180.6315,195.905414 C181.0705,196.131696 181.5895,196.244358 182.1845,196.244358 C183.0895,196.244358 183.8435,196.003214 184.444,195.521884 C185.0455,195.040555 185.4335,194.371296 185.6075,193.515546 L186.3145,193.515546 C186.1285,194.597578 185.6785,195.421208 184.966,195.985475 C184.2525,196.550702 183.3255,196.833075 182.1845,196.833075 C181.4895,196.833075 180.8755,196.710825 180.342,196.467284 C179.8085,196.223743 179.366,195.890552 179.012,195.46819 C178.6585,195.046308 178.392,194.552993 178.212,193.987767 C178.0325,193.423499 177.9495,192.825672 177.962,192.195725 C177.9495,191.565299 178.0265,190.95309 178.194,190.35838 C178.362,189.763909 178.622,189.234015 178.9755,188.770568 C179.3285,188.306497 179.772,187.935097 180.306,187.655792 C180.8385,187.376439 181.4645,187.23645 182.1845,187.23645 C182.9285,187.23645 183.5725,187.367474 184.1195,187.628945 C184.6645,187.890368 185.1105,188.243838 185.4585,188.690027 C185.806,189.136215 186.056,189.656521 186.212,190.250992 C186.3665,190.846181 186.4255,191.469896 186.3885,192.123814 L178.668,192.123814 Z M176.0265,191.535096 C176.0145,191.059519 175.9275,190.596168 175.7665,190.144227 C175.6055,189.692333 175.3755,189.296627 175.0775,188.957874 C174.78,188.618451 174.418,188.345474 173.9893,188.137121 C173.562,187.929344 173.07535,187.825168 172.52865,187.825168 C171.99535,187.825168 171.522,187.931933 171.106,188.146038 C170.69065,188.360192 170.33465,188.642709 170.036,188.993638 C169.73935,189.343944 169.50265,189.742815 169.33,190.188332 C169.156,190.634521 169.05,191.083011 169.01335,191.535096 L176.0265,191.535096 Z M169.01335,192.123814 C169.00135,192.658837 169.066,193.176122 169.20865,193.67519 C169.3513,194.175217 169.572,194.614837 169.86935,194.99549 C170.16665,195.376143 170.536,195.68009 170.9753,195.905414 C171.41665,196.131696 171.93465,196.244358 172.52865,196.244358 C173.43465,196.244358 174.1873,196.003214 174.7893,195.521884 C175.3905,195.040555 175.7785,194.371296 175.9525,193.515546 L176.6585,193.515546 C176.4725,194.597578 176.024,195.421208 175.3105,195.985475 C174.59665,196.550702 173.67065,196.833075 172.52865,196.833075 C171.83465,196.833075 171.22065,196.710825 170.68735,196.467284 C170.154,196.223743 169.71065,195.890552 169.3573,195.46819 C169.004,195.046308 168.7373,194.552993 168.5573,193.987767 C168.3773,193.423499 168.294,192.825672 168.306,192.195725 C168.294,191.565299 168.372,190.95309 168.5393,190.35838 C168.706,189.763909 168.96665,189.234015 169.32065,188.770568 C169.674,188.306497 170.11665,187.935097 170.65,187.655792 C171.18335,187.376439 171.81,187.23645 172.52865,187.23645 C173.274,187.23645 173.918,187.367474 174.46465,187.628945 C175.01,187.890368 175.456,188.243838 175.804,188.690027 C176.15,189.136215 176.4015,189.656521 176.5575,190.250992 C176.712,190.846181 176.7705,191.469896 176.7335,192.123814 L169.01335,192.123814 Z M159.07865,187.450604 L159.786,187.450604 L159.786,189.412357 L159.82265,189.412357 C159.94665,189.067803 160.124,188.761603 160.354,188.493804 C160.58335,188.226579 160.85,187.997756 161.154,187.807286 C161.45735,187.617439 161.78935,187.474862 162.14935,187.379651 C162.50865,187.284392 162.874,187.23645 163.24665,187.23645 C163.804,187.23645 164.27865,187.302274 164.66935,187.432674 C165.06065,187.563745 165.37865,187.735662 165.62735,187.949815 C165.87535,188.163968 166.07065,188.404921 166.21335,188.672768 C166.356,188.939944 166.45865,189.210332 166.52065,189.483933 C166.58265,189.757533 166.61935,190.022168 166.63265,190.277839 C166.644,190.533509 166.65135,190.756627 166.65135,190.946378 L166.65135,196.618778 L165.944,196.618778 L165.944,190.821731 C165.944,190.584039 165.9253,190.295721 165.88865,189.956968 C165.8513,189.617545 165.742,189.290874 165.562,188.975756 C165.38265,188.660639 165.11,188.390251 164.744,188.163968 C164.37865,187.938309 163.87265,187.825168 163.22735,187.825168 C162.694,187.825168 162.21335,187.920427 161.786,188.110274 C161.35865,188.300744 160.99535,188.56538 160.698,188.90418 C160.4,189.242932 160.174,189.647556 160.018,190.117379 C159.86335,190.587203 159.786,191.101228 159.786,191.660222 L159.786,196.618778 L159.07865,196.618778 L159.07865,187.450604 Z M156.122,187.450604 L156.82875,187.450604 L156.82875,196.618778 L156.122,196.618778 L156.122,187.450604 Z M156.122,183.883109 L156.82875,183.883109 L156.82875,185.720119 L156.122,185.720119 L156.122,183.883109 Z M149.66665,187.825168 C149.08335,187.825168 148.57865,187.938309 148.15,188.163968 C147.72265,188.390251 147.36935,188.687486 147.08935,189.056297 C146.81065,189.424486 146.6,189.843827 146.45735,190.312979 C146.31465,190.783474 146.24335,191.261831 146.24335,191.749393 C146.24335,192.284417 146.31465,192.792593 146.45735,193.274402 C146.6,193.755731 146.81665,194.175217 147.10865,194.531899 C147.4,194.888581 147.76,195.170955 148.18735,195.379019 C148.61465,195.587084 149.10865,195.691117 149.66665,195.691117 C150.24935,195.691117 150.75735,195.584687 151.192,195.369911 C151.62535,195.156093 151.98865,194.86509 152.28,194.495943 C152.57065,194.127755 152.78865,193.708749 152.93135,193.238925 C153.074,192.769102 153.14535,192.272911 153.14535,191.749393 C153.14535,191.238819 153.074,190.74445 152.93135,190.268874 C152.78865,189.793297 152.57065,189.374004 152.28,189.010897 C151.98865,188.648462 151.62535,188.360192 151.192,188.146038 C150.75735,187.931933 150.24935,187.825168 149.66665,187.825168 L149.66665,187.825168 Z M153.87065,187.450604 L153.87065,196.136969 C153.87065,196.256343 153.86465,196.440437 153.85265,196.69069 C153.83935,196.939984 153.79665,197.216605 153.722,197.519593 C153.648,197.822581 153.52665,198.131802 153.35865,198.447255 C153.192,198.762228 152.956,199.046999 152.65265,199.303484 C152.348,199.558531 151.95735,199.764678 151.48,199.918569 C151.00265,200.073419 150.42265,200.13814 149.74065,200.114649 C149.23135,200.114649 148.754,200.064311 148.30865,199.963155 C147.862,199.862478 147.474,199.701875 147.14535,199.481825 C146.81665,199.261296 146.55,198.970772 146.34535,198.607378 C146.14065,198.244464 146.02665,197.796214 146.00135,197.26119 L146.70865,197.26119 C146.74535,197.665334 146.85135,198.010511 147.024,198.295281 C147.198,198.580531 147.424,198.815922 147.704,199.000017 C147.98265,199.184111 148.29535,199.318346 148.64335,199.401284 C148.99065,199.484702 149.362,199.525931 149.75865,199.525931 C150.318,199.525931 150.78865,199.460731 151.17265,199.330331 C151.55735,199.199452 151.87735,199.029261 152.13135,198.821675 C152.38465,198.613611 152.58,198.384931 152.71665,198.135158 C152.854,197.884905 152.956,197.640884 153.024,197.404055 C153.092,197.165308 153.13265,196.948614 153.14535,196.752534 C153.15735,196.556455 153.16335,196.404481 153.16335,196.298052 L153.16335,194.192955 L153.12665,194.192955 C152.792,194.870843 152.336,195.387649 151.75865,195.744331 C151.18265,196.101972 150.48465,196.279355 149.66665,196.279355 C148.95865,196.279355 148.348,196.163817 147.83335,195.932261 C147.31935,195.700225 146.89065,195.37854 146.55,194.969122 C146.20865,194.558746 145.95535,194.079814 145.78735,193.532805 C145.62065,192.986275 145.536,192.391325 145.536,191.749393 C145.536,191.142937 145.62665,190.566109 145.806,190.018956 C145.986,189.472427 146.24935,188.993638 146.59665,188.583262 C146.94335,188.172885 147.37535,187.846262 147.88935,187.602098 C148.404,187.358557 148.99665,187.23645 149.66665,187.23645 C150.03865,187.23645 150.404,187.284392 150.76335,187.379651 C151.12265,187.474862 151.45535,187.611015 151.75865,187.789356 C152.06335,187.967697 152.33265,188.187603 152.568,188.449698 C152.804,188.711121 152.98935,189.014109 153.12665,189.359286 L153.16335,189.359286 L153.16335,187.450604 L153.87065,187.450604 Z M136.30865,187.450604 L137.01665,187.450604 L137.01665,189.412357 L137.05265,189.412357 C137.17665,189.067803 137.354,188.761603 137.58335,188.493804 C137.81335,188.226579 138.08,187.997756 138.38335,187.807286 C138.68735,187.617439 139.01935,187.474862 139.37865,187.379651 C139.73865,187.284392 140.104,187.23645 140.47665,187.23645 C141.03465,187.23645 141.50865,187.302274 141.9,187.432674 C142.29065,187.563745 142.60865,187.735662 142.85735,187.949815 C143.106,188.163968 143.30135,188.404921 143.44335,188.672768 C143.586,188.939944 143.68865,189.210332 143.75,189.483933 C143.812,189.757533 143.85,190.022168 143.862,190.277839 C143.874,190.533509 143.88,190.756627 143.88,190.946378 L143.88,196.618778 L143.174,196.618778 L143.174,190.821731 C143.174,190.584039 143.15535,190.295721 143.118,189.956968 C143.08135,189.617545 142.972,189.290874 142.792,188.975756 C142.612,188.660639 142.33935,188.390251 141.974,188.163968 C141.60735,187.938309 141.10265,187.825168 140.45735,187.825168 C139.924,187.825168 139.44335,187.920427 139.016,188.110274 C138.58865,188.300744 138.22535,188.56538 137.92735,188.90418 C137.63,189.242932 137.404,189.647556 137.248,190.117379 C137.09335,190.587203 137.01665,191.101228 137.01665,191.660222 L137.01665,196.618778 L136.30865,196.618778 L136.30865,187.450604 Z M135.044,195.941369 L135.044,196.618778 L126.021995,196.618778 L126.021995,183.883109 L134.95135,183.883109 L134.95135,184.560709 L126.840665,184.560709 L126.840665,189.662274 L134.468,189.662274 L134.468,190.339827 L126.840665,190.339827 L126.840665,195.941369" id="Shape"></path>
                </g>
            </g>
        </g>
    </g>
</svg>