<?xml version="1.0" encoding="UTF-8"?>
<svg width="187px" height="43px" viewBox="0 0 187 43" version="1.1" xmlns="http://www.w3.org/2000/svg" xmlns:xlink="http://www.w3.org/1999/xlink">
    <!-- Generator: Sketch 64 (93537) - https://sketch.com -->
    <title>grammarly</title>
    <desc>Created with Sketch.</desc>
    <g id="Page-1" stroke="none" stroke-width="1" fill="none" fill-rule="evenodd">
        <g id="single_event_v0.1a" transform="translate(-1377.000000, -4435.000000)" fill-rule="nonzero">
            <g id="block#4" transform="translate(0.000000, 3970.000000)">
                <g id="logo#3" transform="translate(1300.000000, 317.000000)">
                    <g id="grammarly" transform="translate(77.000000, 148.617647)">
                        <path d="M57.1993118,30.8109609 C56.5156918,30.5597396 56.0688118,30.0305169 56.0688118,29.3253118 C56.0710667,28.7983445 56.3491508,28.307679 56.8090664,28.0191696 C57.268982,27.7306602 57.8492587,27.6828679 58.3537519,27.8919473 C59.570987,28.431607 60.8976597,28.7063966 62.238682,28.6966207 C64.9691721,28.6966207 66.2552821,27.4392387 66.2552821,25.0226677 L66.2552821,24.368472 C65.0729121,25.7278729 63.7881321,26.5567759 61.661462,26.5567759 C58.3803519,26.5567759 55.4131218,24.2664532 55.4131218,20.2647647 L55.4131218,20.2150305 C55.4131218,16.1878373 58.4322219,13.9230194 61.661462,13.9230194 C63.8400021,13.9230194 65.1261121,14.8029318 66.2020821,15.936616 L66.2020821,15.9111113 C66.2020821,14.8781707 67.0945122,14.023763 68.1970822,14.023763 C69.2996522,14.023763 70.1920823,14.8781707 70.1920823,15.936616 L70.1920823,24.6196934 C70.1920823,27.0362643 69.5882622,28.7973643 68.4072222,29.9297733 C67.0945122,31.1884306 65.0729121,31.743158 62.343752,31.743158 C60.5818627,31.7579531 58.8340551,31.441242 57.1993118,30.8109609 L57.1993118,30.8109609 Z M66.2552821,20.2647647 L66.2552821,20.2150305 C66.2552821,18.3786917 64.7577021,17.0945297 62.815902,17.0945297 C60.874102,17.0945297 59.4031219,18.3774164 59.4031219,20.2150305 L59.4031219,20.2660399 C59.4031219,22.1278835 60.874102,23.3865408 62.815902,23.3865408 C64.7577021,23.3865408 66.2552821,22.1023788 66.2552821,20.2647647 L66.2552821,20.2647647 Z M72.4504223,15.936616 C72.4504223,14.8801764 73.3436143,14.023763 74.4454224,14.023763 C75.5472305,14.023763 76.4404225,14.8801764 76.4404225,15.936616 L76.4404225,16.5398023 C77.0189725,15.2314108 77.9632725,14.023763 79.1443126,14.023763 C80.3785526,14.023763 81.0861126,14.804207 81.0861126,15.8856066 C81.0861126,16.8930425 80.4038226,17.4962288 79.5911926,17.6734865 C77.5695925,18.1261951 76.4390925,19.6118442 76.4390925,22.3280955 L76.4390925,25.9025801 C76.4578111,26.5975224 76.08184,27.2474961 75.4570906,27.6002519 C74.8323411,27.9530076 74.0571737,27.9530076 73.4324242,27.6002519 C72.8076748,27.2474961 72.4317038,26.5975224 72.4504223,25.9025801 L72.4504223,15.936616 M80.6152926,23.7895152 L80.6152926,23.7385058 C80.6152926,20.7939874 82.9507727,19.4345865 86.2850828,19.4345865 C87.7028628,19.4345865 88.7256329,19.6603032 89.7244629,19.9880386 L89.7244629,19.762322 C89.7244629,18.1772045 88.7003629,17.2947416 86.7053628,17.2947416 C85.6027928,17.2947416 84.7103627,17.4477699 83.9482727,17.6734865 C83.7634902,17.7391723 83.568123,17.7732703 83.3710527,17.7742301 C82.4533527,17.7742301 81.7178626,17.0945297 81.7178626,16.2120668 C81.7178626,15.5336416 82.1634127,14.9546848 82.7951627,14.7276929 C84.0533427,14.2749843 85.4192528,14.023763 87.2825828,14.023763 C89.4611229,14.023763 91.0358429,14.5772151 92.033343,15.5336416 C93.084043,16.5398023 93.5561951,18.0254515 93.5561951,19.8375609 L93.5561951,25.977819 C93.5569551,26.4697398 93.3518422,26.9413865 92.9868202,27.2870632 C92.6217982,27.6327399 92.1273902,27.8235412 91.614393,27.8167084 C90.4586229,27.8167084 89.6978629,27.0362643 89.6978629,26.2303156 L89.6978629,26.2048109 C88.7269629,27.2377515 87.3876528,27.9161767 85.4445228,27.9161767 C82.7938327,27.9161767 80.6152926,26.4573075 80.6152926,23.7895152 L80.6152926,23.7895152 Z M89.7763329,22.9083276 L89.7763329,22.2286271 C88.9741173,21.8897227 88.105985,21.7180296 87.2293828,21.7249092 C85.5229928,21.7249092 84.4736227,22.3791049 84.4736227,23.588028 L84.4736227,23.6390374 C84.4736227,24.6707028 85.3673828,25.2738891 86.6521628,25.2738891 C88.5168229,25.2738891 89.7776629,24.2919579 89.7776629,22.9083276 L89.7763329,22.9083276 Z M95.6841931,15.936616 C95.6841931,14.8801764 96.577385,14.023763 97.6791932,14.023763 C98.7810013,14.023763 99.6741932,14.8801764 99.6741932,15.936616 L99.6741932,16.088369 C100.591893,14.9546848 101.800863,13.9230194 103.821133,13.9230194 C105.659193,13.9230194 107.050373,14.7034634 107.784533,16.0628643 C109.018774,14.6779587 110.489754,13.9230194 112.404954,13.9230194 C115.370854,13.9230194 117.157044,15.6343852 117.157044,18.8824096 L117.157044,25.9025801 C117.157044,26.9590197 116.263852,27.8154331 115.162044,27.8154331 C114.060236,27.8154331 113.167044,26.9590197 113.167044,25.9025801 L113.167044,20.1397916 C113.167044,18.3276822 112.326484,17.3954852 110.830234,17.3954852 C109.333984,17.3954852 108.414953,18.326407 108.414953,20.1397916 L108.414953,25.9038554 C108.414953,26.9602949 107.521762,27.8167084 106.419953,27.8167084 C105.318145,27.8167084 104.424953,26.9602949 104.424953,25.9038554 L104.424953,20.1397916 C104.424953,18.3276822 103.585723,17.3954852 102.089473,17.3954852 C100.591893,17.3954852 99.6741932,18.326407 99.6741932,20.1397916 L99.6741932,25.9038554 C99.6741932,26.9602949 98.7810013,27.8167084 97.6791932,27.8167084 C96.577385,27.8167084 95.6841931,26.9602949 95.6841931,25.9038554 L95.6841931,15.936616 M119.310314,15.936616 C119.310314,14.8801764 120.203506,14.023763 121.305314,14.023763 C122.407122,14.023763 123.300314,14.8801764 123.300314,15.936616 L123.300314,16.088369 C124.218014,14.9546848 125.428314,13.9230194 127.448584,13.9230194 C129.285314,13.9230194 130.676494,14.7034634 131.411984,16.0628643 C132.646224,14.6779587 134.115874,13.9230194 136.031074,13.9230194 C138.998304,13.9230194 140.783165,15.6343852 140.783165,18.8824096 L140.783165,25.9025801 C140.783165,26.9590197 139.889973,27.8154331 138.788164,27.8154331 C137.686356,27.8154331 136.793164,26.9590197 136.793164,25.9025801 L136.793164,20.1397916 C136.793164,18.3276822 135.952604,17.3954852 134.457684,17.3954852 C132.960104,17.3954852 132.042404,18.326407 132.042404,20.1397916 L132.042404,25.9038554 C132.042404,26.9602949 131.149212,27.8167084 130.047404,27.8167084 C128.945596,27.8167084 128.052404,26.9602949 128.052404,25.9038554 L128.052404,20.1397916 C128.052404,18.3276822 127.211844,17.3954852 125.715594,17.3954852 C124.219344,17.3954852 123.301644,18.326407 123.301644,20.1397916 L123.301644,25.9038554 C123.301644,26.9602949 122.408452,27.8167084 121.306644,27.8167084 C120.204836,27.8167084 119.311644,26.9602949 119.311644,25.9038554 L119.311644,15.936616 M142.097205,23.7895152 L142.097205,23.7385058 C142.097205,20.7939874 144.434015,19.4345865 147.766995,19.4345865 C148.938009,19.4241367 150.101796,19.6114812 151.205045,19.9880386 L151.205045,19.762322 C151.205045,18.1772045 150.182275,17.2947416 148.185945,17.2947416 C147.084705,17.2947416 146.190945,17.4477699 145.431515,17.6734865 C145.246674,17.7389694 145.051345,17.7730608 144.854295,17.7742301 C143.933935,17.7742301 143.199775,17.0945297 143.199775,16.2120668 C143.199775,15.5336416 143.646655,14.9546848 144.275745,14.7276929 C145.536585,14.2749843 146.901165,14.023763 148.764495,14.023763 C150.944365,14.023763 152.519085,14.5772151 153.515255,15.5336416 C154.565955,16.5398023 155.038105,18.0254515 155.038105,19.8375609 L155.038105,25.977819 C155.038105,27.0107596 154.173605,27.8167084 153.096305,27.8167084 C151.941865,27.8167084 151.181105,27.0362643 151.181105,26.2303156 L151.181105,26.2048109 C150.208875,27.2377515 148.869565,27.9161767 146.927765,27.9161767 C144.275745,27.9161767 142.097205,26.4573075 142.097205,23.7895152 L142.097205,23.7895152 Z M151.258245,22.9083276 L151.258245,22.2286271 C150.456426,21.8899367 149.588775,21.7182491 148.712625,21.7249092 C147.004905,21.7249092 145.955535,22.3791049 145.955535,23.588028 L145.955535,23.6390374 C145.955535,24.6707028 146.847965,25.2738891 148.134075,25.2738891 C149.997405,25.2738891 151.259575,24.2919579 151.259575,22.9083276 L151.258245,22.9083276 Z M157.166105,15.936616 C157.166105,14.8801764 158.059297,14.023763 159.161105,14.023763 C160.262913,14.023763 161.156105,14.8801764 161.156105,15.936616 L161.156105,16.5398023 C161.733325,15.2314108 162.677625,14.023763 163.859995,14.023763 C165.092905,14.023763 165.801795,14.804207 165.801795,15.8856066 C165.801795,16.8930425 165.119505,17.4962288 164.305545,17.6734865 C162.283945,18.1261951 161.156105,19.6118442 161.156105,22.3280955 L161.156105,25.9025801 C161.156105,26.9590197 160.262913,27.8154331 159.161105,27.8154331 C158.059297,27.8154331 157.166105,26.9590197 157.166105,25.9025801 L157.166105,15.936616 M167.010765,11.0524647 C167.010765,9.99602511 167.903957,9.13961165 169.005765,9.13961165 C170.107574,9.13961165 171.000766,9.99602511 171.000766,11.0524647 L171.000766,25.9025801 C171.000766,26.9590197 170.107574,27.8154331 169.005765,27.8154331 C167.903957,27.8154331 167.010765,26.9590197 167.010765,25.9025801 L167.010765,11.0524647 M174.176806,31.4154225 C173.599586,31.2139353 172.915966,30.7612268 172.915966,29.830305 C172.915966,28.8993832 173.678056,28.2694169 174.492016,28.2694169 C174.807226,28.2694169 174.990766,28.3204263 175.147706,28.3701605 C175.489516,28.4709041 175.699656,28.5219135 175.988266,28.5219135 C176.697156,28.5219135 177.038966,28.39439 177.406046,27.7146895 L177.536386,27.413734 L172.733756,16.7412895 C172.627356,16.4900681 172.523616,16.1125985 172.523616,15.8613771 C172.523616,14.7774271 173.389446,14.0250382 174.492016,14.0250382 C175.489516,14.0250382 176.066736,14.5517104 176.407216,15.4571275 L179.452916,23.3113019 L182.392216,15.4826322 C182.708756,14.6792339 183.284646,14.023763 184.310076,14.023763 C185.334176,14.023763 186.198676,14.7787023 186.198676,15.784863 C186.198676,16.088369 186.094936,16.5155728 186.015136,16.6915553 L181.107436,27.9926908 C179.925066,30.7344468 178.744026,31.7673874 176.355346,31.7673874 C175.612674,31.7807643 174.873899,31.6614078 174.176806,31.4154225" id="Shape" fill="#4C4C4C"></path>
                        <path d="M44.3714614,20.9036576 C44.3714614,32.4483631 34.6105911,41.8085905 22.5701007,41.8085905 C10.5296103,41.8085905 0.767410025,32.4483631 0.767410025,20.9036576 C0.767410025,9.35895213 10.5296103,0 22.5701007,0 C34.6105911,0 44.3714614,9.35895213 44.3714614,20.9036576" id="Path" fill="#15C39A"></path>
                        <path d="M26.8713209,23.7372305 C25.9655908,23.7372305 25.2487208,24.520225 25.4189608,25.4179907 C25.5479708,26.1015168 26.2196208,26.5708034 26.9444709,26.5708034 L29.2294109,26.5708034 L30.552761,26.3922705 C28.4340709,29.3724955 24.7552908,30.7446487 20.7333707,30.1389119 C17.4589106,29.6466711 14.6472905,27.522129 13.4609304,24.5559316 C10.7663503,17.822689 15.8948305,11.3929525 22.5794107,11.3929525 C26.0640108,11.3929525 29.1163609,13.3478883 30.869301,15.7096241 L30.869301,15.7606335 C31.334801,16.4020769 32.256491,16.586986 32.9281411,16.1406536 C33.5638811,15.7172755 33.7394411,14.912602 33.3564011,14.2800853 L33.3670411,14.2800853 C30.84541,10.4950546 26.3677913,8.33424457 21.6949607,8.64737081 C15.3202705,9.05799659 10.1612003,14.0594696 9.79412032,20.1754982 C9.3685203,27.2913114 15.2564305,33.1025588 22.5794107,33.1025588 C26.2772349,33.1159067 29.7967457,31.5802238 32.215261,28.8981079 L31.937291,30.388858 L31.937291,31.7355066 C31.937291,32.4292346 32.425401,33.0745037 33.1396111,33.1982015 C33.5722693,33.2764055 34.0187717,33.1657162 34.3576768,32.8962393 C34.696582,32.6267623 34.8925512,32.2265191 34.8925512,31.8043693 L34.8925512,23.7372305 L26.8713209,23.7372305" id="Path" fill="#FFFFFF"></path>
                    </g>
                </g>
            </g>
        </g>
    </g>
</svg>