<?xml version="1.0" encoding="UTF-8"?>
<svg width="131px" height="39px" viewBox="0 0 131 39" version="1.1" xmlns="http://www.w3.org/2000/svg" xmlns:xlink="http://www.w3.org/1999/xlink">
    <!-- Generator: Sketch 64 (93537) - https://sketch.com -->
    <title>kasta</title>
    <desc>Created with Sketch.</desc>
    <g id="Page-1" stroke="none" stroke-width="1" fill="none" fill-rule="evenodd">
        <g id="single_event_v0.1a" transform="translate(-1790.000000, -4427.000000)" fill-rule="nonzero">
            <g id="block#4" transform="translate(0.000000, 3970.000000)">
                <g id="logo#4" transform="translate(1680.000000, 317.000000)">
                    <g id="kasta" transform="translate(110.000000, 139.988235)">
                        <g id="Group" transform="translate(93.509000, 0.000000)">
                            <path d="M11.4034571,37.2799795 C8.57502069,30.9676598 9.86787176,23.3981507 15.2868661,18.2616479 C20.7058604,13.1251451 28.691669,11.8996902 35.3511463,14.5806805 C38.1795826,20.8930002 36.8867315,28.4625092 31.4677373,33.599012 C26.0487429,38.7355148 18.0629345,39.9609697 11.4034571,37.2799795 Z M16.2673937,32.6695993 C17.1610387,33.5166584 18.6099231,33.5166584 19.5035679,32.6695993 C20.3972128,31.82254 20.3972128,30.4491855 19.5035679,29.6021264 C18.6099231,28.7550671 17.1610387,28.7550671 16.2673937,29.6021264 C15.3737489,30.4491855 15.3737489,31.82254 16.2673937,32.6695993 Z" id="Shape" fill="#4FAB52"></path>
                            <path d="M15.05978,14.2747154 C11.1174603,15.8578227 6.38634671,15.1261118 3.17240346,12.0797111 C-0.041539811,9.03331024 -0.813492545,4.54882913 0.85668075,0.812022077 C4.79900047,-0.771085272 9.53011399,-0.0393743432 12.7440573,3.00702643 C15.9580005,6.05342719 16.7299533,10.5379084 15.05978,14.2747154 Z M11.7148167,11.1041247 C12.3969172,10.4575821 12.3969172,9.40932937 11.7148167,8.76278674 C11.0327163,8.1162441 9.926813,8.1162441 9.24471253,8.76278674 C8.56261209,9.40932937 8.56261209,10.4575821 9.24471253,11.1041247 C9.926813,11.7506673 11.0327163,11.7506673 11.7148167,11.1041247 Z" id="Shape" fill="#D10074"></path>
                        </g>
                        <path d="M92.0707363,36.8908547 C90.63315,37.9229688 88.6545336,38.659103 86.4263203,38.659103 C83.4047777,38.659103 80.8422036,37.30547 79.465298,35.6957442 C77.9736503,33.9030952 77.132208,31.890938 77.132208,28.6714865 C77.132208,25.4520349 77.9736503,23.4398778 79.465298,21.6472287 C80.8422036,20.0375029 83.4047777,18.6838699 86.4263203,18.6838699 C88.4937604,18.6838699 90.3463226,19.3176072 91.7512154,20.2334946 L91.7512154,18.6838699 L95.7671899,18.6838699 L95.7671899,33.4925337 C95.7671899,34.3705659 96.073169,34.6998281 96.8763639,34.6998281 C97.1823429,34.6998281 97.4883218,34.6266587 97.4883218,34.6266587 L97.4883218,37.9924488 C96.6851269,38.321711 96.2644059,38.5046343 95.1169845,38.5046343 C93.5884772,38.5046343 92.5627258,37.8233595 92.0707363,36.8908547 Z M90.863016,28.6714865 C90.863016,26.8788374 90.5952844,25.0861882 89.4478632,23.8788939 C88.7976578,23.2203698 87.7267312,22.6715997 86.4263203,22.6715997 C85.1259096,22.6715997 84.054983,23.2203698 83.4047777,23.8788939 C82.2573565,25.0861882 81.9896248,26.8788374 81.9896248,28.6714865 C81.9896248,30.4641355 82.2573565,32.2567847 83.4047777,33.464079 C84.054983,34.1226031 85.1259096,34.6713732 86.4263203,34.6713732 C87.7267312,34.6713732 88.7976578,34.1226031 89.4478632,33.464079 C90.5952844,32.2567847 90.863016,30.4641355 90.863016,28.6714865 Z M75.5640656,38.1475792 C74.2254075,38.4768413 72.8867493,38.6597647 71.4715964,38.6597647 C67.4556219,38.6597647 65.4667584,36.4646842 65.4667584,32.8062166 L65.4667584,23.147862 L61.8332578,23.147862 L61.8332578,19.3796405 L65.4667584,19.3796405 L65.4667584,13.2008953 L70.2476804,13.2008953 L70.2476804,19.3796405 L75.2580867,19.3796405 L75.2580867,23.147862 L70.2476804,23.147862 L70.2476804,32.403785 C70.2476804,33.8671722 70.9361332,34.4891118 72.4660282,34.4891118 C73.46046,34.4891118 74.2636549,34.452527 75.5640656,34.3061882 L75.5640656,38.1475792 Z M60.1928704,32.2933694 C60.1928704,34.1226031 59.5044174,35.4762362 58.4717382,36.4640225 C56.8653486,38.0005788 54.3792692,38.659103 51.6637054,38.659103 C49.1393786,38.659103 46.8827834,37.9639941 45.2381462,36.4640225 C44.0907251,35.4030668 43.1345406,33.8299257 43.1345406,32.0372766 L47.6094837,32.0372766 C47.6094837,32.8787242 48.0684522,33.7933412 48.6804101,34.2689419 C49.4453576,34.8542967 50.3250473,35.1103895 51.7019528,35.1103895 C53.3083426,35.1103895 55.7561747,34.7811274 55.7561747,32.6958008 C55.7561747,31.5982605 54.9912271,30.866567 53.7673112,30.6836436 C52.0079319,30.4275509 50.0190682,30.3177969 48.2596891,29.95195 C45.5441253,29.40318 43.7082512,27.2812688 43.7082512,24.8666803 C43.7082512,22.9276923 44.5496935,21.5740593 45.7353622,20.586273 C47.1887625,19.3789788 49.2923681,18.6838699 51.7784476,18.6838699 C54.1497849,18.6838699 56.5593696,19.4155635 58.0127698,20.9155351 C59.0836964,22.0130756 59.7721491,23.4398778 59.7721491,24.8300955 L55.2207114,24.8300955 C55.2207114,24.098402 54.876485,23.5130472 54.4175166,23.0374464 C53.843806,22.4886762 52.8111268,22.159414 51.8166949,22.159414 C51.1282422,22.159414 50.4780368,22.159414 49.7513367,22.4520915 C48.9098944,22.7813537 48.2214415,23.4764626 48.2214415,24.4642487 C48.2214415,25.8178818 49.4453576,26.2203132 50.5162842,26.3666519 C52.3139108,26.5861599 52.8111268,26.6227446 54.7617428,26.9154221 C57.8980277,27.3910229 60.1928704,29.2934259 60.1928704,32.2933694 Z M35.6366148,36.8908547 C34.2315525,37.9229688 32.2977005,38.659103 30.1198985,38.659103 C27.1667155,38.659103 24.6621171,37.30547 23.3163627,35.6957442 C21.8584622,33.9030952 21.0360567,31.890938 21.0360567,28.6714865 C21.0360567,25.4520349 21.8584622,23.4398778 23.3163627,21.6472287 C24.6621171,20.0375029 27.1667155,18.6838699 30.1198985,18.6838699 C32.1405647,18.6838699 33.9512144,19.3176072 35.3243228,20.2334946 L35.3243228,18.6838699 L39.2494397,18.6838699 L39.2494397,33.4925337 C39.2494397,34.3705659 39.5484961,34.6998281 40.3335196,34.6998281 C40.6325761,34.6998281 40.9316326,34.6266587 40.9316326,34.6266587 L40.9316326,37.9924488 C40.1466092,38.321711 39.7354065,38.5046343 38.6139445,38.5046343 C37.1200183,38.5046343 36.1174736,37.8233595 35.6366148,36.8908547 Z M34.7668647,28.6714865 C34.7668647,26.8788374 34.4991331,25.0861882 33.3517118,23.8788939 C32.7015064,23.2203698 31.6305798,22.6715997 30.3301691,22.6715997 C29.0297584,22.6715997 27.9588318,23.2203698 27.3086265,23.8788939 C26.1612051,25.0861882 25.8934734,26.8788374 25.8934734,28.6714865 C25.8934734,30.4641355 26.1612051,32.2567847 27.3086265,33.464079 C27.9588318,34.1226031 29.0297584,34.6713732 30.3301691,34.6713732 C31.6305798,34.6713732 32.7015064,34.1226031 33.3517118,33.464079 C34.4991331,32.2567847 34.7668647,30.4641355 34.7668647,28.6714865 Z M12.6902926,23.2228176 L20.3929653,38.6597647 L14.7988506,38.6597647 L9.39171,27.5145925 L5.24502619,32.9098292 L5.24502619,38.6597647 L0.497389397,38.6597647 L0.497389397,13.2008953 L5.24502619,13.2008953 L5.24502619,25.3508862 L14.6148337,13.2008953 L20.3929653,13.2008953 L12.6902926,23.2228176 Z" id="Shape" fill="#1D1D1F"></path>
                    </g>
                </g>
            </g>
        </g>
    </g>
</svg>