<?xml version="1.0" encoding="UTF-8"?>
<svg width="146px" height="39px" viewBox="0 0 146 39" version="1.1" xmlns="http://www.w3.org/2000/svg" xmlns:xlink="http://www.w3.org/1999/xlink">
    <!-- Generator: Sketch 64 (93537) - https://sketch.com -->
    <title>Group 11</title>
    <desc>Created with Sketch.</desc>
    <g id="Page-1" stroke="none" stroke-width="1" fill="none" fill-rule="evenodd">
        <g id="single_event_v0.1a" transform="translate(-1777.000000, -4795.000000)">
            <g id="block#4" transform="translate(0.000000, 3970.000000)">
                <g id="logo#8" transform="translate(1680.000000, 682.000000)">
                    <g id="Group-11" transform="translate(97.000000, 143.823529)">
                        <path d="M137.844148,22.6620427 L141.027111,12.3926876 L145.960444,12.3926876 L139.037481,31.4661734 L138.656,32.336217 C137.627111,34.4925046 135.929333,35.5713586 133.563407,35.5713586 C132.894519,35.5713586 132.216,35.474766 131.52637,35.2815808 L131.52637,31.9399033 L132.22637,31.9548183 C133.096741,31.9548183 133.74637,31.8276854 134.176,31.5734196 C134.60563,31.3191538 134.942667,30.8965612 135.18637,30.3070623 L135.727852,28.9490841 L129.696,12.3926876 L134.64637,12.3926876 L137.844148,22.6620427 Z M123.012296,28.9029185 L127.627111,28.9029185 L127.627111,5.46501002 L123.012296,5.46501002 L123.012296,28.9029185 Z M115.32637,20.4801865 C115.32637,18.9439381 115.041926,17.7585481 114.473778,16.9247268 C113.907111,16.0909054 113.081185,15.6732845 111.998963,15.6732845 C110.556741,15.6732845 109.564148,16.2024131 109.023407,17.2606702 L109.023407,24.0200209 C109.58637,25.1081081 110.588593,25.6528619 112.030815,25.6528619 C114.227111,25.6528619 115.32637,23.9284 115.32637,20.4801865 L115.32637,20.4801865 Z M119.924889,20.8005046 C119.924889,23.3431625 119.322667,25.3808401 118.118222,26.9114065 C116.914519,28.4426832 115.288593,29.2083216 113.240444,29.2083216 C111.501185,29.2083216 110.095259,28.6280558 109.023407,27.4689447 L109.023407,35.2510405 L104.424148,35.2510405 L104.424148,12.3926876 L108.690074,12.3926876 L108.847852,14.0099033 C109.961926,12.7286309 111.416,12.0872845 113.208593,12.0872845 C115.330815,12.0872845 116.980444,12.8401386 118.158222,14.3458466 C119.336,15.8515547 119.924889,17.9268749 119.924889,20.5718074 L119.924889,20.8005046 Z M94.2071111,15.6583695 C93.2945185,15.6583695 92.5545185,15.953119 91.9871111,16.5433281 C91.4197037,17.132827 91.056,17.977302 90.8967407,19.0760427 L97.2945185,19.0760427 L97.2945185,18.7251843 C97.273037,17.7486048 96.9974815,16.99362 96.4678519,16.4595198 C95.9367407,15.9254196 95.1834074,15.6583695 94.2071111,15.6583695 L94.2071111,15.6583695 Z M94.7322963,29.2083216 C92.2078519,29.2083216 90.1515556,28.4654109 88.5663704,26.9802998 C86.9797037,25.4951887 86.1863704,23.516461 86.1863704,21.044827 L86.1863704,20.6172627 C86.1863704,18.9588532 86.5204444,17.476583 87.1885926,16.1690318 C87.8574815,14.8621908 88.8041481,13.855071 90.0293333,13.1476723 C91.2552593,12.4409839 92.653037,12.0872845 94.2226667,12.0872845 C96.5782222,12.0872845 98.4322963,12.7996549 99.7848889,14.2236854 C101.137481,15.6484261 101.813778,17.6669272 101.813778,20.2813194 L101.813778,22.0824871 L90.8500741,22.0824871 C90.9982222,23.1606309 91.4456296,24.0249926 92.1937778,24.6762824 C92.9419259,25.3268619 93.8885926,25.6528619 95.0345185,25.6528619 C96.8071111,25.6528619 98.1915556,25.0370841 99.1878519,23.8062388 L101.447852,26.2324174 C100.758963,27.1685133 99.8248889,27.8986397 98.6471111,28.4220863 C97.4693333,28.9462431 96.1641481,29.2083216 94.7322963,29.2083216 L94.7322963,29.2083216 Z M84.5945185,16.5277028 C83.9693333,16.4467355 83.4167407,16.4055416 82.9397037,16.4055416 C81.1997037,16.4055416 80.058963,16.9701821 79.5182222,18.0994632 L79.5182222,28.9029185 L74.918963,28.9029185 L74.918963,12.3926876 L79.2634074,12.3926876 L79.3908148,14.3607617 C80.3137778,12.8451102 81.593037,12.0872845 83.2271111,12.0872845 C83.7352593,12.0872845 84.213037,12.1540471 84.6582222,12.2861516 L84.5945185,16.5277028 Z M58.973037,17.3672061 L63.2382222,17.3672061 C64.5004444,17.3672061 65.4634074,17.0824 66.1263704,16.5127878 C66.7893333,15.9431756 67.1211852,15.129241 67.1211852,14.0709839 C67.1211852,12.9828967 66.7871111,12.1029098 66.1182222,11.4310231 C65.4500741,10.7598466 64.5271111,10.4139599 63.3493333,10.3940732 L58.973037,10.3940732 L58.973037,17.3672061 Z M58.973037,21.0753673 L58.973037,28.9029185 L54.198963,28.9029185 L54.198963,6.68591198 L63.2382222,6.68591198 C64.9782222,6.68591198 66.5085926,6.99131503 67.8293333,7.60141089 C69.1500741,8.21150675 70.1663704,9.07870937 70.8767407,10.2030187 C71.5878519,11.3273281 71.9434074,12.6064697 71.9434074,14.0404436 C71.9434074,16.2173281 71.1656296,17.9339773 69.6115556,19.1903913 C68.0574815,20.4468052 65.9063704,21.0753673 63.1582222,21.0753673 L58.973037,21.0753673 Z" id="Fill-1" fill="#000000"></path>
                        <path d="M18.3034815,8.36257473 C18.3034815,6.71339826 15.1982963,5.87247451 11.4975556,4.86961612 C7.71977778,3.84758126 3.43014815,2.68562919 0.304222222,0.0485093682 C0.279037037,0.0279124183 0.242,0.012287146 0.197555556,0.00518474946 C0.137555556,-0.00546884532 0.0716296296,0.000213071895 0.00718518519,0.0215202614 L0.000518518519,0.02436122 L0.000518518519,15.3030366 C0.000518518519,16.2263481 0.195333333,17.0750845 0.582740741,17.847115 C0.980518519,18.6397425 1.58792593,19.3727098 2.40051852,20.0410453 C5.00644444,22.1831281 8.89014815,23.2335725 12.3160741,24.1618558 C14.5931111,24.7783438 16.699037,25.3493765 18.3034815,26.168993 L18.3034815,8.36257473" id="Fill-3" fill="#3BB3BD"></path>
                        <path d="M21.3905185,8.00191503 C21.5564444,8.55803268 22.1045926,9.01684749 22.9171852,9.42523529 C24.2505185,8.90462963 25.8305185,8.47635512 27.5082963,8.02180174 C30.0268148,7.33926144 32.7875556,6.59208932 35.1445926,5.39320479 C35.5557037,5.18581481 36.0653333,5.3378061 36.2816296,5.73269935 C36.4971852,6.12688235 36.3401481,6.61623747 35.929037,6.82362745 C33.4127407,8.1034793 30.5631111,8.87479956 27.9631111,9.5793573 C27.0275556,9.83291285 26.1282963,10.0765251 25.2986667,10.3293704 C26.169037,10.5985512 27.1342222,10.8592092 28.1438519,11.1333617 C28.7616296,11.300268 29.3934815,11.4714357 30.0312593,11.6518366 C31.7875556,11.1362026 33.5571852,10.5332092 35.1445926,9.72637691 C35.5557037,9.51827669 36.0653333,9.67026797 36.2816296,10.0651612 C36.4971852,10.4600545 36.3401481,10.9486993 35.929037,11.1567996 C34.9105185,11.673854 33.8379259,12.1092309 32.7482963,12.4892092 C35.069037,13.2832571 37.3386667,14.3095534 39.209037,15.8458017 C39.3371852,15.9509172 39.4608889,16.0574532 39.5823704,16.1661198 C39.6216296,15.8862854 39.6416296,15.5986383 39.6416296,15.3031786 L39.6416296,0.024503268 L39.634963,0.0216623094 C39.5705185,0.000355119826 39.5045926,-0.00532679739 39.4445926,0.00532679739 C39.4001481,0.0117189542 39.3631111,0.0273442266 39.3379259,0.0486514161 C36.212,2.68577124 31.9216296,3.84701307 28.1445926,4.86975817 C24.7238519,5.79662092 21.812,6.58498693 21.3905185,8.00191503" id="Fill-5" fill="#F8463D"></path>
                        <path d="M21.3383704,29.7346092 C21.3383704,31.3837856 24.4428148,32.2254196 28.1442963,33.2275678 C31.9220741,34.2503129 36.2117037,35.4122649 39.3376296,38.0486745 C39.3628148,38.0699817 39.3998519,38.0848967 39.4442963,38.0927094 C39.5042963,38.1026527 39.5702222,38.0976048 39.6354074,38.0756636 L39.6413333,38.0728227 L39.6413333,22.7941473 C39.6413333,21.8708357 39.4465185,21.0220993 39.0598519,20.2507791 C38.6613333,19.4581516 38.0539259,18.7251843 37.2405926,18.0568488 C34.6354074,15.9154763 30.7517037,14.8636113 27.3257778,13.9360383 C25.0494815,13.3195503 22.9428148,12.7485176 21.3383704,11.9289011 L21.3383704,29.7346092" id="Fill-7" fill="#F8463D"></path>
                        <path d="M16.7254074,28.6727298 C15.3913333,29.1926253 13.8120741,29.6208998 12.1335556,30.0754532 C9.61503704,30.7579935 6.8542963,31.5058758 4.49725926,32.7040501 C4.08614815,32.9114401 3.57725926,32.760159 3.36096296,32.3652658 C3.14466667,31.9703725 3.30244444,31.4810174 3.71281481,31.2736275 C6.22911111,29.9937756 9.07874074,29.2224553 11.6794815,28.5186078 C12.6142963,28.264342 13.5142963,28.0214401 14.3424444,27.7685948 C13.4728148,27.4994139 12.5076296,27.2373355 11.4972593,26.9646035 C10.8802222,26.7969869 10.2483704,26.6265294 9.61059259,26.4454183 C7.8542963,26.9617625 6.08466667,27.5640458 4.49725926,28.3715882 C4.08614815,28.5796885 3.57725926,28.4269869 3.36096296,28.0328039 C3.14466667,27.6372004 3.30244444,27.1485556 3.71281481,26.9411656 C4.73133333,26.4234009 5.80466667,25.9887342 6.89355556,25.6080458 C4.57281481,24.8147081 2.30318519,23.7884118 0.432814815,22.2507429 C0.305407407,22.1463377 0.180222222,22.040512 0.0594814815,21.9311351 C0.0194814815,22.2116797 0.000222222222,22.4993268 0.000222222222,22.7940763 L0.000222222222,38.0727516 L0.00688888889,38.0755926 C0.0713333333,38.0975338 0.137259259,38.1025817 0.198,38.0926383 C0.241703704,38.0848257 0.278740741,38.0699107 0.303925926,38.0486035 C3.42985185,35.4121939 7.71948148,34.2509521 11.4972593,33.2274967 C14.918,32.3013442 17.8298519,31.512268 18.2505926,30.0953399 C18.0854074,29.5399325 17.5372593,29.0811176 16.7254074,28.6727298" id="Fill-9" fill="#3BB3BD"></path>
                    </g>
                </g>
            </g>
        </g>
    </g>
</svg>