<?xml version="1.0" encoding="UTF-8"?>
<svg width="23px" height="19px" viewBox="0 0 23 19" version="1.1" xmlns="http://www.w3.org/2000/svg" xmlns:xlink="http://www.w3.org/1999/xlink">
    <!-- Generator: Sketch 52.2 (67145) - http://www.bohemiancoding.com/sketch -->
    <title>-telegramm-gray</title>
    <desc>Created with Sketch.</desc>
    <g id="Symbols" stroke="none" stroke-width="1" fill="none" fill-rule="evenodd">
        <g id="icon32/--telega" transform="translate(-3.000000, -7.000000)" fill="#202020" fill-rule="nonzero">
            <g id="-telegramm-gray" transform="translate(3.000000, 7.000000)">
                <path d="M19.0089042,18.9803252 C18.1370505,19.1151218 17.0102429,18.5572764 15.6284817,17.306789 C13.2795865,15.932533 11.6343713,14.795771 10.6928364,13.8965033 C9.75130157,12.9972354 9.94201027,11.9887222 11.2649627,10.8709638 L16.7140242,5.75671659 C17.0937614,5.31363049 17.0937614,5.0920875 16.7140242,5.0920875 C16.3342869,5.0920875 14.7277671,6.12245956 11.8944647,8.1832037 C9.55911021,9.74207896 7.94260774,10.7596507 7.04495706,11.235919 C5.69848113,11.9503215 2.69374344,10.8817455 1.72413843,10.5215165 C0.754533428,10.1612876 -1.4411623,9.37082204 1.40983222,8.1832037 C3.31049523,7.39145809 9.80610746,4.69636244 20.8966689,0.097916615 C22.2988896,-0.22583161 23,0.253242901 23,1.53514016 C23,3.45798607 20.8363034,15.9435106 20.6051943,16.9778716 C20.3740853,18.0122323 20.3166849,18.7781302 19.0089042,18.9803252 Z" id="Path-10"></path>
            </g>
        </g>
    </g>
</svg>