<?xml version="1.0" encoding="UTF-8"?>
<svg width="20px" height="16px" viewBox="0 0 20 16" version="1.1" xmlns="http://www.w3.org/2000/svg" xmlns:xlink="http://www.w3.org/1999/xlink">
    <!-- Generator: Sketch 52.2 (67145) - http://www.bohemiancoding.com/sketch -->
    <title>Path</title>
    <desc>Created with Sketch.</desc>
    <g id="Symbols" stroke="none" stroke-width="1" fill="none" fill-rule="evenodd">
        <g id="icon32/--twitter" transform="translate(-6.000000, -8.000000)" fill="#202020" fill-rule="nonzero">
            <g id="Path">
                <path d="M26,9.90009277 C25.2131693,10.2334562 24.4261607,10.4416442 23.6396856,10.5252696 C24.5279927,10.0002682 25.1288501,9.25858488 25.4419022,8.30026352 C24.6293357,8.77517725 23.7623195,9.10009058 22.8402314,9.27517862 C22.027976,8.42517629 21.0298362,8 19.8451452,8 C18.7116147,8 17.7451223,8.39369635 16.9453126,9.18126418 C16.1459473,9.96878822 15.7462202,10.9208048 15.7462202,12.0374454 C15.7462202,12.3374024 15.7800012,12.6458533 15.847741,12.9624917 C14.1725587,12.8791727 12.6011197,12.4645919 11.1331572,11.7187492 C9.66528357,10.972819 8.41952009,9.97903344 7.39586672,8.73739256 C7.02360892,9.36226292 6.83741335,10.0415555 6.83741335,10.7748762 C6.83741335,11.4665594 7.00236245,12.10833 7.33248288,12.7000129 C7.66238107,13.2916082 8.10664575,13.7707251 8.66505466,14.1374511 C8.00503604,14.1124073 7.38746591,13.9415224 6.81225539,13.6248403 L6.81225539,13.6748404 C6.81225539,14.6499306 7.12317399,15.5060188 7.74492229,16.2437616 C8.36675949,16.9814169 9.15150114,17.4457351 10.0989695,17.6375045 C9.74360217,17.7290546 9.3839678,17.7748954 9.02024416,17.7748954 C8.78333263,17.7748954 8.52526353,17.7540985 8.24612574,17.7127236 C8.50837302,18.5209132 8.99064133,19.1852758 9.69275286,19.7063805 C10.3949977,20.2272226 11.1902737,20.4956997 12.0786253,20.512775 C10.589683,21.6626031 8.89343204,22.2375171 6.98987237,22.2375171 C6.62601537,22.2375171 6.29616163,22.221186 6,22.1876483 C7.90360412,23.3958828 10.0017157,24 12.2944681,24 C13.7496294,24 15.1159822,23.7731605 16.393082,23.3188685 C17.6708041,22.8648831 18.7620639,22.2563875 19.6673949,21.4937322 C20.5724591,20.731252 21.3531115,19.854148 22.0086853,18.8625078 C22.6643035,17.8707801 23.1527057,16.8354445 23.4744698,15.7562822 C23.7958338,14.6769009 23.9566492,13.5958559 23.9566492,12.5123153 C23.9566492,12.2789522 23.9523821,12.1040393 23.9438924,11.9873139 C24.7478359,11.412575 25.4331014,10.7166011 26,9.90009277 Z"></path>
            </g>
        </g>
    </g>
</svg>