<?xml version="1.0" encoding="UTF-8"?>
<svg width="30px" height="8px" viewBox="0 0 30 8" version="1.1" xmlns="http://www.w3.org/2000/svg" xmlns:xlink="http://www.w3.org/1999/xlink">
    <!-- Generator: Sketch 52.2 (67145) - http://www.bohemiancoding.com/sketch -->
    <title>Combined Shape</title>
    <desc>Created with Sketch.</desc>
    <g id="Symbols" stroke="none" stroke-width="1" fill="none" fill-rule="evenodd">
        <g id="arrow--active" transform="translate(0.000000, -6.000000)" fill="#202020" fill-rule="nonzero">
            <path d="M29.3732535,10.9278946 L25.6057388,13.7957043 L25.5012082,13.8654805 C25.07149,14.1150297 24.5131284,14.0113364 24.2043492,13.6056853 C23.8698384,13.16623 23.9549128,12.5388065 24.3943681,12.2042957 L27.3195927,9.97763229 L24.4531382,7.79570426 C24.0136829,7.46119349 23.9286085,6.83377 24.2631193,6.39431467 C24.5718984,5.98866359 25.1302601,5.88497026 25.5599783,6.13451952 L25.6645089,6.20429574 L29.6056853,9.20429574 C30.0451407,9.53880651 30.130215,10.16623 29.7957043,10.6056853 C29.6823046,10.7546613 29.5352429,10.8629112 29.3732535,10.9278946 Z M22,9 C22.5522847,9 23,9.44771525 23,10 C23,10.5128358 22.6139598,10.9355072 22.1166211,10.9932723 L22,11 L1,11 C0.44771525,11 4.97379915e-14,10.5522847 4.97379915e-14,10 C4.97379915e-14,9.48716416 0.38604019,9.06449284 0.883378875,9.00672773 L1,9 L22,9 Z" id="Combined-Shape"></path>
        </g>
    </g>
</svg>