<?xml version="1.0" encoding="UTF-8"?>
<svg width="24px" height="18px" viewBox="0 0 24 18" version="1.1" xmlns="http://www.w3.org/2000/svg" xmlns:xlink="http://www.w3.org/1999/xlink">
    <!-- Generator: Sketch 52.2 (67145) - http://www.bohemiancoding.com/sketch -->
    <title>Shape</title>
    <desc>Created with Sketch.</desc>
    <g id="Symbols" stroke="none" stroke-width="1" fill="none" fill-rule="evenodd">
        <g id="icon32/--youtube" transform="translate(-4.000000, -7.000000)" fill="#202020" fill-rule="nonzero">
            <g id="Shape">
                <path d="M7.21675256,23.9556701 C9.79381443,24.2427835 13.4018041,24.2445876 15.9989691,24.2427835 C18.5969072,24.2445876 22.2054124,24.2427835 24.7814433,23.9556701 C25.8695877,23.8340206 26.7737113,23.0180413 27.0283505,21.9128866 C27.3907216,20.339433 27.3917526,17.6203608 27.3917526,15.9997423 C27.3917526,14.3793814 27.3951031,11.6610825 27.0324743,10.0876289 C26.777835,8.9814433 25.8739691,8.16649488 24.7853093,8.04510311 C22.2085051,7.75695875 18.6,7.75592782 16.0033505,7.75695875 C13.4061856,7.75592782 9.79690722,7.75695875 7.21958763,8.04510311 C6.13247419,8.16649488 5.22835055,8.9814433 4.9747423,10.0876289 C4.61262885,11.6610825 4.60824742,14.3793814 4.60824742,16 C4.60824742,17.6206186 4.60824742,20.339433 4.97087631,21.9128866 C5.22422684,23.0180413 6.12835048,23.8340206 7.21675256,23.9556701 Z M13,12 C15.2020619,13.148969 17.7786689,14.8430413 19.9954215,15.9997423 C17.7851123,17.1456186 15.2082474,18.8548969 13,20 L13,12 Z"></path>
            </g>
        </g>
    </g>
</svg>