<?xml version="1.0" encoding="UTF-8"?>
<svg width="32px" height="32px" viewBox="0 0 32 32" version="1.1" xmlns="http://www.w3.org/2000/svg" xmlns:xlink="http://www.w3.org/1999/xlink">
    <!-- Generator: Sketch 64 (93537) - https://sketch.com -->
    <title>Shape</title>
    <desc>Created with Sketch.</desc>
    <g id="Page-1" stroke="none" stroke-width="1" fill="none" fill-rule="evenodd">
        <g id="single_event_v0.1a" transform="translate(-593.000000, -8974.000000)" fill="#FFFFFF" fill-rule="nonzero">
            <g id="block#6" transform="translate(1.000000, 8600.000000)">
                <g id="details" transform="translate(540.000000, 70.000000)">
                    <g id="btn-copy" transform="translate(40.000000, 290.000000)">
                        <g id="btn/--detail">
                            <g id="btn/--rm">
                                <g id="route" transform="translate(12.000000, 14.000000)">
                                    <path d="M28.4685,22.0854375 L11.086125,22.0854375 C10.206125,22.0854375 9.49025,21.3684375 9.49025,20.487125 C9.49025,19.6058125 10.206125,18.8888125 11.086125,18.8888125 L20.39,18.8888125 C20.7313125,18.8888125 20.9924375,18.7226875 21.198125,18.44 L26.12775,11.658625 C29.758375,6.9398125 26.4073125,3.55271368e-15 20.3900625,3.55271368e-15 C14.49375,3.55271368e-15 11.012375,6.738625 14.6198125,11.61725 L18.623375,17.0138125 L11.086125,17.0138125 C9.17225,17.0138125 7.61525,18.5719375 7.61525,20.487125 C7.61525,22.4023125 9.17225,23.9604375 11.086125,23.9604375 L28.4685,23.9604375 C29.381875,23.9604375 30.125,24.704625 30.125,25.619375 C30.125,26.534125 29.381875,27.2783125 28.4685,27.2783125 L7.4455,27.2783125 C7.027625,25.6436875 5.5434375,24.431625 3.7815625,24.431625 C1.6964375,24.4315625 0,26.1291875 0,28.2158125 C0,30.3024375 1.6964375,32 3.7815625,32 C5.5434375,32 7.027625,30.787875 7.4455,29.1533125 L28.4685,29.1533125 C30.41575,29.1533125 32,27.568 32,25.619375 C32,23.67075 30.41575,22.0854375 28.4685,22.0854375 Z M16.120125,10.4913125 C13.4605,6.9930625 15.9429375,1.875 20.3900625,1.875 C24.86575,1.875 27.3316875,7.0454375 24.6291875,10.5314375 C24.6213125,10.5415625 20.4373125,16.29775 20.432125,16.304875 C20.4274375,16.298625 16.1249375,10.4975625 16.120125,10.4913125 Z M3.7815625,30.125 C2.7303125,30.125 1.875,29.2685 1.875,28.2158125 C1.875,27.163125 2.7303125,26.306625 3.7815625,26.306625 C4.8328125,26.306625 5.688125,27.163125 5.688125,28.2158125 C5.688125,29.2685 4.8328125,30.125 3.7815625,30.125 Z" id="Shape"></path>
                                </g>
                            </g>
                        </g>
                    </g>
                </g>
            </g>
        </g>
    </g>
</svg>