<?xml version="1.0" encoding="UTF-8"?>
<svg width="28px" height="37px" viewBox="0 0 28 37" version="1.1" xmlns="http://www.w3.org/2000/svg" xmlns:xlink="http://www.w3.org/1999/xlink">
    <!-- Generator: Sketch 52.2 (67145) - http://www.bohemiancoding.com/sketch -->
    <title>Combined Shape</title>
    <desc>Created with Sketch.</desc>
    <g id="Symbols" stroke="none" stroke-width="1" fill="none" fill-rule="evenodd">
        <g id="icon60x60/--quote" transform="translate(-17.000000, -10.000000)" fill="#202020">
            <g id="Combined-Shape">
                <path d="M27.3389434,10.7176014 L31,13.6634445 C28.0903453,18.1192841 27.2564144,18.7374833 25.6140228,30 C25.0407501,35.272338 25.5027425,40.9390047 27,47 L17.473672,47 C17.0148109,40.6367224 17.3561025,34.589656 18.4975468,28.8588007 C20.2097131,20.2625177 23.8649332,14.6854407 27.3389434,10.7176014 Z M41.3389434,10.7176014 L45,13.6634445 C42.0903453,18.1192841 41.2564144,18.7374833 39.6140228,30 C39.0407501,35.272338 39.5027425,40.9390047 41,47 L31.473672,47 C31.0148109,40.6367224 31.3561025,34.589656 32.4975468,28.8588007 C34.2097131,20.2625177 37.8649332,14.6854407 41.3389434,10.7176014 Z"></path>
            </g>
        </g>
    </g>
</svg>