<?xml version="1.0" encoding="UTF-8"?>
<svg width="24px" height="24px" viewBox="0 0 24 24" version="1.1" xmlns="http://www.w3.org/2000/svg" xmlns:xlink="http://www.w3.org/1999/xlink">
    <!-- Generator: Sketch 52.2 (67145) - http://www.bohemiancoding.com/sketch -->
    <title>Combined Shape</title>
    <desc>Created with Sketch.</desc>
    <g id="Symbols" stroke="none" stroke-width="1" fill="none" fill-rule="evenodd">
        <g id="icon/40x40/-date" transform="translate(-8.000000, -7.000000)" fill="#202020" fill-rule="nonzero">
            <g id="Combined-Shape">
                <path d="M25,10 L25,7 L27,7 L27,10 L32,10 L32,31 L8,31 L8,10 L13,10 L13,7 L15,7 L15,10 L25,10 Z M27,12 L27,14 L25,14 L25,12 L15,12 L15,14 L13,14 L13,12 L10,12 L10,17 L30,17 L30,12 L27,12 Z M30,19 L10,19 L10,29 L30,29 L30,19 Z"></path>
            </g>
        </g>
    </g>
</svg>