<?xml version="1.0" encoding="UTF-8"?>
<svg width="21px" height="20px" viewBox="0 0 21 20" version="1.1" xmlns="http://www.w3.org/2000/svg" xmlns:xlink="http://www.w3.org/1999/xlink">
    <!-- Generator: Sketch 52.2 (67145) - http://www.bohemiancoding.com/sketch -->
    <title>Shape</title>
    <desc>Created with Sketch.</desc>
    <g id="Symbols" stroke="none" stroke-width="1" fill="none" fill-rule="evenodd">
        <g id="icon/50x50/-li" transform="translate(-15.000000, -15.000000)" fill="#202020" fill-rule="nonzero">
            <path d="M18.0206985,15 C16.3531618,15 15,16.3531618 15,18.0206985 L15,31.9756985 C15,33.6434191 16.3531618,34.9965809 18.0206985,34.9965809 L32.9783088,34.9965809 C34.6462132,34.9965809 35.9965809,33.6434191 35.9965809,31.9758824 L35.9965809,18.0206985 C35.9965441,16.3531618 34.6459926,15 32.9782721,15 L18.0206985,15 Z M22.1423897,19.0525 C22.1423897,19.9203676 21.4879044,20.6134191 20.4404779,20.6134191 L20.421875,20.6134191 C19.4130515,20.6134191 18.7599632,19.9203309 18.7599632,19.0525 C18.7599632,18.1654412 19.4332353,17.4889706 20.461875,17.4889706 C21.4894853,17.4889706 22.1229779,18.1654412 22.1423897,19.0525 Z M29.3221324,21.6370588 C31.2997794,21.6370588 32.7815441,22.9280515 32.7815441,25.7055515 L32.7815441,30.8910662 L29.7766544,30.8910662 L29.7766544,26.0538971 C29.7766544,24.8384926 29.3407353,24.0090441 28.2529044,24.0090441 C27.4228309,24.0090441 26.9301471,24.5669485 26.7133824,25.1072426 C26.6340074,25.3004044 26.6123897,25.5707721 26.6123897,25.8411029 L26.6123897,30.8910294 L23.6075,30.8910662 C23.6075,30.8910662 23.6472794,22.6982353 23.6075,21.85 L26.6123897,21.85 L26.6123897,23.1317647 C27.0113235,22.5152941 27.725625,21.6370588 29.3221324,21.6370588 Z M18.938125,21.8498162 L21.9427941,21.8498162 L21.9427941,30.8908456 L18.938125,30.8908456 L18.938125,21.8498162 Z" id="Shape"></path>
        </g>
    </g>
</svg>