<?xml version="1.0" encoding="UTF-8"?>
<svg width="6px" height="8px" viewBox="0 0 6 8" version="1.1" xmlns="http://www.w3.org/2000/svg" xmlns:xlink="http://www.w3.org/1999/xlink">
    <!-- Generator: Sketch 64 (93537) - https://sketch.com -->
    <title>Combined Shape</title>
    <desc>Created with Sketch.</desc>
    <g id="Page-1" stroke="none" stroke-width="1" fill="none" fill-rule="evenodd">
        <g id="single_event_v0.1a" transform="translate(-624.000000, -142.000000)" fill="#202020" fill-rule="nonzero">
            <g id="breadcrumbs" transform="translate(540.000000, 136.000000)">
                <g id="arrow--active-copy" transform="translate(84.000000, 6.000000)">
                    <path d="M1.55997826,0.134519521 L1.66450886,0.204295736 L5.60568533,3.20429574 L5.62226718,3.2168897 C5.63763765,3.22912162 5.65270526,3.24185765 5.66744526,3.25509444 L5.60568533,3.20429574 C5.71124391,3.28464629 5.79635556,3.3818972 5.86011662,3.48938387 C5.86784318,3.50270193 5.87532672,3.51595895 5.88247854,3.52932882 C5.89457612,3.55181726 5.90591394,3.57526034 5.91630054,3.59905639 C5.92478697,3.61831506 5.9323784,3.63723006 5.93936017,3.65629231 C5.94455704,3.67094778 5.94958589,3.68580224 5.95426083,3.7007549 C5.96243806,3.72617093 5.96943339,3.7521343 5.9753554,3.77825591 C5.97828779,3.79217595 5.98115571,3.80619779 5.98372296,3.82027183 C5.98786071,3.84186854 5.99106631,3.86355313 5.99355452,3.88528388 C5.99550869,3.90351015 5.99712652,3.92191156 5.99823668,3.94035064 C5.99950407,3.96044234 6.00007872,3.98051185 6.00005262,4.00056535 C6.0000594,4.02015713 5.99948442,4.03989194 5.99832478,4.05961441 C5.99712652,4.07808844 5.99550869,4.09648985 5.99338626,4.11483099 C5.99106631,4.13644687 5.98786071,4.15813146 5.98393273,4.17973302 C5.98115571,4.19380221 5.97828779,4.20782405 5.9751206,4.22178317 C5.96943339,4.2478657 5.96243806,4.27382907 5.95436042,4.29956788 C5.94958589,4.31419776 5.94455704,4.32905222 5.93917612,4.3437948 C5.9323784,4.36276994 5.92478697,4.38168494 5.9165821,4.40042485 C5.90591394,4.42473966 5.89457612,4.44818274 5.88229542,4.47121148 C5.87532672,4.48404105 5.86784318,4.49729807 5.86002645,4.51043131 C5.79635556,4.6181028 5.71124391,4.71535371 5.60568533,4.79570426 L5.66744526,4.74490556 C5.64777839,4.76256677 5.62752831,4.77933651 5.60675379,4.79520682 L5.60568533,4.79570426 L1.66450886,7.79570426 L1.55997826,7.86548048 C1.13026005,8.11502974 0.571898442,8.01133641 0.263119266,7.60568533 C-0.0713915078,7.16623 0.0136828643,6.53880651 0.453138194,6.20429574 L0.453138194,6.20429574 L3.34877006,3.99994653 L0.453138194,1.79570426 C0.0136828643,1.46119349 -0.0713915078,0.833769995 0.263119266,0.394314665 C0.571898442,-0.0113364089 1.13026005,-0.115029744 1.55997826,0.134519521 Z" id="Combined-Shape"></path>
                </g>
            </g>
        </g>
    </g>
</svg>