<?xml version="1.0" encoding="UTF-8"?>
<svg width="27px" height="24px" viewBox="0 0 27 24" version="1.1" xmlns="http://www.w3.org/2000/svg" xmlns:xlink="http://www.w3.org/1999/xlink">
    <!-- Generator: Sketch 52.2 (67145) - http://www.bohemiancoding.com/sketch -->
    <title>Combined Shape</title>
    <desc>Created with Sketch.</desc>
    <g id="Symbols" stroke="none" stroke-width="1" fill="none" fill-rule="evenodd">
        <g id="icon/40x40/-test" transform="translate(-9.000000, -8.000000)" fill="#202020" fill-rule="nonzero">
            <path d="M21,32 L9,32 L9,8 L29,8 L29,22 L27,22 L27,10 L11,10 L11,30 L21,30 L21,32 Z M14,14 L23,14 L23,16 L14,16 L14,14 Z M14,18 L21,18 L21,20 L14,20 L14,18 Z M14,22 L19,22 L19,24 L14,24 L14,22 Z M33.4363959,21.3495858 C33.7956098,20.9300815 34.4268856,20.8812064 34.8463899,21.2404203 C35.2336246,21.5720023 35.3050569,22.1354004 35.0312237,22.5500665 L34.9555554,22.6504142 L27.734169,31.7551976 L23.3038873,28.4595633 C22.9073841,28.0751108 22.8976151,27.4420212 23.2820675,27.045518 C23.6369467,26.6795151 24.2036824,26.6430371 24.6006331,26.9419731 L24.6961127,27.0236983 L27.598,28.837 L33.4363959,21.3495858 Z" id="Combined-Shape"></path>
        </g>
    </g>
</svg>