<?xml version="1.0" encoding="UTF-8"?>
<svg width="8px" height="17px" viewBox="0 0 8 17" version="1.1" xmlns="http://www.w3.org/2000/svg" xmlns:xlink="http://www.w3.org/1999/xlink">
    <!-- Generator: Sketch 64 (93537) - https://sketch.com -->
    <title>Path</title>
    <desc>Created with Sketch.</desc>
    <g id="Symbols" stroke="none" stroke-width="1" fill="none" fill-rule="evenodd">
        <g id="icon32/--facebook" transform="translate(-12.000000, -8.000000)" fill="#FFFFFF" fill-rule="nonzero">
            <g id="facebook-logo">
                <g transform="translate(12.000000, 8.000000)">
                    <path d="M5.32803636,5.56452229 L5.32803636,4.10125902 C5.32803636,3.88159448 5.33821818,3.71145011 5.35890909,3.59125902 C5.37952727,3.47088747 5.42643636,3.35250106 5.49923636,3.23563057 C5.57192727,3.11883227 5.68963636,3.03819958 5.85218182,2.99351592 C6.01494545,2.94876008 6.23123636,2.92645435 6.50127273,2.92645435 L7.97541818,2.92645435 L7.97541818,0 L5.61872727,0 C4.25509091,0 3.27570909,0.321123142 2.68043636,0.963369427 C2.08523636,1.60576008 1.78767273,2.55198514 1.78767273,3.80240552 L1.78767273,5.5644862 L0.0225090909,5.5644862 L0.0225090909,8.49115711 L1.78756364,8.49115711 L1.78756364,16.9823503 L5.328,16.9823503 L5.328,8.49119321 L7.68454545,8.49119321 L7.99603636,5.56452229 L5.32803636,5.56452229 Z" id="Path"></path>
                </g>
            </g>
        </g>
    </g>
</svg>