<?xml version="1.0" encoding="UTF-8"?>
<svg width="106px" height="138px" viewBox="0 0 106 138" version="1.1" xmlns="http://www.w3.org/2000/svg" xmlns:xlink="http://www.w3.org/1999/xlink">
    <!-- Generator: Sketch 64 (93537) - https://sketch.com -->
    <title>Combined Shape</title>
    <desc>Created with Sketch.</desc>
    <g id="Page-1" stroke="none" stroke-width="1" fill="none" fill-rule="evenodd">
        <g id="single_event_v0.1a" transform="translate(-920.000000, -11020.000000)" stroke="#FF00D4" stroke-width="3">
            <g id="block#8" transform="translate(0.000000, 10959.000000)">
                <g id="title" transform="translate(540.000000, 30.000000)">
                    <g id="icon200x200/-quote" transform="translate(374.000000, 0.000000)">
                        <g id="icon40x40/--quote">
                            <path d="M45.2427923,33.7978716 L58.6666667,44.5992966 C47.9979329,60.937375 44.9401862,63.2041055 38.9180836,104.5 C36.8160838,123.831906 38.5100559,144.609684 44,166.833333 L9.07013073,166.833333 C7.38764015,143.501316 8.63904262,121.328739 12.8243381,100.315602 C19.1022814,68.7958982 32.504755,48.3466158 45.2427923,33.7978716 Z M96.5761256,33.7978716 L110,44.5992966 C99.3312663,60.937375 96.2735195,63.2041055 90.251417,104.5 C88.1494171,123.831906 89.8433892,144.609684 95.3333333,166.833333 L60.4034641,166.833333 C58.7209735,143.501316 59.972376,121.328739 64.1576715,100.315602 C70.4356147,68.7958982 83.8380883,48.3466158 96.5761256,33.7978716 Z" id="Combined-Shape"></path>
                        </g>
                    </g>
                </g>
            </g>
        </g>
    </g>
</svg>