<?xml version="1.0" encoding="UTF-8"?>
<svg width="22px" height="21px" viewBox="0 0 22 21" version="1.1" xmlns="http://www.w3.org/2000/svg" xmlns:xlink="http://www.w3.org/1999/xlink">
    <!-- Generator: Sketch 64 (93537) - https://sketch.com -->
    <title>Path</title>
    <desc>Created with Sketch.</desc>
    <g id="Page-1" stroke="none" stroke-width="1" fill="none" fill-rule="evenodd">
        <g id="single_event_v0.1a" transform="translate(-1445.000000, -11470.000000)" fill="#FF00D4">
            <g id="block#8" transform="translate(15.000000, 10963.000000)">
                <g id="#2" transform="translate(1280.000000, 277.000000)">
                    <g id="STARS" transform="translate(150.000000, 230.000000)">
                        <g id="star-copy-4">
                            <path d="M20.8616594,7.39705901 L13.9411986,6.75520995 L11.1921935,0.37181426 C10.9997347,-0.075155722 10.3659813,-0.075155722 10.1735225,0.37181426 L7.42455908,6.75525168 L0.504098346,7.39705901 C0.0195296379,7.44200221 -0.176309231,8.04470854 0.18928726,8.36586259 L5.41079468,12.9529072 L3.88272571,19.7330299 C3.77573,20.2077503 4.28842472,20.5802323 4.70685139,20.3317719 L10.6828789,16.7833034 L16.6589063,20.3317719 C17.077333,20.5802323 17.5900695,20.2077503 17.4830737,19.7330299 L15.954963,12.9529072 L21.1764705,8.36586259 C21.5420669,8.04470854 21.3462281,7.44200221 20.8616594,7.39705901 Z" id="Path"></path>
                        </g>
                    </g>
                </g>
            </g>
        </g>
    </g>
</svg>