<?xml version="1.0" encoding="UTF-8"?>
<svg width="1000px" height="1000px" viewBox="0 0 1000 1000" version="1.1" xmlns="http://www.w3.org/2000/svg" xmlns:xlink="http://www.w3.org/1999/xlink">
    <title>illustrated/1000x1000/-blogger v0.1</title>
    <defs>
        <polygon id="path-1" points="0.473419084 0.848836852 44.1959 0.848836852 44.1959 14.9001328 0.473419084 14.9001328"></polygon>
        <polygon id="path-3" points="0.875363359 0.68566929 93.4939237 0.68566929 93.4939237 53.2942624 0.875363359 53.2942624"></polygon>
        <path d="M10.9547328,0.684349328 C5.3880229,0.684349328 0.876175573,5.19760269 0.876175573,10.76581 L0.876175573,10.76581 L0.876175573,43.2135125 C0.876175573,48.7807044 5.3880229,53.2939578 10.9547328,53.2939578 L10.9547328,53.2939578 L12.5314427,53.2939578 C6.96371756,53.2939578 2.45085496,48.7807044 2.45085496,43.2135125 L2.45085496,43.2135125 L2.45085496,10.76581 C2.45085496,5.19760269 6.96371756,0.684349328 12.5314427,0.684349328 L12.5314427,0.684349328 L10.9547328,0.684349328 Z" id="path-5"></path>
        <polygon id="path-7" points="0.218383969 0.68566929 79.2801832 0.68566929 79.2801832 53.2942624 0.218383969 53.2942624"></polygon>
        <path d="M2.91889313,0.848836852 C1.30563359,0.848836852 -0.00304580153,2.15762956 -0.00304580153,3.77204415 L-0.00304580153,3.77204415 L-0.00304580153,14.8993205 L37.0897405,14.8993205 L37.0897405,3.77204415 C37.0897405,2.15762956 35.7810611,0.848836852 34.1678015,0.848836852 L34.1678015,0.848836852 L2.91889313,0.848836852 Z" id="path-9"></path>
    </defs>
    <g id="illustrated/1000x1000/-blogger-v0.1" stroke="none" stroke-width="1" fill="none" fill-rule="evenodd">
        <g id="Group-3" transform="translate(65.000000, 123.000000)">
            <rect id="Rectangle" fill="#000000" fill-rule="nonzero" x="231" y="630" width="640" height="2"></rect>
            <g id="video" transform="translate(0.000000, 78.000000)">
                <rect id="Rectangle" fill="#000000" fill-rule="nonzero" opacity="0.05" style="mix-blend-mode: multiply;" x="0.264529951" y="0.351407602" width="619.525086" height="396.996715"></rect>
                <rect id="Rectangle" fill="#FFFFFF" fill-rule="nonzero" x="17.9797057" y="50.1447003" width="584.094724" height="323.717067"></rect>
                <rect id="Rectangle" fill="#000000" fill-rule="nonzero" x="0" y="0" width="619.525086" height="26.3346345"></rect>
                <ellipse id="Oval" fill="#FFFFFF" fill-rule="nonzero" cx="19.5586763" cy="13.4636597" rx="4.87815188" ry="4.88092173"></ellipse>
                <ellipse id="Oval" fill="#FFFFFF" fill-rule="nonzero" cx="38.0749306" cy="13.4636597" rx="4.87815188" ry="4.88092173"></ellipse>
                <ellipse id="Oval" fill="#FFFFFF" fill-rule="nonzero" cx="56.5911748" cy="13.4636597" rx="4.87815188" ry="4.88092173"></ellipse>
                <rect id="Rectangle" fill="#FFD047" x="67.6747047" y="99.8449604" width="330.554461" height="186.04246"></rect>
                <rect id="Rectangle" fill="#F3F3F7" fill-rule="nonzero" style="mix-blend-mode: multiply;" x="444.353046" y="99.8449604" width="125.879747" height="70.8475637"></rect>
                <rect id="Rectangle" fill="#F3F3F7" fill-rule="nonzero" style="mix-blend-mode: multiply;" x="444.353046" y="193.106554" width="125.879747" height="70.8475637"></rect>
                <rect id="Rectangle" fill="#F3F3F7" fill-rule="nonzero" style="mix-blend-mode: multiply;" x="444.353046" y="286.368148" width="125.879747" height="70.8475637"></rect>
                <rect id="Rectangle" fill="#F3F3F7" fill-rule="nonzero" style="mix-blend-mode: multiply;" x="67.6747047" y="317.134858" width="227.736645" height="15.3833599"></rect>
                <polygon id="Path" fill="#FFFFFF" fill-rule="nonzero" points="276.193257 192.866536 204.124092 151.233908 204.124092 234.498148 276.193257 192.866536 204.124092 151.233908 204.124092 234.498148"></polygon>
            </g>
            <g id="camera" transform="translate(566.000000, 225.000000)">
                <g id="Group-13" transform="translate(0.000000, 0.166518)">
                    <path d="M39.9583779,37.8319274 C39.9583779,50.2172288 31.0128588,60.2580752 19.9789351,60.2580752 C8.94501145,60.2580752 0.000507633588,50.2172288 0.000507633588,37.8319274 C0.000507633588,25.4466261 8.94501145,15.4057797 19.9789351,15.4057797 C31.0128588,15.4057797 39.9583779,25.4466261 39.9583779,37.8319274" id="Fill-1" fill="#FFFFFF"></path>
                    <path d="M8.99272901,37.8319274 C8.99272901,27.1818679 15.6061794,18.2650196 24.4755534,15.9764092 C23.0308282,15.6027585 21.5262023,15.4057797 19.9789351,15.4057797 C8.94501145,15.4057797 0.000507633588,25.4466261 0.000507633588,37.8319274 C0.000507633588,50.2172288 8.94501145,60.2580752 19.9789351,60.2580752 C21.5262023,60.2580752 23.0308282,60.0610964 24.4755534,59.6874457 C15.6061794,57.3988353 8.99272901,48.4819869 8.99272901,37.8319274" id="Fill-3" fill="#000000" fill-rule="nonzero"></path>
                    <path d="M52.6600809,38.4218488 C52.6600809,51.8783497 43.7145618,62.7873248 32.6796229,62.7873248 C21.6456992,62.7873248 12.7011954,51.8783497 12.7011954,38.4218488 C12.7011954,24.9653478 21.6456992,14.0573881 32.6796229,14.0573881 C43.7145618,14.0573881 52.6600809,24.9653478 52.6600809,38.4218488" id="Fill-5" fill="#000000" fill-rule="nonzero"></path>
                    <g id="Group-9" transform="translate(40.610687, 0.000000)">
                        <mask id="mask-2" fill="white">
                            <use xlink:href="#path-1"></use>
                        </mask>
                        <g id="Clip-8"></g>
                        <path d="M44.1959,14.9001328 L0.473419084,14.9001328 L0.473419084,4.02161843 C0.473419084,2.2701309 1.8927626,0.848633781 3.64612901,0.848633781 L41.0231901,0.848633781 C42.7755412,0.848633781 44.1959,2.2701309 44.1959,4.02161843 L44.1959,14.9001328 Z" id="Fill-7" fill="#000000" fill-rule="nonzero" mask="url(#mask-2)"></path>
                    </g>
                    <g id="Group-12" transform="translate(22.335878, 14.214971)">
                        <mask id="mask-4" fill="white">
                            <use xlink:href="#path-3"></use>
                        </mask>
                        <g id="Clip-11"></g>
                        <path d="M84.4145542,53.2942624 L11.9549359,53.2942624 C6.38721069,53.2942624 1.87536336,48.781009 1.87536336,43.2128017 L1.87536336,10.7661146 C1.87536336,5.19790729 6.38721069,0.68566929 11.9549359,0.68566929 L84.4145542,0.68566929 C89.9812641,0.68566929 94.4941267,5.19790729 94.4941267,10.7661146 L94.4941267,43.2128017 C94.4941267,48.781009 89.9812641,53.2942624 84.4145542,53.2942624" id="Fill-10" fill="#000000" fill-rule="nonzero" mask="url(#mask-4)"></path>
                    </g>
                </g>
                <g id="Group-16" transform="translate(22.335878, 14.381489)">
                    <mask id="mask-6" fill="white">
                        <use xlink:href="#path-5"></use>
                    </mask>
                    <use id="Clip-15" fill="#FFFFFF" fill-rule="nonzero" xlink:href="#path-5"></use>
                </g>
                <g id="Group-19" transform="translate(36.549618, 14.381489)">
                    <mask id="mask-8" fill="white">
                        <use xlink:href="#path-7"></use>
                    </mask>
                    <g id="Clip-18"></g>
                    <path d="M69.9672389,53.2942624 L9.53142977,53.2942624 C4.38707099,53.2942624 0.218383969,49.124199 0.218383969,43.9804102 L0.218383969,9.99850614 C0.218383969,4.85471727 4.38707099,0.68566929 9.53142977,0.68566929 L69.9672389,0.68566929 C75.1105824,0.68566929 79.2802847,4.85471727 79.2802847,9.99850614 L79.2802847,43.9804102 C79.2802847,49.124199 75.1105824,53.2942624 69.9672389,53.2942624" id="Fill-17" fill="#000000" fill-rule="nonzero" mask="url(#mask-8)"></path>
                </g>
                <g id="Group-22" transform="translate(42.641221, 21.488975)"></g>
                <g id="Group-141" transform="translate(42.702290, 21.504330)" fill="#FFFFFF">
                    <path d="M7.7950687,0.64462572 C3.83654198,0.64462572 0.62829771,3.85213244 0.62829771,7.80998656 L0.62829771,7.80998656 L0.62829771,31.7551056 C0.62829771,35.7129597 3.83654198,38.9204664 7.7950687,38.9204664 L7.7950687,38.9204664 L43.7548168,38.9204664 C47.7123282,38.9204664 50.9195573,35.7129597 50.9195573,31.7551056 L50.9195573,31.7551056 L50.9195573,7.80998656 C50.9195573,3.85213244 47.7123282,0.64462572 43.7548168,0.64462572 L43.7548168,0.64462572 L7.7950687,0.64462572 Z" id="Fill-20" fill-rule="nonzero"></path>
                    <path d="M63.1244901,7.276519 C63.1244901,9.94588752 60.9599405,12.1106246 58.2908031,12.1106246 C55.6206504,12.1106246 53.4581313,9.94588752 53.4581313,7.276519 C53.4581313,4.60715048 55.6206504,2.44342879 58.2908031,2.44342879 C60.9599405,2.44342879 63.1244901,4.60715048 63.1244901,7.276519" id="Fill-137"></path>
                    <path d="M62.0001832,21.4400117 C62.0001832,23.4889983 60.3392061,25.1501192 58.2914122,25.1501192 C56.2415878,25.1501192 54.581626,23.4889983 54.581626,21.4400117 C54.581626,19.3920405 56.2415878,17.7309196 58.2914122,17.7309196 C60.3392061,17.7309196 62.0001832,19.3920405 62.0001832,21.4400117" id="Fill-139"></path>
                </g>
                <g id="Group-144" transform="translate(47.717557, 0.166518)">
                    <mask id="mask-10" fill="white">
                        <use xlink:href="#path-9"></use>
                    </mask>
                    <g id="Clip-143"></g>
                    <path d="M2.91889313,0.848836852 C1.30563359,0.848836852 -0.00304580153,2.15762956 -0.00304580153,3.77204415 L-0.00304580153,3.77204415 L-0.00304580153,14.8993205 L37.0897405,14.8993205 L37.0897405,3.77204415 C37.0897405,2.15762956 35.7810611,0.848836852 34.1678015,0.848836852 L34.1678015,0.848836852 L2.91889313,0.848836852 Z" id="Fill-142" fill="#000000" fill-rule="nonzero" mask="url(#mask-10)"></path>
                </g>
                <g id="Group-155" transform="translate(0.000000, 4.227939)" fill-rule="nonzero">
                    <polygon id="Fill-145" fill="#FFFFFF" points="53.5594046 6.79171017 79.1867786 6.79171017 79.1867786 0.720902111 53.5594046 0.720902111"></polygon>
                    <polygon id="Fill-147" fill="#000000" points="46.534771 68.8441209 98.9692595 68.8441209 98.9692595 63.448524 46.534771 63.448524"></polygon>
                    <polygon id="Fill-148" fill="#000000" points="74.041836 489.537018 70.0038811 489.534991 68.9452653 122.924481 72.9842334 122.925494"></polygon>
                    <polygon id="Fill-149" fill="#000000" points="67.0563664 143.187405 74.700313 143.187405 74.700313 73.5645067 67.0563664 73.5645067"></polygon>
                    <polygon id="Fill-150" fill="#000000" points="65.5953969 120.327701 75.6668473 120.327701 75.6668473 83.5688004 65.5953969 83.5688004"></polygon>
                    <polygon id="Fill-151" fill="#000000" points="56.3777863 124.373891 83.4884656 124.373891 83.4884656 120.327701 56.3777863 120.327701"></polygon>
                    <polygon id="Fill-152" fill="#000000" points="62.9333664 77.4462092 78.8243282 77.4462092 78.8243282 68.8431056 62.9333664 68.8431056"></polygon>
                    <polygon id="Fill-153" fill="#000000" points="4.10472519 523.923225 63.9306634 122.688401 59.9396481 122.014205 2.97414965e-14 523.923225"></polygon>
                    <polygon id="Fill-154" fill="#000000" points="133 523.923225 81.6998695 122.076142 77.6905794 122.626464 128.914565 523.923225"></polygon>
                </g>
            </g>
            <g id="man" transform="translate(276.000000, 0.000000)" fill-rule="nonzero">
                <polygon id="Path" fill="#000000" points="106.606684 605.561491 95.6886141 635.966689 69 626.237025 81.1311882 598.264243"></polygon>
                <path d="M70.3611718,619.264243 L102.752938,626.316036 L102.752938,626.316036 L103.793081,627.101208 C106.934784,629.514427 116.45446,637.137781 122.058156,645.019323 L122.508474,645.66289 C122.948954,646.230869 132.201695,658.251196 132.424589,666.04388 L132.426022,666.352483 C132.364383,666.893082 131.098017,675.817805 115.162271,670.133799 C111.592164,667.747667 66.6031717,651.331668 62.0979441,644.694701 C59.2286888,641.513928 61.9830981,633.037109 70.3611718,619.264243 Z" id="Path" stroke="#000000" stroke-width="1.89999998" fill="#FFFFFF"></path>
                <polygon id="Path" fill="#000000" points="165.836139 643.264243 173.114852 670.020817 145.213119 678.534273 144 650.561491"></polygon>
                <path d="M144,667.517814 L152.961356,661.470589 L153.648762,661.279283 C156.856952,660.415507 170.371021,657.106388 174.405305,661.470589 C178.994304,666.434867 191.075057,685.643935 191.075057,685.643935 L191.289138,686.069434 C193.094584,689.745892 205.085705,716.006311 179.230777,716.006311 C148.76493,714.382114 144,667.517814 144,667.517814 Z" id="Path" stroke="#000000" stroke-width="1.89999998" fill="#FFFFFF"></path>
                <path d="M71.9654016,335.60911 L69.5391639,348.987397 C69.5391639,348.987397 68.3260451,358.71706 69.5391639,364.7981 C70.7522827,370.87914 158.096838,622.634179 158.096838,622.634179 L195.703522,608.039684 L147.178769,448.716447 L141.113175,325.879447 L71.9654016,335.60911 Z" id="Path" stroke="#000000" stroke-width="1.89999998" fill="#FFFFFF" transform="translate(132.351761, 474.256813) scale(-1, 1) translate(-132.351761, -474.256813) "></path>
                <path d="M145.147773,335.939778 L150.000248,515.93855 L150.363586,516.358171 C152.23868,518.567474 158.852474,530.0816 158.852474,540.10411 C158.852474,550.126619 164.557674,615.6676 164.557674,615.6676 L171.836387,650.937629 L140.295298,660.667293 L139.910436,658.733978 C138.502915,651.810259 133.501832,628.498593 129.377228,625.397263 C124.573278,621.785125 97.1787497,514.46852 96.6313396,505.242037 L96.62302,504.992679 C96.62302,497.695431 76,335.939778 76,335.939778 L126.950991,315.264243 L145.147773,335.939778 Z" id="Path" stroke="#000000" stroke-width="1.89999998" fill="#FFFFFF"></path>
                <path d="M136.716754,58.9478925 L178.662421,64.8429716 L174.382396,100.926736 C174.001673,104.136514 190.04614,118.039898 189.457937,123.003852 L189.42126,123.264824 L189.372536,123.546718 C188.467273,128.354516 182.161924,142.960984 164.970956,141.798584 C147.267857,140.601554 138.97493,133.158356 129.157553,119.3664 L128.537873,118.49497 C123.695938,111.753293 115.373724,102.319141 132.033921,95.49665 L136.716754,58.9478925 Z" id="Fill-21" stroke="#000000" stroke-width="1.89999998" fill="#FFFFFF"></path>
                <path d="M164.414367,135.10961 C175.339716,136.548218 180.276908,127.817819 179.225945,108.918414 L180.743614,110.743815 L182.621633,113.023133 C197.507887,131.186611 205.215973,142.973389 205.745891,148.383465 C207.932123,170.703306 204.809319,228.473859 196.377477,321.695124 L192.73812,335.073411 L192.106506,335.450411 L191.657926,335.705288 C186.18207,338.76957 160.002607,351.82642 115.759303,349.103217 C85.4313327,344.238385 72.6393565,335.073411 72.6393565,335.073411 L69,224.398491 L128.442822,94.264243 L129.163236,95.869811 C140.929658,121.831201 152.680035,134.911134 164.414367,135.10961 Z" id="Path-3" stroke="#000000" stroke-width="1.89999998" fill="#FFFFFF"></path>
                <path d="M219.466306,334.264243 L219.466306,343.993906 C219.466306,343.993906 208.519922,394.866826 225.5319,392.642223 C253.433633,388.9936 232.810613,347.64253 232.810613,347.64253 L232.810613,339.129075 L219.466306,334.264243 Z" id="Path" stroke="#000000" stroke-width="1.89999998" fill="#FFFFFF" transform="translate(228.074160, 363.488678) scale(-1, 1) translate(-228.074160, -363.488678) "></path>
                <path d="M177.626338,105.429285 C179.442263,109.744505 181.145624,114.466013 182.736421,119.593809 C192.338626,138.889975 192.950076,274.690122 192.917461,314.996002 L192.885893,326.247737 L203.803962,328.680153 L207.782257,261.795023 L207.782257,261.795023 L220.217125,343.007707 L240.197527,338.409816 L239.515644,329.379773 C236.597612,291.39992 224.913223,146.102006 216.179602,135.709762 L215.876156,135.402344 L215.885834,135.30459 C216.074458,132.011396 203.321292,122.052961 177.626338,105.429285 Z M79.1911891,103.311847 L78.6761405,103.598871 C78.6761405,103.598871 59.2662393,116.977158 58.0531205,124.274405 C56.8400017,131.571653 3.63935647,197.329697 3.63935647,197.329697 C1.35033091,202.291468 0.111185668,207.674771 -2.7000624e-13,213.1404 C-2.7000624e-13,221.653856 31.714294,295.838746 31.714294,295.838746 L58.0531205,280.037302 L58.0356567,279.383799 C57.9445874,276.593872 57.7134041,277.270803 57.0854009,274.28504 L57.0165847,273.950796 C55.8034659,267.869757 50.9509906,255.707678 50.9509906,255.707678 L43.6722777,230.167311 C39.6137594,224.866731 50.5811404,216.466002 64.4972785,194.842609 C63.316321,198.0039 62.0355985,201.265891 60.6558758,204.626945 L60.975063,208.640757 C62.5156353,227.486332 69.4860895,306.87975 78.6761405,321.382905 C86.8498388,337.157588 123.131561,326.247737 123.131561,326.247737 L123.833617,321.922032 C127.872985,296.773552 147.754414,169.334545 141.446197,135.402344 L140.825774,132.095519 C134.250862,97.3786508 131.286415,92.264243 131.286415,92.264243 L129.63178,92.3614795 C122.507635,92.8251262 94.1356876,95.1395803 79.1911891,103.311847 Z" id="Shape" stroke="#000000" stroke-width="1.89999998" fill="#FFFFFF"></path>
                <path d="M54.1967824,282.264243 L59.767424,292.418363 L60.4522494,292.978602 C65.5155865,297.176188 96.4675128,323.826644 79.1192532,334.215209 C60.2624493,345.507128 42.0655941,304.155986 42.0655941,304.155986 L36,293.210114 L54.1967824,282.264243 Z" id="Path" stroke="#000000" stroke-width="1.89999998" fill="#FFFFFF"></path>
                <path d="M123.384421,48.8511065 C124.293324,48.5694866 125.086863,48.4621192 125.801138,48.4679005 C125.102023,27.2424352 129.671545,1.53974016 163.566051,6.72956642 C183.781499,9.82611616 187.523394,29.2297145 186.435458,48.9045469 C187.618186,48.4558429 189.128226,48.4692191 191.058827,49.316576 C197.807632,52.2833542 190.76993,69.4049126 183.170957,71.2326022 C178.292358,88.7380502 167.487431,99.0072405 153.908162,98.3639242 C141.352099,97.772513 132.825968,86.8869652 128.761189,71.5438506 C121.393338,68.9270505 116.317789,51.0349775 123.384421,48.8511065" id="Fill-23" stroke="#000000" stroke-width="1.89999998" fill="#FFFFFF"></path>
                <path d="M187.41903,49.2143518 L182.469122,55.8210696 L177.863814,55.4181573 L178.912636,43.4300654 C178.912636,43.4300654 173.627825,37.0216421 173.60162,30.248919 L138.593429,29.6959332 C138.593429,29.6959332 138.952467,38.3872928 135.901848,41.5239782 L134.693577,55.3345841 L130.407408,54.959593 L126.806408,50.8940787 C126.806408,50.8940787 121.04932,19.5010746 125.146481,12.1259759 C129.243643,4.75087728 136.047303,8.12938356 136.047303,8.12938356 C136.047303,8.12938356 148.68536,-4.37108732 164.288305,1.63004483 C179.898976,7.63593388 191.898227,18.5822327 193.755287,25.5518641 C195.61674,32.517799 187.41903,49.2143518 187.41903,49.2143518" id="Fill-29" fill="#000000"></path>
            </g>
        </g>
    </g>
</svg>