<?xml version="1.0" encoding="UTF-8"?>
<svg width="1000px" height="1000px" viewBox="0 0 1000 1000" version="1.1" xmlns="http://www.w3.org/2000/svg" xmlns:xlink="http://www.w3.org/1999/xlink">
    <title>illustrated/1000x1000/-course v0.1</title>
    <g id="illustrated/1000x1000/-course-v0.1" stroke="none" stroke-width="1" fill="none" fill-rule="evenodd">
        <path d="M899.623099,349.976157 C876.250444,513.691127 712.573299,598.026634 534.82457,625.283455 C357.075842,652.538849 189.205216,586.52102 110.794557,506.195715 C55.7708363,449.830333 46.5440365,349.725073 110.794557,294.065864 C144.445239,264.914504 240.221032,252.938109 320,301.471399 C399.778968,350.004689 503.013535,337.864233 534.82457,301.471399 C579.718233,250.113335 612.622417,208.920872 651.049993,184.369147 C710.941046,150.412849 913.718345,124.125408 899.623099,349.976157 Z" id="Path" fill="#000000" fill-rule="nonzero" opacity="0.05" style="mix-blend-mode: multiply;"></path>
        <rect id="Rectangle" fill="#000000" fill-rule="nonzero" x="248" y="795" width="640" height="2"></rect>
        <path d="M535.185885,493.038724 C535.185885,493.038724 686.573843,549.07666 692.497582,556.67932 C698.42132,564.281979 666.77525,691.278071 661.611777,701.573339 C656.448304,711.868607 661.421711,719.724689 659.521046,727.675804 C658.005436,732.88557 654.945966,737.513432 650.74631,740.94878 L613.208178,732.427466 L635.382602,602.358632 C635.382602,602.358632 458.779156,567.513109 444.745914,560.797427 C423.395112,550.787259 435.9395,513.280805 435.9395,513.280805 L521.025931,486.418075 L535.185885,493.038724 Z" id="Path" stroke="#000000" stroke-width="1.89999998" fill="#FFFFFF" fill-rule="nonzero"></path>
        <path d="M543.53159,403.594997 C548.458861,452.720399 548.458861,499.057496 548.458861,499.057496 L548.011274,498.954761 C544.134063,498.116588 515.655458,492.99224 485.639184,515.69826 L484.659877,516.44858 C454.280916,540.048502 417.217951,535.455228 417.217951,535.455228 L417.321136,534.151949 C418.808915,515.785381 436.644696,309.160542 487.586102,289.042322 L497.26762,217.980838 L498.214616,217.625885 C505.276769,215.022085 549.528302,199.47343 552.355224,217.600705 C555.522999,237.684397 544.784242,283.458743 539.684125,289.065704 C534.584008,294.672666 519.568755,287.830272 519.568755,287.830272 L517.976895,296.878112 C538.549276,313.082307 565.438134,354.733676 565.438134,354.733676 L539.798998,373.145188" id="Path" stroke="#000000" stroke-width="1.89999998" fill="#FFFFFF" fill-rule="nonzero"></path>
        <path d="M557.677086,360.182249 L583.557806,394.235828 L683.881234,444.00157 C690.797407,441.738545 697.829282,439.845754 704.946937,438.331253 C707.449479,438.331253 729.180414,449.260076 729.180414,449.260076 L728.831959,456.007436 L677.418973,456.007436 C677.418973,456.007436 571.615295,432.280803 565.438134,426.42042 C551.119792,412.830666 525.745916,383.211971 525.745916,383.211971 L557.677086,360.182249 Z" id="Path" stroke="#000000" stroke-width="1.89999998" fill="#FFFFFF" fill-rule="nonzero"></path>
        <polygon id="Path" stroke="#000000" stroke-width="1.89999998" fill="#FFFFFF" fill-rule="nonzero" points="578.521044 796 585.838604 796 679.85816 461.012521 646.94498 460.664065"></polygon>
        <polygon id="Path" stroke="#000000" stroke-width="1.89999998" fill="#FFFFFF" fill-rule="nonzero" points="838.056834 796 845.374394 796 818.543341 461.012521 785.598483 460.664065"></polygon>
        <path d="M740.48937,456.51428 L743.308689,451.065708 L764.025937,451.065708 C787.811847,451.069866 807.804719,433.204476 810.465515,409.567858 L814.076779,377.509977 C815.71752,362.924996 809.404439,348.581484 797.540994,339.940168 L773.719328,322.612439 L778.629378,315.770046 L803.116278,334.396562 C816.050508,344.22969 822.947999,360.075926 821.330983,376.242867 L813.158124,458.06649 L740.48937,456.51428 Z" id="Path" fill="#000000" fill-rule="nonzero"></path>
        <path d="M780.783465,190.737974 L732.728322,425.913576 C732.728322,425.913576 764.627814,402.408687 786.263716,325.748536 C807.899618,249.088386 780.783465,190.737974 780.783465,190.737974 Z" id="Path" fill="#000000" fill-rule="nonzero"></path>
        <path d="M692.497582,556.67932 C701.272318,561.430982 700.226952,682.408302 707.227734,690.296061 C714.228517,698.18382 710.205443,704.994536 708.2731,714.78296 C706.340757,724.571384 717.586358,733.789609 708.621555,740.94878 L671.368524,742.564345 L664.742928,693.534938" id="Path" stroke="#000000" stroke-width="1.89999998" fill="#FFFFFF" fill-rule="nonzero"></path>
        <path d="M515.989169,382.451705 C515.719156,382.45136 515.459121,382.349608 515.260581,382.166606 C504.569835,372.115304 495.545176,360.428156 488.524562,347.542827 C488.350501,347.044191 488.563682,346.492907 489.027937,346.241108 C489.492191,345.989309 490.070534,346.111292 490.393549,346.529139 C497.329023,359.216491 506.235861,370.721603 516.781113,380.614396 C517.199969,381.034704 517.199969,381.71462 516.781113,382.134928 C516.571973,382.345003 516.285495,382.459594 515.989169,382.451705 L515.989169,382.451705 Z" id="Path" fill="#000000" fill-rule="nonzero"></path>
        <path d="M489.474894,275.06414 C491.438915,255.740713 481.93559,243.037936 479.559759,231.72898 C478.482094,227.51308 478.341526,223.112217 479.147948,218.836137 C480.173902,214.407743 483.40471,210.817957 487.70094,209.332812 C483.329411,199.829488 491.850725,190.864685 500.37204,188.393821 C509.558587,185.73289 518.206612,187.69691 527.424837,189.217442 C537.170985,190.704454 546.779944,192.982211 556.156554,196.028158 C559.550163,197.069274 562.757615,198.640926 565.659878,200.684787 C568.625458,202.769085 570.660028,205.928921 571.330195,209.491201 C572.565627,218.297615 564.202702,224.221354 556.853464,226.977318 C549.504227,229.733282 529.293824,229.321471 529.293824,229.321471 L527.171415,241.992571 C526.917993,243.418069 526.221082,252.41455 524.573839,251.939383 C522.926596,251.464217 521.786197,242.689481 521.406064,240.947205 C520.347393,237.430723 517.500881,234.741011 513.930116,233.883067 C510.535181,233.356126 507.141276,234.837103 505.218735,237.684397 C503.372261,240.515122 503.063172,244.081533 504.395114,247.187721 C505.807402,250.243245 508.458964,252.548952 511.680996,253.523271 L489.474894,275.06414 Z" id="Path" fill="#000000" fill-rule="nonzero"></path>
        <rect id="Rectangle" stroke="#000000" stroke-width="1.89999998" fill-rule="nonzero" x="484.438132" y="578.220188" width="12.2592885" height="172.612049"></rect>
        <polygon id="Path" stroke="#000000" stroke-width="1.89999998" fill-rule="nonzero" points="490.583616 747.854529 430.047439 776.016047 430.047439 784.188906 437.49171 787.705136 490.583616 767.082922 490.583616 744.908499"></polygon>
        <circle id="Oval" fill="#000000" fill-rule="nonzero" cx="430.047439" cy="784.188906" r="12.1008998"></circle>
        <polygon id="Path" stroke="#000000" stroke-width="1.89999998" fill-rule="nonzero" points="490.583616 747.854529 551.119792 776.016047 551.119792 784.188906 543.675521 787.705136 490.583616 767.082922 490.583616 744.908499"></polygon>
        <circle id="Oval" fill="#000000" fill-rule="nonzero" cx="551.119792" cy="784.188906" r="12.1008998"></circle>
        <rect id="Rectangle" fill="#000000" fill-rule="nonzero" x="478.41936" y="596.023083" width="24.2968327" height="69.4693015"></rect>
        <rect id="Rectangle" fill="#000000" fill-rule="nonzero" x="473.160854" y="638.566298" width="7.41259304" height="7.09581556"></rect>
        <rect id="Rectangle" fill="#000000" fill-rule="nonzero" x="470.183146" y="635.240135" width="3.35784129" height="13.7481427"></rect>
        <path d="M671.368524,742.596023 L678.939505,796 L745.177677,796 C737.765084,785.894798 714.60865,779.880732 714.60865,779.880732 L708.621555,741.138847 L671.368524,742.596023 Z" id="Path" stroke="#000000" stroke-width="1.89999998" fill-rule="nonzero"></path>
        <path d="M671.368524,742.596023 L673.352123,756.705304 C699.17687,761.287043 711.669343,760.860775 710.829541,755.426502 C710.338878,752.251467 709.602882,747.488916 708.621555,741.138847 L671.368524,742.596023 Z" id="Path" fill="#000000" fill-rule="nonzero"></path>
        <path d="M613.208178,732.459144 L609.401452,749.142534 L598.636414,796 L666.996994,796 C666.996994,796 665.919951,783.301929 640.070909,781.306231 C643.500068,768.401228 646.071938,758.722475 647.786518,752.269973 C648.451289,749.768232 649.448445,746.015619 650.777987,741.012136 L613.208178,732.459144 Z" id="Path" stroke="#000000" stroke-width="1.89999998" fill-rule="nonzero"></path>
        <path d="M613.208178,732.459144 L609.401452,749.142534 C633.276916,757.679995 646.071938,758.722475 647.786518,752.269973 C648.451289,749.768232 649.448445,746.015619 650.777987,741.012136 L613.208178,732.459144 Z" id="Path" fill="#000000" fill-rule="nonzero"></path>
        <path d="M664.845558,693.62378 L664.845558,693.62378 C664.271035,693.49723 663.904347,692.933094 664.021937,692.35667 C670.579231,661.946032 687.558503,582.339851 687.558503,579.077043 C687.558503,578.482209 688.040712,578 688.635547,578 C689.230382,578 689.71259,578.482209 689.71259,579.077043 C689.71259,583.036762 668.520177,681.586236 666.112668,692.831837 C665.971865,693.393522 665.412144,693.743348 664.845558,693.62378 L664.845558,693.62378 Z" id="Path" fill="#000042" fill-rule="nonzero"></path>
        <rect id="Rectangle" fill="#FFD047" x="619" y="457" width="229.473607" height="10.0101684"></rect>
        <path d="M444.587525,560.797427 L398.876535,560.797427 C388.039626,541.00932 383.124166,518.521364 384.716582,496.016432 C387.662612,459.428633 415.412319,398.955812 402.487798,332.717641 C389.563277,266.47947 367.895697,244.748535 362.22538,253.808371 C356.555064,262.868207 385.001681,304.207668 383.734571,339.433324 C382.467461,374.658979 348.667304,471.212755 345.721274,524.304661 C344.010452,547.143715 351.942607,569.655478 367.592917,586.377233 C383.243227,603.098988 405.181224,612.502332 428.083419,612.308476 L569.366175,612.308476 C591.287177,612.308476 634.400592,560.797427 444.587525,560.797427 Z" id="Path" stroke="#000000" stroke-width="1.89999998" fill="#FFFFFF" fill-rule="nonzero"></path>
    </g>
</svg>