<?xml version="1.0" encoding="UTF-8"?>
<svg width="1000px" height="1000px" viewBox="0 0 1000 1000" version="1.1" xmlns="http://www.w3.org/2000/svg" xmlns:xlink="http://www.w3.org/1999/xlink">
    <title>illustrated/1000x1000/-relax v0.1</title>
    <g id="illustrated/1000x1000/-relax-v0.1" stroke="none" stroke-width="1" fill="none" fill-rule="evenodd">
        <g id="Group-5" transform="translate(0.000000, 253.000000)">
            <g id="Group-138" fill-rule="nonzero">
                <path d="M998.782835,371.917255 C998.782835,388.246669 786.788974,401.486961 525.282835,401.486961 C263.772581,401.486961 51.7828348,388.246669 51.7828348,371.917255 C51.7828348,355.58784 263.772581,342.347549 525.282835,342.347549 C786.788974,342.347549 998.782835,355.58784 998.782835,371.917255" id="Fill-9" fill="#000000" opacity="0.05" style="mix-blend-mode: multiply;"></path>
                <path d="M216.931287,305.176766 C216.931287,305.176766 163.590757,199.975649 163.103001,201.405567 C162.619413,202.839654 111.472952,274.145876 111.472952,274.145876 C111.472952,274.145876 127.660102,274.145876 147.250503,328.67932 C154.420322,355.945738 157.546948,366.317111 179.458596,368.023083 C248.923962,375.788713 304.303839,358.815137 321.790558,342.421338 L216.931287,305.176766 Z" id="Fill-11" stroke="#000000" stroke-width="1.70982891" fill="#FFFFFF"></path>
                <path d="M71.3226864,463.145612 C71.2976732,463.383237 71.2851667,463.616693 71.2893355,463.854318 C71.306011,466.818376 74.3409392,468.740219 76.5587713,470.228501 C77.7635711,471.041428 79.0392415,471.745965 80.3566004,472.354618 C83.0079937,473.576094 85.834479,474.401527 88.7193284,474.860102 C94.2514022,475.739731 99.9293859,475.327014 105.436447,474.276462 C106.049269,474.159734 106.687104,474.022161 107.17486,473.62612 C107.72098,473.175883 107.983618,472.467178 108.187892,471.783485 C109.021664,468.998688 109.355173,466.088826 109.621979,463.19147 C110.134749,457.563512 110.405725,451.918879 110.655856,446.278415 C110.96852,439.07463 111.239496,431.870844 111.472952,424.667058 C104.590169,422.774397 97.7073849,420.885905 90.8329391,418.997412 C90.2534679,418.838996 89.5822819,418.693086 89.0986944,419.047439 C88.8027055,419.264219 88.6484578,419.622741 88.5108855,419.960418 C84.5671464,429.619661 80.6234073,439.278904 76.6796682,448.942315 C75.2705944,452.38996 73.8615206,455.841774 72.4649533,459.297757 C71.9646904,460.540076 71.4602587,461.824085 71.3226864,463.145612" id="Fill-13" stroke="#000000" stroke-width="1.70982891" fill="#FFFFFF"></path>
                <path d="M111.126075,433.621261 C111.249932,430.303194 111.365422,427.985126 111.472952,424.667058 C104.590169,422.774397 97.7073849,420.885905 90.8329391,418.997412 C90.2534679,418.838996 89.5822819,418.693086 89.0986944,419.047439 C88.8027055,419.264219 88.6484578,419.622741 88.5108855,419.960418 C87.3306666,422.851081 87.0703356,424.303108 85.8901168,427.193883 C83.1265965,433.962724 110.981029,437.506979 111.126075,433.621261 Z" id="Fill-13" fill="#000000"></path>
                <path d="M92.2807833,375.603776 L90.3631088,415.124544 L89.0165679,418.513825 L111.674308,424.683734 L111.895257,420.985957 L165.490088,224.145017 C165.744389,223.198686 165.931987,222.285707 166.011195,221.339376 C166.282171,218.996478 166.57816,214.352371 165.827766,209.103779 C163.288932,191.290252 139.639003,183.185993 125.835917,195.208978 C116.235038,203.546692 109.435632,214.952686 104.570575,228.605694 L104.558068,228.651552 C90.9300735,266.917494 92.7393576,322.53839 92.2807833,375.603776" id="Fill-15" stroke="#000000" stroke-width="1.70982891" fill="#FFFFFF"></path>
                <path d="M390.757217,230.837701 L405.002202,161.643005 C405.002202,161.643005 420.360273,165.048962 456.466747,366.521503 C482.117727,366.521503 493.540396,371.244818 498.505505,376.118213 C502.432569,379.974406 499.722812,386.648746 494.211582,386.648746 L448.858582,386.648746 C443.068039,386.648746 437.952851,382.884268 436.239451,377.356363 L390.757217,230.837701 Z" id="Fill-29" stroke="#000000" stroke-width="1.70982891" fill="#FFFFFF"></path>
                <path d="M300.770762,123.570498 C331.912127,120.214568 354.473983,124.921208 373.913365,136.29802 C384.971481,142.713992 395.03533,151.268833 405.110199,161.718182 C406.466857,162.587139 421.642438,173.59808 432.279037,237.318189 C433.029431,241.745516 433.72563,246.456325 434.425998,251.442278 L434.425998,251.442278 L390.74471,265.00774 L387.993264,253.122328 L385.896329,244.125934 C385.860059,243.969614 385.824192,243.813248 385.788727,243.656837 C368.941908,287.538517 346.288456,320.436286 313.264828,342.44385 L313.264828,342.44385 L216.951715,305.195109 L249.565532,191.344952 L216.952132,195.504133 L202.173532,197.413469 L205.346033,153.123528 L216.952132,148.279316 L248.931437,134.897284 C264.360378,128.464737 280.819027,124.733609 297.506963,123.895669 L297.506963,123.895669 L297.481646,123.94423 C298.588782,123.809524 299.685076,123.684945 300.770762,123.570498 Z" id="Combined-Shape" stroke="#000000" stroke-width="1.70982891" fill="#FFFFFF"></path>
                <path d="M211.244161,300.199359 L211.217306,300.198222 C211.121168,300.193073 211.026616,300.181329 210.933693,300.16346 C210.905621,300.157587 210.877518,300.15156 210.849567,300.144979 C209.650664,299.864559 208.730781,298.565756 208.181753,297.286567 C208.110353,297.121832 208.045308,296.956907 207.986587,296.794444 C206.102612,291.945258 205.051528,286.214897 200.971335,283.062165 C200.89771,283.005598 200.823249,282.949692 200.747783,282.89464 C199.856557,282.219754 198.995839,281.452019 198.155902,280.652786 C197.692259,280.211786 197.23479,279.761322 196.78268,279.311327 C196.601839,279.131321 196.421219,278.951091 196.241248,278.77164 C195.86063,278.422895 195.515661,278.071785 195.203204,277.720482 C191.92536,274.037286 192.222903,270.330903 192.481252,269.112368 L192.497251,269.039099 C192.539838,268.851307 192.579078,268.73556 192.597667,268.703849 L182.534045,256.864294 L167.363297,233.115261 L147.346387,201.782015 L147.250503,201.590248 L147.248836,201.589414 C145.139394,196.891112 143.605254,192.62637 142.884042,188.982789 C141.829321,183.47156 143.897074,177.910304 148.974743,175.509042 C174.352527,165.784695 193.385864,158.491434 206.074756,153.629261 C205.07136,167.453719 204.203528,182.048456 203.47126,197.413469 L178.219277,198.425251 C192.010163,230.110423 201.295322,251.079938 206.074756,261.333796 C207.535331,264.467331 210.465068,266.024473 211.77858,268.703849 C221.381703,285.485431 212.874989,299.957773 211.77858,300.15371 L211.776078,300.154543 C211.593899,300.19248 211.416514,300.206529 211.244161,300.199359 Z" id="Combined-Shape" stroke="#000000" stroke-width="1.70982891" fill="#FFFFFF"></path>
                <path d="M0.759246291,366.063345 C-0.395527212,359.330641 2.21000867,352.064322 8.8343231,347.84127 L14.4998003,344.260221 C15.0917781,343.889193 15.6962624,343.547346 16.3257599,343.251358 C19.9318215,341.521282 24.1131855,341.421229 28.0027295,342.355053 L71.0920397,352.672975 L75.0691297,375.818472 L23.22105,380.16659 C19.4357275,381.233817 15.3669227,381.04205 11.7400167,379.591288 C5.50340603,377.106649 1.74309664,371.766342 0.759246291,366.063345 Z" id="Fill-19" stroke="#000000" stroke-width="1.70982891" fill="#FFFFFF"></path>
                <path d="M60.5399928,349.391005 C64.1392602,350.252865 67.3232759,351.346855 70.0920397,352.672975 L74.0691297,375.818472 C71.2885733,376.585244 67.7862299,377.145753 63.5620993,377.5 C52.6156019,378.418002 51.5757906,347.244488 60.5399928,349.391005 Z" id="Fill-19" fill="#000000"></path>
                <path d="M122.432044,375.748018 L78.033713,374.722479 L74.0691297,375.818889 L70.0920397,352.673392 L74.2483905,352.727587 L301.055078,313.748771 C302.147319,313.561172 303.193702,313.440275 304.260929,313.436106 C306.912323,313.336054 312.135901,313.38608 317.9056,314.528347 C337.482554,318.397047 343.489878,342.676472 328.286055,355.59993 C317.738845,364.587987 304.119188,370.545284 288.24001,374.401477 L288.185815,374.409815 C243.683262,385.202987 181.77573,379.241521 122.432044,375.748018" id="Fill-21" stroke="#000000" stroke-width="1.70982891" fill="#FFFFFF"></path>
                <path d="M367.705282,158.199846 C367.705282,181.844735 351.453188,201 331.373406,201 C311.286703,201 295,181.844735 295,158.199846 C295.033515,147.914824 301.237649,136.018117 313.612401,122.509725 C336.282146,122.481182 352.82596,125.16975 363.243844,130.575429 C364.709705,131.336042 366.196851,140.544181 367.705282,158.199846 Z" id="Fill-31" stroke="#000000" stroke-width="1.89999998" fill="#FFFFFF"></path>
                <path d="M372.149991,86.4028648 C371.179666,85.9627229 370.313628,85.7334824 369.520138,85.6417861 C373.188329,61.9795744 371.619486,32.5817636 333.296192,33.7325513 C310.439149,34.420273 303.642341,55.6250258 302.168717,77.7971738 C300.91727,77.1323761 299.239606,76.9398141 296.981561,77.622951 C289.08747,80.0162225 294.564817,100.148129 302.749099,103.238292 C305.777963,123.503159 316.369919,136.48276 331.527843,137.628963 C345.543141,138.692639 356.488768,127.679922 363.090603,111.064565 C371.62402,109.148114 379.694946,89.8185493 372.149991,86.4028648" id="Fill-23" stroke="#000000" stroke-width="1.89999998" fill="#FFFFFF" transform="translate(334.147554, 85.699791) rotate(-12.000000) translate(-334.147554, -85.699791) "></path>
                <path d="M299.669228,84.7425873 L306.417842,92 L311.867407,90.9480701 L309.096933,76.794223 C309.096933,76.794223 314.597763,68.502216 313.771596,60.4291099 L355.515335,55.4231743 C355.515335,55.4231743 356.186878,65.8237076 360.227656,69.1823373 L363.419317,85.4879518 L368.491237,84.5089188 L372.277551,79.2176232 C372.277551,79.2176232 375.179275,41.0972817 369.351899,32.8184387 C363.524522,24.5395956 355.825976,29.4099867 355.825976,29.4099867 C355.825976,29.4099867 339.14846,16.084688 321.272095,25.1726227 C303.387104,34.2671846 290.441075,48.7999184 289.1054,57.3349864 C287.76401,65.8661953 299.669228,84.7425873 299.669228,84.7425873" id="Fill-29" fill="#000000"></path>
                <path d="M724.505676,299.607589 C721.466579,303.555497 720.687002,308.737387 721.103888,313.702496 C725.264408,363.099288 815.015739,378.920102 908.106325,386.33233 L913.52584,368.114423 C913.52584,368.114423 748.993544,267.770025 724.505676,299.607589" id="Fill-51" stroke="#000000" stroke-width="1.70982891" fill="#FFFFFF"></path>
                <path d="M913.525006,368.11484 L954.434004,372.487972 C954.434004,372.487972 971.718086,375.585433 968.670652,393.286401 C968.670652,393.286401 965.498151,412.133806 943.307323,405.997247 L908.105491,386.332747 L913.525006,368.11484 Z" id="Fill-53" stroke="#000000" stroke-width="1.70982891" fill="#FFFFFF"></path>
                <path d="M913.525006,368.11484 C916.489571,368.702457 919.346086,369.143169 922.094553,369.436978 C931.608186,370.453976 922.411557,394.361326 913.04289,389.127787 C911.466038,388.246924 909.820239,387.315244 908.105491,386.332747 L913.525006,368.11484 Z" id="Fill-53" fill="#000000"></path>
                <path d="M801.60911,145.376124 C801.60911,145.376124 760.63758,214.879314 746.621881,277.078667 C744.662518,285.766566 748.389477,294.737947 756.051837,299.273664 L760.775152,302.070967 L785.292202,287.884345 L820.393982,179.881756 L801.60911,145.376124 Z" id="Fill-55" stroke="#000000" stroke-width="1.70982891" fill="#FFFFFF"></path>
                <path d="M864.137803,119.324517 L848.608809,120.308367 C834.526408,121.204672 820.760841,126.28234 810.459595,135.924907 C807.08282,139.080732 804.135438,142.582572 801.60911,146.430428 L809.392367,220.961261 C810.338698,229.982668 810.705557,239.062439 810.497114,248.133873 L808.887935,317.853844 L851.060097,333.136876 L926.970822,310.133121 L920.175584,280.467531 C914.276651,254.71233 913.155228,228.094176 916.861342,201.934595 L925.436682,141.448643 C923.881698,140.00205 922.301701,138.605482 920.692522,137.267279 C904.97593,124.152054 884.569373,118.028002 864.137803,119.324517" id="Fill-57" stroke="#000000" stroke-width="1.70982891" fill="#FFFFFF"></path>
                <path d="M826.632085,158.479289 C822.79427,150.519863 824.502823,138.843499 831.757744,123.450194 C853.052157,115.847276 868.908306,114.748656 879.326191,120.154335 C880.23931,120.628139 887.424026,144.757947 874.254801,160.758556 C861.373919,176.408828 832.778177,171.225959 826.632085,158.479289 Z" id="Fill-31" stroke="#000000" stroke-width="1.89999998" fill="#FFFFFF"></path>
                <path d="M995.114965,307.257026 C997.716332,311.505092 997.945619,316.741176 996.999288,321.631246 C987.611021,370.310994 896.684072,376.497579 803.330848,373.962913 L799.883203,355.273926 C799.883203,355.273926 974.15395,272.997356 995.114965,307.257026" id="Fill-59" stroke="#000000" stroke-width="1.70982891" fill="#FFFFFF"></path>
                <path d="M799.882786,355.274342 L758.736164,355.274342 C758.736164,355.274342 741.226963,356.516662 742.377567,374.442749 C742.377567,374.442749 743.524003,393.515271 766.244276,389.779975 L803.330432,373.96333 L799.882786,355.274342 Z" id="Fill-61" stroke="#000000" stroke-width="1.70982891" fill="#FFFFFF"></path>
                <path d="M799.882786,355.274342 C797.885163,355.274342 795.811277,355.274342 793.661127,355.274342 C783.170811,355.274342 787.074126,380.680695 795.87856,376.925746 C798.250305,375.914235 800.734262,374.926763 803.330432,373.96333 L799.882786,355.274342 Z" id="Fill-61" fill="#000000"></path>
                <path d="M828.839407,286.947603 C827.830543,287.314463 826.817511,287.635465 825.992077,288.327495 C825.204163,289.015356 824.699731,290.165961 825.020733,291.178993 C825.575191,292.83403 827.830543,293.067486 829.577294,292.788172 C834.638287,292.100311 846.876232,290.624535 851.474481,292.788172 C853.225401,293.571918 855.155582,294.076349 856.998217,294.676665 C863.439102,296.88199 867.166061,293.205058 867.166061,293.109174 L881.794581,296.098245 L952.8736,310.730935 C965.797058,313.027975 977.348962,304.014905 979.187428,292.008596 C979.650171,289.4781 979.600145,286.805862 979.049856,284.046078 C970.537049,241.356979 952.319142,168.251895 923.107958,139.315856 L913.857264,169.494214 C910.409619,180.720947 910.730621,192.727257 914.778581,203.720534 L939.808401,272.314914 L945.495194,276.251106 C919.809946,279.253478 902.220816,280.797311 892.727805,280.882603 C882.244851,280.976791 869.22115,275.631248 864.289966,276.251106 C839.333832,276.09234 829.785656,286.636875 828.839407,286.947603 Z" id="Fill-63" stroke="#000000" stroke-width="1.70982891" fill="#FFFFFF"></path>
                <path d="M760.775569,302.07055 L817.171872,329.059733 L831.479391,333.291123 C831.479391,333.520411 833.092738,338.397974 839.717053,339.456864 C841.601376,339.823723 843.577415,340.286466 845.465907,340.424039 C850.5269,340.653326 854.437288,344.793001 858.576964,347.782072 C860.002713,348.840962 879.360625,351.706343 880.326191,342.347549 C880.107992,335.755244 872.270327,326.729803 866.87878,324.988461 C863.650919,323.945939 855.221948,321.280645 851.632561,321.789246 C848.918635,322.110248 845.007333,322.572991 842.476836,321.789246 L842.197523,321.697531 C841.459635,321.468244 840.680059,321.101384 839.992197,320.734525 L785.292619,287.883929 L760.775569,302.07055 Z" id="Fill-65" stroke="#000000" stroke-width="1.70982891" fill="#FFFFFF"></path>
                <path d="M914.778998,203.721784 L939.808818,272.316164 C956.092375,277.14787 969.432719,284.922789 979.187845,292.005678 C979.650588,289.475181 979.600562,286.807113 979.050273,284.047329 C970.537466,241.35406 952.319559,168.253146 923.108375,139.317106 L913.857681,169.495465 C910.410035,180.718029 910.731038,192.728507 914.778998,203.721784" id="Fill-67" stroke="#000000" stroke-width="1.70982891" fill="#FFFFFF"></path>
                <path d="M870.354403,127.503815 C869.754087,120.608525 867.061005,78.2737779 866.694146,70.7781723 C866.531561,67.3847224 863.730088,65.0293179 860.749355,65.7630368 L843.29018,70.0611288 C840.868074,70.6572754 839.142167,73.1335767 839.213038,75.8933603 L842.74406,135.703958 C843.832132,148.852534 871.525852,140.927536 870.354403,127.503815" id="Fill-69" stroke="#000000" stroke-width="1.89999998" fill="#FFFFFF"></path>
                <path d="M853.370116,21.8472247 C833.247041,20.5340346 811.499996,13.2189601 809.528127,65.3046646 C808.752719,85.9113268 816.921035,112.694803 824.922684,113.192828 C837.932143,117.186546 866.084659,103.517043 873.872085,86.5372871 C913.309761,30.876598 868.7532,22.8560882 853.370116,21.8472247 Z" id="Fill-71" stroke="#000000" stroke-width="1.70982891" fill="#FFFFFF"></path>
                <path d="M870.390536,102.242688 C871.473546,82.8499245 890.173725,69.2414541 894.289416,58.4433919 C896.013326,54.4479805 896.84061,50.1232888 896.713042,45.7737022 C896.392473,41.2393352 893.763008,37.188335 889.751999,35.0493967 C895.556355,26.3469318 887.583866,17.93607 879.553992,14.1625989 C870.896808,10.097336 862.048014,10.6843268 852.705417,10.7440904 C843.365523,10.6911043 828.957909,6.89260917 819.722112,8.27378541 L818.183692,8.51059092 C814.668998,9.00801173 811.255175,10.0585574 808.068912,11.6232416 C804.813788,13.2179599 802.309959,16.0206158 801.09078,19.434201 C798.492931,27.9389292 805.826218,35.0979868 812.653847,38.9696944 C819.481475,42.8414021 842.166528,46.9833125 842.166528,46.9833125 L842.280733,60.021478 L842.178435,63.0959791 C842.096581,66.1850371 842.146473,70.203399 843.29018,70.0611288 C844.991475,69.8494982 848.966464,61.682838 849.614469,60.021478 C851.210206,56.7139022 856.353827,55.3959376 860.014842,55.1071474 C863.450412,55.1177782 865.602766,58.9751448 867.056222,62.0881359 C870.185545,75.8734968 855.162343,77.0349368 851.827563,77.4932234 L870.390536,102.242688 Z" id="Path" fill="#000000"></path>
                <path d="M656.957522,199.998578 C655.573462,198.756258 654.585442,197.138742 653.793359,195.483705 C650.996056,189.618123 649.428566,184.452909 652.121648,178.662366 C653.897581,174.85203 656.920003,171.875466 658.833508,168.123494 C662.151919,161.611739 666.687635,156.988476 666.604258,149.255246 C666.500037,139.470937 660.79704,132.767414 653.46402,127.051911 C649.791256,124.187906 635.850597,116.834041 638.381094,110.626613 C641.211748,103.685465 651.588034,107.695906 655.76106,103.055968 C668.976338,88.3524076 633.641103,76.7546463 628.592616,65.8822661 C625.945392,60.1667626 630.464433,51.1661995 632.723954,45.917608 C637.501465,34.8201096 637.330542,22.1676273 631.765117,10.9617386 C626.733306,0.823077382 611.746264,-2.56203484 602.216256,3.70375785 C598.751935,5.97578514 589.647151,14.3343443 591.614851,18.8533857 L586.353753,22.4761228 C583.606476,22.7137476 581.276085,26.1738993 579.512658,28.0748983 C568.23173,40.2146111 555.308272,56.7524684 555.108167,73.9990315 C554.999777,83.5582216 557.809586,93.3341922 563.466726,101.096605 C566.347406,105.044513 569.5074,108.954901 572.867499,112.519274 C575.498048,115.30824 579.095772,118.405701 579.791972,122.374453 C580.596561,126.951858 577.820102,131.604303 577.057201,135.998279 C576.394353,139.82529 576.452717,144.602801 576.890447,148.450656 C578.207806,160.010898 584.873809,172.571665 594.362128,179.15846 C602.257944,184.644676 609.353339,191.093899 617.595171,196.08819 C629.313829,203.191923 641.215917,203.558782 654.422857,205.668224 C656.332194,205.976719 663.410914,208.098668 662.994028,204.18828 C662.856456,202.900103 657.928866,200.869869 656.957522,199.998578" id="Fill-87" fill="#000000"></path>
                <path d="M607.456509,25.299273 C599.802487,13.547264 586.904042,8.84896167 575.335463,9.570174 C570.357847,9.87866945 565.309361,11.529537 560.506837,13.2304308 C557.551117,14.2809829 554.916399,16.7447776 552.344214,17.699446 L543.793888,29.480637 C535.452004,43.1961779 542.564075,64.4573507 547.90855,77.9477733 C552.206642,88.7993091 558.243148,101.535169 568.752837,102.193848 C584.623677,103.194374 596.534103,88.6700745 604.875987,72.6324801 C611.733757,59.4338775 616.206941,38.7355005 607.456509,25.299273" id="Fill-89" fill="#000000"></path>
                <path d="M584.311847,169.139445 C573.893872,173.75437 561.78751,172.749675 551.778084,167.355174 C541.360109,161.735554 529.20789,150.863174 528.749315,130.577514 C532.588833,130.073082 536.836899,129.93551 541.268394,129.843795 C541.268394,129.843795 552.236658,127.421689 554.246047,123.21948 C554.291905,123.127765 554.337762,123.036051 554.383619,122.944336 L554.383619,122.806763 L553.741615,107.411173 L578.554655,101.470551 L579.421777,111.521666 C579.651064,113.714485 579.788636,115.861447 579.880351,118.100123 C579.972066,119.563392 580.059612,120.980804 580.10547,122.398215 L580.10547,122.439904 C580.10547,122.760906 580.151327,123.036051 580.201353,123.357053 C580.564044,125.595729 582.390004,127.329974 584.724564,127.559261 C584.724564,127.559261 593.770984,128.063693 595.505229,128.063693 C597.83562,128.063693 600.074297,128.201265 602.221258,128.472241 C603.680358,138.023093 604.689222,160.230596 584.311847,169.139445" id="Fill-91" stroke="#000000" stroke-width="1.70982891" fill="#FFFFFF"></path>
                <path d="M495.026177,223.921983 L478.992751,247.680301 C470.217306,262.350511 447.8764,257.8273 445.546008,240.918415 L434.807032,163.335978 L450.206791,158.083218 L464.505972,219.031913 C464.505972,219.031913 465.510666,214.283585 467.707654,206.971409 C473.735822,186.86501 488.768722,147.390099 516.641703,133.908014 C518.013257,133.224321 519.380642,132.632343 520.798053,132.127534 C533.535423,132.845563 518.880379,188.603423 518.880379,188.603423 L495.026177,223.921983 Z" id="Fill-93" stroke="#000000" stroke-width="1.70982891" fill="#FFFFFF"></path>
                <path d="M518.926236,188.601756 L516.595845,192.028556 L495.076203,223.924484 L467.749343,206.969741 C473.785848,186.867511 488.814579,147.388431 516.68756,133.910515 C518.059114,133.226823 519.430668,132.630676 520.84808,132.130413 L520.889768,132.130413 C523.174302,131.396694 525.825696,130.896431 528.748065,130.575429" id="Fill-95" stroke="#000000" stroke-width="1.70982891" fill="#FFFFFF"></path>
                <path d="M450.228886,158.067793 C450.374796,155.037034 450.228886,150.744122 443.16763,148.398962 C419.41241,148.398962 404.821691,117.767449 402.520482,127.793551 L406.034828,140.362656 C408.336038,148.671189 414.801936,155.203788 423.052104,157.634232 L434.620684,161.065202 L435.012556,163.774959 L450.695798,161.081877 L450.228886,158.067793 Z" id="Fill-97" stroke="#000000" stroke-width="1.70982891" fill="#FFFFFF"></path>
                <path d="M662.763073,372.053577 L644.078254,377.994198 L606.608564,261.891519 C605.282867,257.826884 604.278172,253.712221 603.636168,249.464156 C603.269309,246.766905 602.769046,243.340104 602.177068,239.321325 C601.901924,237.537054 601.626779,235.665238 601.355803,233.655848 L601.309946,233.655848 C596.874282,202.722926 600.622085,130.072248 607.383971,129.113411 C608.938955,128.884124 614.237573,129.659531 615.246436,130.255678 C634.664974,141.815919 633.380966,186.1809 633.564396,217.343109 C633.614422,223.329588 633.701968,228.811636 633.977113,233.518276 C634.527402,242.472982 634.798378,248.230174 634.798378,248.230174 L662.763073,372.053577 Z" id="Fill-99" stroke="#000000" stroke-width="1.70982891" fill="#FFFFFF"></path>
                <path d="M602.904778,239.295763 L611.86049,129.113828 C613.094472,129.2514 614.282596,129.659948 615.287291,130.256095 C634.709998,141.816336 633.430159,186.181317 633.613588,217.343526 C613.327257,233.317944 603.090987,240.635356 602.904778,239.295763 Z" id="Fill-101" stroke="#000000" stroke-width="1.70982891" fill="#FFFFFF"></path>
                <path d="M644.056159,378.152198 C644.056159,378.152198 664.491898,370.068784 680.737936,370.068784 C690.876597,370.068784 698.868296,377.205867 698.868296,385.485218 L698.868296,385.522738 L653.206801,387.398724 C648.229186,387.607167 644.056159,384.367964 644.056159,380.29916 L644.056159,378.152198 Z" id="Fill-103" stroke="#000000" stroke-width="1.70982891" fill="#FFFFFF"></path>
                <path d="M519.373138,54.1844522 C521.203266,49.807152 523.846322,46.2511166 526.877081,42.5991975 C528.227791,40.9733431 529.482617,39.4225282 531.116809,38.0843249 C532.24657,37.1630074 534.014165,36.416782 534.451895,35.0493967 L540.567609,36.6419003 C549.885005,36.9295514 549.559835,55.2266666 550.339411,60.9254947 C551.965265,72.9067909 552.878245,84.9798019 554.458242,96.9527604 C555.329533,103.572906 556.042408,110.109674 555.725575,116.804859 C555.454599,122.38696 554.374865,127.994073 554.387371,133.65955 C554.399878,137.507405 553.00748,145.257311 556.121616,148.221369 C551.748485,146.878997 546.462373,144.56945 542.93552,141.638743 C537.903709,137.45321 531.020926,130.416179 530.466468,123.579253 C529.824464,115.666761 537.182497,108.158649 532.446675,100.425419 C529.795282,96.0981447 525.209538,93.1257493 521.95783,89.2945694 C519.164695,85.9970032 518.009922,82.1032903 517.184488,77.9802904 C515.604491,70.126163 516.217313,61.7300842 519.373138,54.1844522" id="Fill-107" fill="#000000"></path>
                <polygon id="Fill-109" stroke="#000000" stroke-width="1.70982891" fill="#FFFFFF" points="498.382107 314.695101 456.901976 314.695101 523.441109 372.75061 587.545629 377.38221 673.561664 312.552309 624.344134 311.018169"></polygon>
                <path d="M506.854476,380.063619 C510.214575,387.292418 515.317257,397.076726 515.317257,397.076726 C528.207364,396.055356 540.88069,394.950609 553.258028,393.587393 C597.660528,388.739011 638.878021,381.464355 676.393569,371.129758 C677.369082,371.046381 678.307075,370.875457 679.282587,370.704534 C690.175812,368.365805 699.23057,359.986402 701.869457,348.459511 C705.442168,332.597009 695.532794,316.817883 679.71198,313.286861 C673.029301,311.711033 666.400818,312.649026 660.656133,315.367121 C627.776354,338.508449 584.645355,355.308944 536.328298,371.217304 C528.161506,373.939568 519.869649,376.574286 511.406868,379.254861 L506.854476,380.063619 Z" id="Fill-111" stroke="#000000" stroke-width="1.70982891" fill="#FFFFFF"></path>
                <path d="M492.902561,417.8318 C493.115173,417.660877 493.331953,417.489954 493.540396,417.323199 L515.318507,397.075059 C515.318507,397.075059 510.211657,387.294919 506.855727,380.061952 L488.82125,383.380362 C481.37567,384.743579 474.997318,389.804571 472.404289,396.904136 C472.404289,396.949993 472.358432,397.03337 472.358432,397.075059 L471.08693,404.349715 C468.914955,416.639507 483.080733,425.573368 492.902561,417.8318" id="Fill-113" stroke="#000000" stroke-width="1.70982891" fill="#FFFFFF"></path>
                <path d="M507.299048,404.531129 C509.360886,402.501683 512.034039,400.016327 515.318507,397.075059 C515.318507,397.075059 510.219995,389.173281 506.864064,381.940314 C504.324155,381.869251 501.505984,381.869251 498.409553,381.940314 C498.409553,393.925865 500.363056,398.093864 507.299048,404.531129 Z" id="Fill-113" fill="#000000"></path>
                <path d="M424.25482,346.545589 C426.893707,358.072479 435.994322,366.451883 446.841689,368.748923 C447.779682,369.003224 448.755195,369.132458 449.730707,369.257524 C481.251438,378.57492 523.611198,385.165884 570.231531,390.656269 C582.775623,392.098694 595.619873,393.503599 608.639214,394.908504 L617.014449,378.149697 L616.334925,378.020462 L616.376614,377.895396 C604.64128,374.48944 593.156078,370.875041 581.925176,367.089718 C538.327265,352.457029 498.819003,335.018698 465.472313,313.457367 C459.727627,310.735104 453.094975,309.838799 446.412297,311.327081 C430.595652,314.941481 420.682109,330.724775 424.25482,346.545589" id="Fill-115" stroke="#000000" stroke-width="1.70982891" fill="#FFFFFF"></path>
                <path d="M608.63713,394.906836 L608.808053,394.906836 C612.640098,398.467069 615.514132,401.137244 617.430155,402.917361 C620.438016,405.71187 624.949808,409.903635 630.96553,415.492654 C631.178142,415.621889 631.349065,415.8345 631.607534,416.005423 C641.383505,423.701134 655.549282,414.771442 653.423165,402.51917 L652.151663,395.202825 C652.105806,395.202825 652.105806,395.119448 652.064117,395.077759 C649.466919,387.974026 643.088567,382.871345 635.647157,381.549817 C632.440623,380.964332 630.035722,380.525218 628.432454,380.232476 C625.895583,379.769265 622.090276,379.07445 617.016533,378.148029 L608.63713,394.906836 Z" id="Fill-117" stroke="#000000" stroke-width="1.70982891" fill="#FFFFFF"></path>
                <path d="M608.63713,394.906836 L608.808053,394.906836 C612.640098,398.467069 615.514132,401.137244 617.430155,402.917361 C621.941947,407.109125 630.837355,380.67159 628.432454,380.232476 C625.895583,379.769265 622.090276,379.07445 617.016533,378.148029 L608.63713,394.906836 Z" id="Fill-117" fill="#000000"></path>
                <path d="M599.024995,270.437677 C597.515869,268.107286 596.690435,265.50175 596.465317,262.804499 C596.281887,261.253684 596.281887,259.6987 596.281887,258.143717 C596.281887,254.946203 596.602889,251.886262 597.515869,249.372441 L602.91037,238.862751 L602.91037,238.821063 L604.002611,236.669932 L611.860907,221.366057 C619.40237,206.604133 624.334129,187.690026 617.205382,173.294962 C610.310092,159.225068 617.602755,137.705426 612.304137,129.296841 C611.803874,129.159268 606.929149,129.434413 606.383029,129.296841 C605.053163,128.929981 603.681609,128.654837 602.222509,128.471407 C602.314224,129.067554 602.405939,129.751246 602.497653,130.439108 C603.502348,138.981096 603.452322,154.151569 592.625799,163.839993 C590.387123,165.89524 587.602326,167.675342 584.313097,169.138611 C573.895123,173.753536 561.784592,172.748841 551.779334,167.35434 C546.251429,164.386113 540.219093,159.908761 535.737571,153.330304 C531.76465,147.527254 528.975684,140.077506 528.750566,130.57668 C525.824028,130.893513 523.176804,131.397945 520.89227,132.127495 L522.580657,149.082238 C523.447779,157.899371 522.35137,166.854077 519.429001,175.216805 C517.507157,180.698853 516.598347,186.36433 516.598347,192.029807 L516.598347,192.213237 C516.598347,199.020981 517.919874,205.782868 520.52541,212.090349 L528.704708,231.692316 L529.93869,234.7064 C531.539531,238.679321 532.498369,242.793984 532.727656,246.950335 C533.090346,252.890956 531.993937,258.694006 529.663546,264.221911 L498.409622,314.710943 C546.434859,348.157686 588.877996,349.896099 624.334129,311.008998 L599.024995,270.437677 Z" id="Fill-119" stroke="#000000" stroke-width="1.70982891" fill="#FFFFFF"></path>
                <path d="M609.101124,73.8948101 C610.743653,67.2788334 609.088617,58.4825442 603.56905,57.9072419 C601.918182,57.7321499 600.02969,58.3116211 598.170379,59.3705109 C594.37255,40.3980408 580.744556,19.0951794 566.945637,17.6527548 C548.886147,15.7684312 533.065333,24.397966 529.467609,71.1892216 C528.054367,89.6989485 540.269119,109.450995 557.965919,112.886133 C571.268743,115.462487 587.093725,101.388425 594.693552,86.3847069 C600.617499,84.8088788 607.025033,82.2825512 609.101124,73.8948101" id="Fill-121" stroke="#000000" stroke-width="1.70982891" fill="#FFFFFF"></path>
                <path d="M560.312568,11.5228668 C581.148518,10.7683036 596.164742,29.2780305 600.304418,48.2213186 C602.48473,58.1932255 603.410216,68.6528888 602.918291,78.9791486 C602.638978,84.8363933 601.955285,91.2522648 600.179352,96.8802223 C598.970383,100.71974 595.993819,103.721317 594.718149,107.423263 C593.550869,110.820881 595.001631,114.789634 595.793714,118.108044 C597.031865,123.281596 597.561309,126.975204 594.939098,131.956989 C591.995885,137.543258 587.822859,142.512536 581.819704,144.717861 C580.273058,145.288995 578.538813,145.643347 577.063038,146.360391 C575.799874,146.973213 574.757659,148.132155 573.431963,148.398962 C573.106792,145.455749 574.636763,142.93359 576.108369,140.523991 C578.163616,137.155554 578.943192,135.154502 578.151109,131.160737 C576.796231,124.298798 572.45645,119.617171 573.665419,112.271644 C575.024466,103.988124 582.007302,98.6269736 586.155316,91.8108917 C588.685812,87.6628786 587.522701,80.780095 586.964074,76.1693387 C586.171991,69.6825966 584.64202,64.4631871 580.973426,59.114543 C577.004674,53.3281689 571.264157,50.8727119 564.990026,49.8138221 C558.37405,49.8805239 552.17079,51.4646897 545.504787,51.397988 C537.86744,51.3229485 529.775688,44.6611144 528.987774,36.7069344 C527.357751,20.1190508 546.809639,12.0106231 560.312568,11.5228668" id="Fill-135" fill="#000000"></path>
            </g>
            <g id="Group-4" transform="translate(194.000000, 156.000000)">
                <g id="undraw_barbecue_3x93" transform="translate(386.000000, 0.000000)">
                    <rect id="Rectangle" fill="#000000" fill-rule="nonzero" x="14.6299996" y="212.537851" width="9.23999977" height="5.38999987"></rect>
                    <rect id="Rectangle" fill="#000000" fill-rule="nonzero" x="33.1099992" y="212.537851" width="9.23999977" height="5.38999987"></rect>
                    <rect id="Rectangle" fill="#000000" fill-rule="nonzero" x="51.5899987" y="212.537851" width="9.23999977" height="5.38999987"></rect>
                    <rect id="Rectangle" fill="#000000" fill-rule="nonzero" x="70.0699983" y="212.537851" width="9.23999977" height="5.38999987"></rect>
                    <rect id="Rectangle" fill="#000000" fill-rule="nonzero" x="88.5499978" y="212.537851" width="9.23999977" height="5.38999987"></rect>
                    <rect id="Rectangle" fill="#000000" fill-rule="nonzero" x="107.029997" y="212.537851" width="9.23999977" height="5.38999987"></rect>
                    <rect id="Rectangle" fill="#000000" fill-rule="nonzero" x="125.509997" y="212.537851" width="9.23999977" height="5.38999987"></rect>
                    <rect id="Rectangle" fill="#000000" fill-rule="nonzero" x="143.989996" y="212.537851" width="9.23999977" height="5.38999987"></rect>
                    <rect id="Rectangle" fill="#000000" fill-rule="nonzero" x="162.469996" y="212.537851" width="9.23999977" height="5.38999987"></rect>
                    <rect id="Rectangle" fill="#000000" fill-rule="nonzero" x="180.949996" y="212.537851" width="9.23999977" height="5.38999987"></rect>
                    <rect id="Rectangle" fill="#000000" fill-rule="nonzero" x="199.429995" y="212.537851" width="9.23999977" height="5.38999987"></rect>
                    <path d="M229.844994,216.002859 C229.844994,277.24019 180.202329,326.882856 118.964997,326.882856 C57.7276655,326.882856 8.0849998,277.24019 8.0849998,216.002859 L229.844994,216.002859 Z" id="Path" fill="#000000" fill-rule="nonzero"></path>
                    <path d="M224.485779,216.711243 L153.953781,6.47044844 C181.832899,-2.90329495 212.295048,-0.807836187 238.628019,12.295099 C264.96099,25.3980342 285.003829,48.4331836 294.340177,76.3248467 C295.087077,78.5501467 295.764677,80.7908466 296.365277,83.0315465 C311.433493,139.577511 279.966348,198.099322 224.485779,216.711243 L224.485779,216.711243 Z" id="Path" fill="#000000" fill-rule="nonzero"></path>
                    <circle id="Oval" fill="#000000" fill-rule="nonzero" cx="227.149994" cy="219.467851" r="13.8599997"></circle>
                    <path d="M86.2403444,244.87795 C84.1140481,244.87795 82.3903445,246.601654 82.3903445,248.72795 C82.3903445,250.854246 84.1140481,252.57795 86.2403444,252.57795 L152.460343,252.57795 C154.586639,252.57795 156.310343,250.854246 156.310343,248.72795 C156.310343,246.601654 154.586639,244.87795 152.460343,244.87795 L86.2403444,244.87795 Z" id="Path" fill="#FFFFFF" fill-rule="nonzero"></path>
                    <polygon id="Path" fill="#000000" fill-rule="nonzero" points="210.979995 416.5877 197.423436 416 147.519676 310.271492 160.087616 304.427962 210.979995 416"></polygon>
                    <polygon id="Path" fill="#000000" fill-rule="nonzero" points="26.9499993 416.5877 41.0809658 416 90.4103178 310.271492 77.8423781 304.427962 26.9499993 416"></polygon>
                    <rect id="Rectangle" fill="#000000" fill-rule="nonzero" x="62.3699985" y="354.987848" width="113.959997" height="7.69999981"></rect>
                    <path d="M156.77282,2.54531194 C155.67479,2.54582373 154.641967,3.06666842 153.988775,3.94928434 C153.335583,4.83190026 153.139314,5.97184821 153.459718,7.02209183 L156.381052,16.5963332 C156.940985,18.4250441 158.876531,19.454421 160.705814,18.8963621 C162.535098,18.3383033 163.566458,16.4038137 163.010274,14.573959 L160.088933,4.99971768 C159.642025,3.54246197 158.297063,2.54699479 156.77282,2.54531194 L156.77282,2.54531194 Z" id="Path" fill="#000000" fill-rule="nonzero"></path>
                    <path d="M3.46496911,217.927951 C1.55130266,217.927951 -3.03869397e-05,219.479284 -3.03869397e-05,221.392951 C-3.03869397e-05,223.306617 1.55130266,224.857951 3.46496911,224.857951 L13.4749689,224.857951 C15.3886355,224.857951 16.9399688,223.306618 16.9399688,221.392951 C16.9399688,219.479284 15.3886355,217.927951 13.4749689,217.927951 L3.46496911,217.927951 Z" id="Path" fill="#000000" fill-rule="nonzero"></path>
                    <path d="M86.2399979,192.517859 L44.6599989,192.517859 C44.3981989,192.517859 44.1440989,192.525559 43.8899989,192.548659 C38.2543669,192.95094 33.8860422,197.637147 33.879965,203.287116 C33.8739004,208.937084 38.2321444,213.632668 43.8668989,214.047059 C44.1286989,214.070159 44.3905374,214.077859 44.6599989,214.077859 L86.2399979,214.077859 C92.1936273,214.077859 97.0199976,209.251488 97.0199976,203.297859 C97.0199976,197.34423 92.1936273,192.517859 86.2399979,192.517859 L86.2399979,192.517859 Z" id="Path" fill="#FFD047"></path>
                    <path d="M40.471199,213.223159 C47.5551988,212.314559 53.1299987,203.374859 53.1299987,192.517859 L51.5899987,192.517859 C51.5899987,203.136159 46.0613989,211.767859 39.269999,211.767859 L39.269999,212.630259 L40.471199,213.223159 Z" id="Path" fill="#000000" fill-rule="nonzero" opacity="0.2"></path>
                    <path d="M55.4399986,213.307859 L55.4399986,211.767859 C62.2331464,211.767859 67.7599983,203.132424 67.7599983,192.517859 L69.2999983,192.517859 C69.2999983,203.98138 63.0824717,213.307859 55.4399986,213.307859 Z" id="Path" fill="#000000" fill-rule="nonzero" opacity="0.2"></path>
                    <path d="M71.6099982,213.307859 L71.6099982,211.767859 C78.403146,211.767859 83.9299979,203.132424 83.9299979,192.517859 L85.4699979,192.517859 C85.4699979,203.98138 79.2524713,213.307859 71.6099982,213.307859 Z" id="Path" fill="#000000" fill-rule="nonzero" opacity="0.2"></path>
                    <path d="M161.699996,192.517859 L120.119997,192.517859 C119.858197,192.517859 119.604097,192.525559 119.349997,192.548659 C113.714365,192.95094 109.34604,197.637147 109.339963,203.287116 C109.333899,208.937084 113.692143,213.632668 119.326897,214.047059 C119.588697,214.070159 119.850536,214.077859 120.119997,214.077859 L161.699996,214.077859 C167.653625,214.077859 172.479996,209.251488 172.479996,203.297859 C172.479996,197.34423 167.653625,192.517859 161.699996,192.517859 L161.699996,192.517859 Z" id="Path" fill="#FFD047"></path>
                    <path d="M115.931197,213.223159 C123.015197,212.314559 128.589997,203.374859 128.589997,192.517859 L127.049997,192.517859 C127.049997,203.136159 121.521397,211.767859 114.729997,211.767859 L114.729997,212.630259 L115.931197,213.223159 Z" id="Path" fill="#000000" fill-rule="nonzero" opacity="0.2"></path>
                    <path d="M130.899997,213.307859 L130.899997,211.767859 C137.693144,211.767859 143.219996,203.132424 143.219996,192.517859 L144.759996,192.517859 C144.759996,203.98138 138.54247,213.307859 130.899997,213.307859 Z" id="Path" fill="#000000" fill-rule="nonzero" opacity="0.2"></path>
                    <path d="M147.069996,213.307859 L147.069996,211.767859 C153.863144,211.767859 159.389996,203.132424 159.389996,192.517859 L160.929996,192.517859 C160.929996,203.98138 154.712469,213.307859 147.069996,213.307859 Z" id="Path" fill="#000000" fill-rule="nonzero" opacity="0.2"></path>
                    <path d="M83.1970118,88.9964207 C77.747722,86.052449 71.0106764,89.2631795 68.2952022,94.4742699 C64.9921872,100.812848 67.7299529,108.433099 71.5815621,113.850857 C75.5839527,119.480666 81.016087,124.127601 83.6878329,130.633484 C88.9656589,143.276678 84.3388265,157.882685 72.7440003,165.181027 C70.237866,166.766357 72.5532636,170.765968 75.0757989,169.170259 C86.3402199,162.13333 92.2227984,148.976883 89.9562719,135.889928 C89.3939934,132.571883 88.3216573,129.360828 86.777327,126.370741 C85.1029393,123.319116 83.0859171,120.468447 80.765375,117.874015 C76.7572248,113.130407 71.7115997,107.900975 71.4601023,101.301151 C71.4140975,100.445017 71.473807,99.5864758 71.6378799,98.7449516 C71.7579615,98.1570708 71.9365992,97.5826893 72.1711203,97.0304003 C72.7313889,95.8445998 73.5627761,94.8072432 74.598091,94.0021675 C75.558002,93.2365616 76.6936561,92.7223735 77.9022995,92.5061268 C78.915754,92.3557844 79.9508939,92.5233152 80.8651901,92.985652 C83.4812573,94.3989716 85.816598,90.4116499 83.1969964,88.9964207 L83.1970118,88.9964207 Z" id="Path" fill="#000000" fill-rule="nonzero"></path>
                    <path d="M152.715197,116.942715 C147.987507,115.423354 142.807322,116.627305 139.234253,120.075884 C137.395333,121.966911 136.580156,124.628102 137.044443,127.224648 C137.484767,130.024291 139.252441,132.510891 141.170103,134.5148 C144.922312,138.435779 150.173943,140.971019 153.319932,145.472585 C154.715209,147.390631 155.590691,149.636943 155.861333,151.993307 C156.023145,154.110466 155.634916,156.233504 154.734322,158.156387 C152.387116,162.927207 147.7279,166.172087 142.814022,168.260996 C141.665621,168.749176 141.412468,170.442152 141.985301,171.421515 C142.650154,172.495147 144.039699,172.859496 145.14582,172.250228 C154.188377,168.406157 162.554942,159.795986 160.060805,149.217819 C158.748802,143.653322 154.727623,139.726145 150.397259,136.312111 C148.246662,134.735406 146.215464,133.002005 144.320242,131.126053 C142.822907,129.535618 141.267292,127.364141 141.542282,125.208804 C141.652483,124.459312 142.019265,123.771257 142.58008,123.261974 C143.260194,122.640241 144.032195,122.127205 144.868821,121.740986 C146.940684,120.74797 149.323529,120.624354 151.487024,121.39765 C152.715668,121.724454 153.979645,121.00679 154.328601,119.784254 C154.640971,118.557512 153.928713,117.303058 152.715205,116.942685 L152.715197,116.942715 Z" id="Path" fill="#000000" fill-rule="nonzero"></path>
                    <path d="M117.544524,51.2237097 C116.167857,50.0477046 114.430028,49.3785231 112.620166,49.3275001 C110.903623,49.359694 109.235005,49.8992068 107.824545,50.8780644 C104.638863,53.1922463 102.385191,56.5688249 101.470174,60.3985444 C99.135611,69.3408545 102.180884,78.9791983 106.411811,86.8547042 C108.550724,90.8361046 111.041982,94.6150952 113.195187,98.5884106 C115.271082,102.388695 116.864877,106.433062 117.939665,110.627861 C120.13161,119.22913 120.327271,128.217794 118.511683,136.906297 C116.662651,145.554452 112.773296,154.117621 106.156494,160.084436 C105.572929,160.667999 105.34502,161.518562 105.558619,162.315726 C105.772217,163.11289 106.394872,163.735546 107.192035,163.949146 C107.989198,164.162747 108.839762,163.93484 109.423327,163.351276 C115.296271,158.055216 119.223671,150.790567 121.594716,143.32032 C124.210503,134.883178 124.975549,125.981064 123.837657,117.221332 C123.323261,112.859168 122.330036,108.566919 120.875945,104.4222 C119.300322,100.246985 117.332693,96.2304309 114.999428,92.4263702 C110.657036,85.0845282 106.034588,77.6589102 105.405998,68.9170157 C105.096882,64.6181751 105.634757,60.1371217 108.293983,56.6801067 C108.148453,56.8692803 108.4107,56.5425 108.411832,56.5411371 C108.572977,56.3480724 108.740172,56.1601745 108.913417,55.9774432 C109.243341,55.6232972 109.598019,55.2930488 109.97477,54.9891944 C109.894574,55.0527579 109.690078,55.189302 110.062334,54.9312442 C110.247473,54.8028929 110.436308,54.6798392 110.630548,54.5656636 C110.788514,54.4728094 110.950868,54.3904579 111.11253,54.3046953 C111.208523,54.2556925 111.305866,54.2095335 111.40456,54.1662185 C111.179812,54.2630999 111.192458,54.264029 111.442498,54.1690059 C111.623286,54.1123647 112.518188,53.91901 112.021538,53.9817573 C112.187155,53.9619981 112.353716,53.9511717 112.520498,53.9493249 C112.591207,53.9480544 113.214268,53.9799632 112.909902,53.946653 C112.55397,53.9076987 113.191391,54.0099085 113.195957,54.0110481 C113.395392,54.0597341 113.591321,54.1218005 113.782412,54.196826 C113.30184,54.0047264 114.570669,54.7182006 114.277761,54.4905117 C115.19606,55.3526561 116.626295,55.3526561 117.544593,54.4905117 C118.341651,53.6934539 118.535214,51.9937174 117.544593,51.2236789 L117.544524,51.2237097 Z" id="Path" fill="#000000" fill-rule="nonzero"></path>
                </g>
                <rect id="Rectangle" fill="#000000" fill-rule="nonzero" x="0" y="415" width="620" height="2"></rect>
            </g>
        </g>
    </g>
</svg>