<?xml version="1.0" encoding="UTF-8"?>
<svg width="961px" height="557px" viewBox="0 0 961 557" version="1.1" xmlns="http://www.w3.org/2000/svg" xmlns:xlink="http://www.w3.org/1999/xlink">
    <!-- Generator: Sketch 52.2 (67145) - http://www.bohemiancoding.com/sketch -->
    <title>illustrated-other</title>
    <desc>Created with Sketch.</desc>
    <g id="main_page_v0.5" stroke="none" stroke-width="1" fill="none" fill-rule="evenodd">
        <g transform="translate(-529.000000, -4731.000000)" id="block-#3">
            <g transform="translate(110.000000, 2050.000000)">
                <g id="other" transform="translate(419.000000, 2681.000000)">
                    <g id="illustrated-other">
                        <rect id="bg" fill="#FFD047" x="21" y="57" width="940" height="500"></rect>
                        <path d="M335,247.5 L335,298.5 L332,298.5 L332,247.5 L335,247.5 Z M335,0 L335,111.5 L332,111.5 L332,3 L54,3 L54,44.5 L51,44.5 L51,0 L335,0 Z M54,194.5 L54,493 L332,493 L332,338.5 L335,338.5 L335,496 L51,496 L51,194.5 L54,194.5 Z" id="Shape" fill="#202020"></path>
                        <rect id="Rectangle-Copy-12" stroke="#202020" stroke-width="3" fill="#FFFFFF" x="262.5" y="110.5" width="457" height="137"></rect>
                        <text id="Other-our-courses-an" font-family="AvenirNext-DemiBold, Avenir Next" font-size="30" font-weight="500" line-spacing="40" fill="#202020">
                            <tspan x="337" y="169">Other our courses and</tspan>
                            <tspan x="430.54" y="209">activities</tspan>
                        </text>
                        <path d="M0,89 L210,89 L210,159 L0,159 L0,89 Z M28,112 L28,136 L32,136 L32,112 L28,112 Z M53,112 L53,136 L57,136 L57,112 L53,112 Z M90,112 C83.372583,112 78,117.372583 78,124 C78,130.627417 83.372583,136 90,136 C96.627417,136 102,130.627417 102,124 C102,117.372583 96.627417,112 90,112 Z M90,116 C94.418278,116 98,119.581722 98,124 C98,128.418278 94.418278,132 90,132 C85.581722,132 82,128.418278 82,124 C82,119.581722 85.581722,116 90,116 Z M123,112 L123,136 L127,136 L127,112 L123,112 Z M148,112 L148,136 L152,136 L152,112 L148,112 Z M173,112 L173,136 L177,136 L177,112 L173,112 Z" id="Combined-Shape" fill="#202020"></path>
                        <path d="M102,317 L102,320 L222.836066,320 L222.836066,317 L102,317 Z M267.122173,287 L265.012444,289.12132 L279.780543,303.970563 L266.067308,317.759145 L268.177037,319.880465 L284,303.970563 L267.122173,287 Z M236.015981,291.052532 L233.311916,292.320387 L245.921182,319.509621 L248.625248,318.241766 L236.015981,291.052532 Z" id="Shape" fill="#202020"></path>
                        <rect id="Rectangle" fill="#202020" x="331" y="317" width="206" height="3"></rect>
                        <g id="Group-6" transform="translate(547.000000, 288.000000)">
                            <g id="icon/20x20/-bullet">
                                <g id="icon/20x20/-down" stroke-width="1" fill-rule="evenodd"></g>
                                <circle id="Oval" fill="#202020" fill-rule="nonzero" cx="10" cy="10" r="3"></circle>
                            </g>
                            <g id="icon/20x20/-bullet" transform="translate(20.000000, 0.000000)">
                                <g id="icon/20x20/-down" stroke-width="1" fill-rule="evenodd"></g>
                                <circle id="Oval" fill="#202020" fill-rule="nonzero" cx="10" cy="10" r="3"></circle>
                            </g>
                            <g id="icon/20x20/-bullet" transform="translate(40.000000, 0.000000)">
                                <g id="icon/20x20/-down" stroke-width="1" fill-rule="evenodd"></g>
                                <circle id="Oval" fill="#202020" fill-rule="nonzero" cx="10" cy="10" r="3"></circle>
                            </g>
                            <g id="icon/20x20/-bullet" transform="translate(0.000000, 20.000000)">
                                <g id="icon/20x20/-down" stroke-width="1" fill-rule="evenodd"></g>
                                <circle id="Oval" fill="#202020" fill-rule="nonzero" cx="10" cy="10" r="3"></circle>
                            </g>
                            <g id="icon/20x20/-bullet" transform="translate(20.000000, 20.000000)">
                                <g id="icon/20x20/-down" stroke-width="1" fill-rule="evenodd"></g>
                                <circle id="Oval" fill="#202020" fill-rule="nonzero" cx="10" cy="10" r="3"></circle>
                            </g>
                            <g id="icon/20x20/-bullet" transform="translate(40.000000, 20.000000)">
                                <g id="icon/20x20/-down" stroke-width="1" fill-rule="evenodd"></g>
                                <circle id="Oval" fill="#202020" fill-rule="nonzero" cx="10" cy="10" r="3"></circle>
                            </g>
                            <g id="icon/20x20/-bullet" transform="translate(0.000000, 40.000000)">
                                <g id="icon/20x20/-down" stroke-width="1" fill-rule="evenodd"></g>
                                <circle id="Oval" fill="#202020" fill-rule="nonzero" cx="10" cy="10" r="3"></circle>
                            </g>
                            <g id="icon/20x20/-bullet" transform="translate(20.000000, 40.000000)">
                                <g id="icon/20x20/-down" stroke-width="1" fill-rule="evenodd"></g>
                                <circle id="Oval" fill="#202020" fill-rule="nonzero" cx="10" cy="10" r="3"></circle>
                            </g>
                            <g id="icon/20x20/-bullet" transform="translate(40.000000, 40.000000)">
                                <g id="icon/20x20/-down" stroke-width="1" fill-rule="evenodd"></g>
                                <circle id="Oval" fill="#202020" fill-rule="nonzero" cx="10" cy="10" r="3"></circle>
                            </g>
                        </g>
                        <rect id="Rectangle-Copy-19" fill="#202020" x="102" y="347" width="176" height="3"></rect>
                        <rect id="Rectangle-Copy-22" fill="#202020" x="102" y="377" width="176" height="3"></rect>
                        <path d="M304,30 L305,30 L305,90 L302,90 L302,33 L244,33 L244,30 L304,30 Z" id="Combined-Shape" fill="#202020"></path>
                    </g>
                </g>
            </g>
        </g>
    </g>
</svg>