<svg xmlns="http://www.w3.org/2000/svg" viewBox="0 0 184 64" width="184" height="64">
    <path d="M61.14 0C32.2 25.22 29.34 25.22.4 0L0 .38c25.22 28.96 25.22 31.8 0 60.76l.38.4c28.96-25.24 31.8-25.24 60.76 0l.4-.4C36.28 32.2 36.28 29.34 61.52.4l-.4-.38zm55.7 44.4V27.74h-4.78v-5.5h4.78V15.6l6.26-2.5v9.14h5.84v5.5h-5.84v15.1c0 1.98.96 3.4 2.74 3.4 1.2 0 2.32-.46 2.8-1l1.5 4.72c-1.14 1.08-3 1.84-5.9 1.84-4.84 0-7.4-2.62-7.4-7.4m-33.6-4.3a17.14 17.14 0 0012.6 5.5c5.72 0 7.98-2.8 7.98-5.44 0-3.6-4.24-4.66-9.06-5.92-6.5-1.6-14.14-3.52-14.14-11.94 0-6.6 5.8-11.66 14.5-11.66 6.2 0 11.2 1.98 14.9 5.56l-4 5.2a16.18 16.18 0 00-11.5-4.54c-4.12 0-6.74 1.96-6.74 4.96 0 3.1 4.06 4.12 8.76 5.32 6.56 1.66 14.38 3.7 14.38 12.36 0 6.64-4.66 12.3-15.4 12.3-7.32 0-12.64-2.56-16.16-6.32l3.88-5.4zm70.12 7.04a11.66 11.66 0 01-9.24 4.66c-7.4 0-12.84-5.6-12.84-15.12 0-9.32 5.38-15.16 12.84-15.16 3.58 0 6.98 1.68 9.24 4.72v-4h6.26V51.1h-6.26v-3.96zm0-16.12a9.46 9.46 0 00-7.46-3.88c-4.94 0-8.1 3.94-8.1 9.54 0 5.56 3.16 9.58 8.1 9.58a9.4 9.4 0 007.46-3.84v-11.4zm12.38-8.78H172v4.24a12.3 12.3 0 019.36-4.9c1.42 0 2.64.4 2.64.4v6.2s-1.2-.56-4.2-.56-6.56 1.8-7.8 3.8V51.1h-6.26V22.24z"/>
</svg>