<svg width="486" height="122" viewBox="0 0 486 122" fill="none" xmlns="http://www.w3.org/2000/svg">
<path d="M81.022 29.6201H103.514V96.3345H81.022V29.6201Z" fill="white"/>
<path d="M177.244 29.6201V96.3345H158.755L133.403 66.0271V96.3345H111.483V29.6201H129.972L155.324 59.9275V29.6201H177.244Z" fill="white"/>
<path d="M217.34 29.6201C223.504 29.6201 228.873 30.6367 233.447 32.6699C238.022 34.7031 241.548 37.6258 244.026 41.4381C246.504 45.2503 247.743 49.698 247.743 54.781C247.743 59.864 246.504 64.3116 244.026 68.1239C241.548 71.9361 238.022 74.8588 233.447 76.892C228.873 78.9252 223.504 79.9418 217.34 79.9418H207.715V96.3345H185.222V29.6201H217.34ZM215.911 62.5961C218.961 62.5961 221.248 61.929 222.773 60.5947C224.298 59.1968 225.06 57.2589 225.06 54.781C225.06 52.303 224.298 50.3969 222.773 49.0626C221.248 47.6648 218.961 46.9659 215.911 46.9659H207.715V62.5961H215.911Z" fill="white"/>
<path d="M286.072 97.8594C275.842 97.8594 267.868 95.0955 262.15 89.5678C256.432 84.04 253.573 76.2884 253.573 66.313V29.6201H276.065V65.6459C276.065 70.5383 276.923 74.0964 278.638 76.3202C280.417 78.544 282.959 79.6559 286.263 79.6559C289.566 79.6559 292.076 78.544 293.792 76.3202C295.571 74.0964 296.46 70.5383 296.46 65.6459V29.6201H318.571V66.313C318.571 76.2884 315.712 84.04 309.994 89.5678C304.275 95.0955 296.301 97.8594 286.072 97.8594Z" fill="white"/>
<path d="M345.274 47.0612H325.736V29.6201H387.304V47.0612H367.767V96.3345H345.274V47.0612Z" fill="white"/>
<path fill-rule="evenodd" clip-rule="evenodd" d="M65.022 29.6201C65.022 20.7836 72.1854 13.6201 81.022 13.6201H103.514C104.89 13.6201 106.225 13.7937 107.499 14.1201C108.772 13.7937 110.107 13.6201 111.483 13.6201H129.972C134.71 13.6201 139.205 15.7201 142.245 19.3544L142.656 19.8455C145.582 16.0588 150.168 13.6201 155.324 13.6201H177.244C178.621 13.6201 179.958 13.7941 181.233 14.1214C182.508 13.7941 183.845 13.6201 185.222 13.6201H217.34C225.238 13.6201 232.91 14.9219 239.945 18.0489C240.542 18.3141 241.131 18.5911 241.713 18.8801C244.64 15.6494 248.869 13.6201 253.573 13.6201H276.065C279.94 13.6201 283.494 14.998 286.263 17.2905C289.031 14.998 292.585 13.6201 296.46 13.6201H318.571C319.803 13.6201 321.002 13.7593 322.154 14.0227C323.306 13.7593 324.505 13.6201 325.736 13.6201H387.304C396.141 13.6201 403.304 20.7836 403.304 29.6201V47.0612C403.304 55.8977 396.141 63.0612 387.304 63.0612H383.767V96.3345C383.767 105.171 376.603 112.335 367.767 112.335H345.274C336.438 112.335 329.274 105.171 329.274 96.3345V90.0842C327.226 94.0691 324.534 97.7661 321.114 101.072C311.628 110.241 299.215 113.859 286.072 113.859C272.929 113.859 260.516 110.241 251.03 101.072C247.611 97.7663 244.919 94.0697 242.87 90.0851C241.917 90.5945 240.942 91.0703 239.945 91.513C234.82 93.7911 229.357 95.1005 223.715 95.6435V96.3345C223.715 105.171 216.551 112.335 207.715 112.335H185.222C183.845 112.335 182.508 112.16 181.233 111.833C179.958 112.16 178.621 112.335 177.244 112.335H158.755C154.017 112.335 149.522 110.235 146.482 106.6L146.071 106.109C143.145 109.896 138.559 112.335 133.403 112.335H111.483C110.107 112.335 108.772 112.161 107.499 111.834C106.225 112.161 104.89 112.335 103.514 112.335H81.022C72.1854 112.335 65.022 105.171 65.022 96.3345V29.6201ZM133.403 66.0271L158.755 96.3345H177.244V29.6201H155.324V59.9275L129.972 29.6201H111.483V96.3345H133.403V66.0271ZM238.077 74.2823C240.478 72.5843 242.461 70.5314 244.026 68.1239C244.409 67.5354 244.762 66.9318 245.085 66.313C246.857 62.9234 247.743 59.0794 247.743 54.781C247.743 49.698 246.504 45.2504 244.026 41.4381C242.353 38.8639 240.202 36.6953 237.573 34.9322C236.308 34.0843 234.933 33.3302 233.447 32.6699C228.873 30.6367 223.504 29.6201 217.34 29.6201H185.222V96.3345H207.715V79.9418H217.34C223.504 79.9418 228.873 78.9252 233.447 76.892C235.133 76.1429 236.676 75.273 238.077 74.2823ZM222.773 49.0626C223.128 49.3734 223.442 49.7153 223.715 50.0882C224.612 51.316 225.06 52.8803 225.06 54.781C225.06 56.6817 224.612 58.2646 223.715 59.5298C223.442 59.9141 223.128 60.269 222.773 60.5947C221.248 61.929 218.961 62.5961 215.911 62.5961H207.715V46.9659H215.911C218.961 46.9659 221.248 47.6648 222.773 49.0626ZM255.637 79.3886C257.066 83.3588 259.237 86.7518 262.15 89.5678C267.868 95.0955 275.842 97.8594 286.072 97.8594C296.301 97.8594 304.275 95.0955 309.994 89.5678C315.712 84.04 318.571 76.2884 318.571 66.313V29.6201H296.46V65.6459C296.46 70.5383 295.571 74.0964 293.792 76.3202C292.076 78.544 289.566 79.6559 286.263 79.6559C282.959 79.6559 280.417 78.544 278.638 76.3202C276.923 74.0964 276.065 70.5383 276.065 65.6459V29.6201H253.573V66.313C253.573 69.3678 253.841 72.2141 254.377 74.8518C254.7 76.4396 255.12 77.9519 255.637 79.3886ZM345.274 47.0612V96.3345H367.767V47.0612H387.304V29.6201H325.736V47.0612H345.274ZM81.022 29.6201V96.3345H103.514V29.6201H81.022Z" fill="black"/>
<path d="M64.6182 53.0655L35.7404 62.9773L64.6182 72.8892V89.0912L16.012 71.4596V54.4951L64.6182 36.8634V53.0655Z" fill="url(#paint0_linear)"/>
<path fill-rule="evenodd" clip-rule="evenodd" d="M77.1783 62.9773C79.3556 60.2177 80.6182 56.7513 80.6182 53.0654V36.8634C80.6182 31.6462 78.0745 26.7567 73.8025 23.7619C69.5304 20.7672 64.0666 20.0433 59.1621 21.8224L10.5559 39.454C4.22674 41.7499 0.0119629 47.7623 0.0119629 54.495V71.4596C0.0119629 78.1923 4.22674 84.2047 10.5559 86.5006L59.1621 104.132C64.0666 105.911 69.5304 105.187 73.8025 102.193C78.0745 99.1979 80.6182 94.3084 80.6182 89.0912V72.8892C80.6182 69.2033 79.3556 65.737 77.1783 62.9773ZM16.012 54.495V71.4596L64.6182 89.0912V72.8892L35.7404 62.9773L64.6182 53.0654V36.8634L16.012 54.495Z" fill="black"/>
<path d="M415.353 16.0865H434.414L402.963 105.865H383.902L415.353 16.0865Z" fill="url(#paint1_linear)"/>
<path d="M469.242 54.495V71.4595L420.636 89.0912V72.8891L449.514 62.9772L420.636 53.0654V36.8633L469.242 54.495Z" fill="url(#paint2_linear)"/>
<path fill-rule="evenodd" clip-rule="evenodd" d="M400.253 10.7967C402.5 4.38148 408.555 0.0865479 415.353 0.0865479H434.414C439.6 0.0865479 444.464 2.60009 447.465 6.83015C450.465 11.0602 451.229 16.482 449.514 21.3764L446.735 29.3105L474.698 39.454C481.027 41.7499 485.242 47.7623 485.242 54.495V71.4595C485.242 78.1922 481.027 84.2046 474.698 86.5005L426.092 104.132C424.175 104.827 422.173 105.14 420.19 105.085L418.063 111.155C415.816 117.57 409.76 121.865 402.963 121.865H383.902C378.716 121.865 373.851 119.352 370.851 115.121C367.851 110.891 367.087 105.47 368.801 100.575L400.253 10.7967ZM421.371 53.3179L449.513 62.9772L420.636 72.8891V89.0912L469.242 71.4595V54.495L426.403 38.9553L434.414 16.0865H415.353L383.902 105.865H402.963L421.371 53.3179Z" fill="black"/>
<defs>
<linearGradient id="paint0_linear" x1="16.012" y1="62.9773" x2="64.6182" y2="62.9773" gradientUnits="userSpaceOnUse">
<stop stop-color="#FF0000"/>
<stop offset="1" stop-color="#FFFF00"/>
</linearGradient>
<linearGradient id="paint1_linear" x1="383.902" y1="60.9758" x2="469.242" y2="60.9758" gradientUnits="userSpaceOnUse">
<stop stop-color="#FF0000"/>
<stop offset="1" stop-color="#FFFF00"/>
</linearGradient>
<linearGradient id="paint2_linear" x1="383.902" y1="60.9758" x2="469.242" y2="60.9758" gradientUnits="userSpaceOnUse">
<stop stop-color="#FF0000"/>
<stop offset="1" stop-color="#FFFF00"/>
</linearGradient>
</defs>
</svg>
