<svg width="32" height="10" viewBox="0 0 32 10" fill="none" xmlns="http://www.w3.org/2000/svg">
<path d="M26.6645 1.20435L26.0588 2.00005V2.00005L26.6645 1.20435ZM25.2631 1.39437L24.4674 0.788683V0.788683L25.2631 1.39437ZM30.6057 4.20435L30 5.00005H30L30.6057 4.20435ZM30.7957 5.60574L30 5.00005L30.7957 5.60574ZM29.3943 5.79576L30 5.00005L29.3943 5.79576ZM25.4531 2.79576L24.8475 3.59146L25.4531 2.79576ZM30.6057 5.79576L30 5.00005H30L30.6057 5.79576ZM30.7957 4.39437L31.5914 3.78868L30.7957 4.39437ZM26.6645 8.79576L27.2702 9.59146L26.6645 8.79576ZM25.2631 8.60574L26.0588 8.00005L25.2631 8.60574ZM25.4531 7.20435L24.8475 6.40864L25.4531 7.20435ZM29.3943 4.20435L30 5.00005L29.3943 4.20435ZM27.2702 0.408645C26.3913 -0.260377 25.1364 -0.0902277 24.4674 0.788683L26.0588 2.00005V2.00005L27.2702 0.408645ZM31.2114 3.40864L27.2702 0.408645L26.0588 2.00005L30 5.00005L31.2114 3.40864ZM31.5914 6.21142C32.2604 5.33251 32.0903 4.07767 31.2114 3.40864L30 5.00005L31.5914 6.21142ZM28.7886 6.59146C29.6675 7.26048 30.9224 7.09033 31.5914 6.21142L30 5.00005L28.7886 6.59146ZM24.8475 3.59146L28.7886 6.59146L30 5.00005L26.0588 2.00005L24.8475 3.59146ZM24.4674 0.788683C23.7984 1.66759 23.9685 2.92244 24.8475 3.59146L26.0588 2.00005V2.00005L24.4674 0.788683ZM31.2114 6.59146C32.0903 5.92244 32.2604 4.66759 31.5914 3.78868L30 5.00005L31.2114 6.59146ZM27.2702 9.59146L31.2114 6.59146L30 5.00005L26.0588 8.00005L27.2702 9.59146ZM24.4674 9.21142C25.1364 10.0903 26.3913 10.2605 27.2702 9.59146L26.0588 8.00005L24.4674 9.21142ZM24.8475 6.40864C23.9685 7.07767 23.7984 8.33251 24.4674 9.21142L26.0588 8.00005L24.8475 6.40864ZM28.7886 3.40864L24.8475 6.40864L26.0588 8.00005L30 5.00005L28.7886 3.40864ZM31.5914 3.78868C30.9224 2.90977 29.6675 2.73962 28.7886 3.40864L30 5.00005L31.5914 3.78868ZM2 3.00005C0.89543 3.00005 0 3.89548 0 5.00005H2V3.00005ZM23 3.00005H2V5.00005H23V3.00005ZM25 5.00005C25 3.89548 24.1046 3.00005 23 3.00005V5.00005H25ZM23 7.00005C24.1046 7.00005 25 6.10462 25 5.00005H23V7.00005ZM2 7.00005H23V5.00005H2V7.00005ZM0 5.00005C0 6.10462 0.89543 7.00005 2 7.00005V5.00005H0Z" fill="#202020"/>
</svg>
