<svg width="35" height="20" viewBox="0 0 35 20" fill="none" xmlns="http://www.w3.org/2000/svg">
<path d="M26.6645 6.20429L26.0588 6.99999V6.99999L26.6645 6.20429ZM25.2631 6.39431L24.4674 5.78862V5.78862L25.2631 6.39431ZM30.6057 9.20429L30 9.99999H30L30.6057 9.20429ZM30.7957 10.6057L30 9.99999L30.7957 10.6057ZM29.3943 10.7957L30 9.99999L29.3943 10.7957ZM25.4531 7.7957L24.8475 8.5914L25.4531 7.7957ZM30.6057 10.7957L30 9.99999H30L30.6057 10.7957ZM30.7957 9.39431L31.5914 8.78862L30.7957 9.39431ZM26.6645 13.7957L27.2702 14.5914L26.6645 13.7957ZM25.2631 13.6057L26.0588 13L25.2631 13.6057ZM25.4531 12.2043L24.8475 11.4086L25.4531 12.2043ZM29.3943 9.20429L30 9.99999L29.3943 9.20429ZM27.2702 5.40858C26.3913 4.73956 25.1364 4.90971 24.4674 5.78862L26.0588 6.99999V6.99999L27.2702 5.40858ZM31.2114 8.40858L27.2702 5.40858L26.0588 6.99999L30 9.99999L31.2114 8.40858ZM31.5914 11.2114C32.2604 10.3325 32.0903 9.07761 31.2114 8.40858L30 9.99999L31.5914 11.2114ZM28.7886 11.5914C29.6675 12.2604 30.9224 12.0903 31.5914 11.2114L30 9.99999L28.7886 11.5914ZM24.8475 8.5914L28.7886 11.5914L30 9.99999L26.0588 6.99999L24.8475 8.5914ZM24.4674 5.78862C23.7984 6.66753 23.9685 7.92238 24.8475 8.5914L26.0588 6.99999V6.99999L24.4674 5.78862ZM31.2114 11.5914C32.0903 10.9224 32.2604 9.66753 31.5914 8.78862L30 9.99999L31.2114 11.5914ZM27.2702 14.5914L31.2114 11.5914L30 9.99999L26.0588 13L27.2702 14.5914ZM24.4674 14.2114C25.1364 15.0903 26.3913 15.2604 27.2702 14.5914L26.0588 13L24.4674 14.2114ZM24.8475 11.4086C23.9685 12.0776 23.7984 13.3325 24.4674 14.2114L26.0588 13L24.8475 11.4086ZM28.7886 8.40858L24.8475 11.4086L26.0588 13L30 9.99999L28.7886 8.40858ZM31.5914 8.78862C30.9224 7.90971 29.6675 7.73956 28.7886 8.40858L30 9.99999L31.5914 8.78862ZM2 7.99999C0.89543 7.99999 0 8.89542 0 9.99999H2V7.99999ZM23 7.99999H2V9.99999H23V7.99999ZM25 9.99999C25 8.89542 24.1046 7.99999 23 7.99999V9.99999H25ZM23 12C24.1046 12 25 11.1046 25 9.99999H23V12ZM2 12H23V9.99999H2V12ZM0 9.99999C0 11.1046 0.89543 12 2 12V9.99999H0Z" fill="#202020"/>
</svg>
