<svg width="20" height="20" viewBox="0 0 20 20" fill="none" xmlns="http://www.w3.org/2000/svg">
<path fill-rule="evenodd" clip-rule="evenodd" d="M2 0H18C19.1046 0 20 0.89543 20 2V18C20 19.1046 19.1046 20 18 20H2C0.89543 20 0 19.1046 0 18V2C0 0.89543 0.89543 0 2 0ZM2 9V18H18V9H19V1H1V9H2ZM16 2H2V9H4.08296C4.0284 9.32521 4 9.65929 4 10C4 13.3137 6.68629 16 10 16C13.3137 16 16 13.3137 16 10C16 9.65929 15.9716 9.32521 15.917 9H18V4V2H16ZM16 2C17.1046 2 18 2.89543 18 4C18 5.10457 17.1046 6 16 6C14.8954 6 14 5.10457 14 4C14 2.89543 14.8954 2 16 2ZM14 10C14 12.2091 12.2091 14 10 14C7.79086 14 6 12.2091 6 10C6 7.79086 7.79086 6 10 6C12.2091 6 14 7.79086 14 10Z" fill="#202020"/>
</svg>
