<svg width="22" height="22" viewBox="0 0 22 22" fill="none" xmlns="http://www.w3.org/2000/svg">
<path d="M20.5244 5.61588C19.5408 3.88825 18.2065 2.52048 16.5213 1.51227C14.8358 0.504003 12.9958 0 10.9999 0C9.00426 0 7.16362 0.504158 5.4785 1.51227C3.79313 2.52043 2.45893 3.88825 1.47528 5.61588C0.491775 7.34346 0 9.22998 0 11.2754C0 13.7324 0.699311 15.9419 2.09828 17.9042C3.49711 19.8668 5.30418 21.2248 7.51935 21.9784C7.7772 22.0274 7.96808 21.9929 8.09219 21.8757C8.21635 21.7584 8.27836 21.6114 8.27836 21.4354C8.27836 21.4061 8.2759 21.1419 8.27113 20.6426C8.26622 20.1434 8.26391 19.7078 8.26391 19.3362L7.93447 19.3946C7.72443 19.434 7.45945 19.4507 7.13954 19.446C6.81979 19.4414 6.48784 19.4071 6.14415 19.3432C5.80032 19.2799 5.48051 19.1331 5.18448 18.9031C4.8886 18.6731 4.67856 18.372 4.5544 18.0003L4.41118 17.6624C4.31571 17.4375 4.16541 17.1876 3.96009 16.9138C3.75476 16.6396 3.54712 16.4538 3.33708 16.3559L3.2368 16.2823C3.16998 16.2334 3.10797 16.1744 3.05063 16.106C2.99334 16.0376 2.95045 15.9691 2.92181 15.9005C2.89311 15.8318 2.91689 15.7755 2.99339 15.7313C3.06989 15.6872 3.20815 15.6657 3.40876 15.6657L3.69511 15.7096C3.88609 15.7488 4.12232 15.866 4.4041 16.0619C4.68573 16.2576 4.91725 16.512 5.0987 16.8251C5.31843 17.2265 5.58315 17.5324 5.89363 17.7429C6.20385 17.9533 6.51663 18.0584 6.83168 18.0584C7.14672 18.0584 7.41882 18.0339 7.64807 17.9852C7.87708 17.9363 8.09194 17.8627 8.29255 17.7649C8.37849 17.1088 8.61246 16.6048 8.99427 16.2525C8.45007 16.1939 7.96081 16.1056 7.52622 15.9882C7.09189 15.8706 6.64305 15.6799 6.18002 15.4153C5.71674 15.1512 5.33242 14.8231 5.02696 14.4318C4.72145 14.0403 4.47072 13.5262 4.27513 12.8902C4.07943 12.2539 3.98156 11.5198 3.98156 10.6879C3.98156 9.50335 4.3588 8.49535 5.11315 7.66331C4.75978 6.77276 4.79314 5.77442 5.21333 4.6684C5.49024 4.5802 5.9009 4.64639 6.4451 4.86653C6.9894 5.08678 7.38791 5.27545 7.64105 5.43188C7.89419 5.58826 8.09701 5.72078 8.24981 5.82826C9.138 5.57386 10.0546 5.44664 10.9998 5.44664C11.945 5.44664 12.8618 5.57386 13.75 5.82826L14.2943 5.47606C14.6665 5.24105 15.106 5.02569 15.6117 4.82992C16.1178 4.63425 16.5048 4.58036 16.7723 4.66855C17.2018 5.77462 17.2401 6.77291 16.8866 7.66347C17.6409 8.4955 18.0183 9.50376 18.0183 10.6881C18.0183 11.52 17.9201 12.2563 17.7247 12.8975C17.529 13.5388 17.2761 14.0523 16.9659 14.4392C16.6553 14.8259 16.2686 15.1514 15.8055 15.4155C15.3424 15.6798 14.8934 15.8706 14.4591 15.9881C14.0245 16.1057 13.5353 16.194 12.9911 16.2528C13.4874 16.6931 13.7356 17.388 13.7356 18.3374V21.435C13.7356 21.611 13.7953 21.7579 13.9148 21.8753C14.0342 21.9925 14.2226 22.027 14.4805 21.9779C16.696 21.2244 18.503 19.8664 19.9018 17.9038C21.3004 15.9414 22 13.732 22 11.275C21.9995 9.22983 21.5075 7.34346 20.5244 5.61588Z" fill="#202020"/>
</svg>
