<svg width="24" height="18" viewBox="0 0 24 18" fill="none" xmlns="http://www.w3.org/2000/svg">
<path fill-rule="evenodd" clip-rule="evenodd" d="M11.999 17.2428C9.40183 17.2446 5.79384 17.2428 3.21678 16.9557C2.12838 16.834 1.22426 16.018 0.970905 14.9129C0.608276 13.3394 0.608276 10.6206 0.608276 9C0.608276 7.37938 0.612658 4.66108 0.974771 3.08763C1.22838 1.98144 2.1325 1.1665 3.21962 1.0451C5.79694 0.756959 9.40621 0.755928 12.0034 0.756959C14.6 0.755928 18.2085 0.756959 20.7853 1.0451C21.874 1.1665 22.7779 1.98144 23.0325 3.08763C23.3919 4.64689 23.3918 7.33044 23.3918 8.95563V8.99974C23.3918 10.6204 23.3908 13.3394 23.0284 14.9129C22.7737 16.018 21.8696 16.834 20.7815 16.9557C18.2054 17.2428 14.5969 17.2446 11.999 17.2428ZM12.4866 6.99364C11.292 6.28303 10.0993 5.57359 9.00003 5V13C10.1034 12.4278 11.2988 11.7148 12.4946 11.0016C13.6919 10.2874 14.8896 9.57306 15.9955 8.99974C14.8853 8.42049 13.685 7.70648 12.4866 6.99364Z" fill="#202020"/>
</svg>
