<svg width="21" height="20" viewBox="0 0 21 20" fill="none" xmlns="http://www.w3.org/2000/svg">
<path fill-rule="evenodd" clip-rule="evenodd" d="M0 3.0207C0 1.35316 1.35316 0 3.0207 0H17.9783C19.646 0 20.9965 1.35316 20.9966 3.0207V16.9759C20.9966 18.6434 19.6462 19.9966 17.9783 19.9966H3.0207C1.35316 19.9966 0 18.6434 0 16.9757V3.0207ZM5.44048 5.61342C6.4879 5.61342 7.14239 4.92037 7.14239 4.0525C7.12298 3.16544 6.48949 2.48897 5.46187 2.48897C4.43324 2.48897 3.75996 3.16544 3.75996 4.0525C3.75996 4.92033 4.41305 5.61342 5.42188 5.61342H5.44048ZM14.3221 6.63706C16.2998 6.63706 17.7815 7.92805 17.7815 10.7056V15.8911H14.7767V11.0539C14.7767 9.83849 14.3407 9.00904 13.2529 9.00904C12.4228 9.00904 11.9301 9.56695 11.7134 10.1072C11.634 10.3004 11.6124 10.5708 11.6124 10.8411V15.891H8.6075C8.6075 15.891 8.64728 7.69824 8.6075 6.85H11.6124V8.13176C12.0113 7.51529 12.7256 6.63706 14.3221 6.63706ZM6.94279 6.84982H3.93812V15.8908H6.94279V6.84982Z" fill="#202020"/>
</svg>
