<svg width="60" height="60" viewBox="0 0 60 60" fill="none" xmlns="http://www.w3.org/2000/svg">
<rect width="60" height="60" fill="white"/>
<path fill-rule="evenodd" clip-rule="evenodd" d="M27.3389 10.7178L31 13.6636C28.0903 18.1195 27.2564 18.7377 25.614 30.0002C24.7541 37.9087 27 47.0002 27 47.0002H17.4737C17.4737 47.0002 16.7854 37.4553 18.4975 28.859C20.2097 20.2627 23.8649 14.6856 27.3389 10.7178Z" fill="#202020"/>
<path fill-rule="evenodd" clip-rule="evenodd" d="M41.3389 10.7178L45 13.6636C42.0903 18.1195 41.2564 18.7377 39.614 30.0002C38.7541 37.9087 41 47.0002 41 47.0002H31.4737C31.4737 47.0002 30.7854 37.4553 32.4975 28.859C34.2097 20.2627 37.8649 14.6856 41.3389 10.7178Z" fill="#202020"/>
</svg>
