<svg xmlns="http://www.w3.org/2000/svg" viewBox="0 0 69 57"><defs><style>.cls-1,.cls-3{fill:none;stroke:#979797;stroke-width:2px;}.cls-1{stroke-linejoin:round;}.cls-2,.cls-4{fill:#979797;}.cls-3{stroke-linejoin:bevel;}.cls-4{fill-rule:evenodd;}</style></defs><title>download</title><path class="cls-1" d="M22.2,57A17.4,17.4,0,0,0,25,48.4c0-4.4-2.8-9.1-2.8-9.1"/><path class="cls-1" d="M13.2,45l1.5-5.7"/><path class="cls-1" d="M17,45l1.4-5.7"/><path class="cls-1" d="M9.5,57s-2.9-4.1-2.9-8.6,2.9-9.1,2.9-9.1"/><path class="cls-1" d="M59.5,57s2.9-4.1,2.9-8.6-2.9-9.1-2.9-9.1"/><path class="cls-1" d="M50.6,45,52,39.3"/><path class="cls-1" d="M54.3,45l1.5-5.7"/><path class="cls-1" d="M46.8,57A17.4,17.4,0,0,1,44,48.4c0-4.4,2.8-9.1,2.8-9.1"/><rect class="cls-2" x="26.9" y="55.5" width="15.1" height="1.96"/><path class="cls-1" d="M58.1,28.3H69"/><path class="cls-1" d="M58.1,24.5H69"/><path class="cls-1" d="M0,28.3H10.9"/><path class="cls-1" d="M0,24.5H10.9"/><path class="cls-1" d="M50.6,34.5a17.4,17.4,0,0,0,2.8-8.6c0-4.4-2.8-9.1-2.8-9.1"/><path class="cls-1" d="M17.5,34.5a17.4,17.4,0,0,1-2.8-8.6c0-4.4,2.8-9.1,2.8-9.1"/><path class="cls-3" d="M38.3,28.8l3.8-8.7,3.7,8.7"/><path class="cls-3" d="M22.2,28.8,26,20.1l3.8,8.7"/><path class="cls-4" d="M34.5,34A1.5,1.5,0,1,0,33,32.5,1.5,1.5,0,0,0,34.5,34Z"/><path class="cls-3" d="M19.8,12,25,1l5.2,11"/><path class="cls-3" d="M38.8,12,44,1l5.2,11"/><rect class="cls-2" x="30" y="10.4" width="9" height="2"/></svg>
