<svg width="293" height="190" viewBox="0 0 293 190" fill="none" xmlns="http://www.w3.org/2000/svg">
<mask id="path-1-outside-1" maskUnits="userSpaceOnUse" x="0.687988" y="0.12793" width="292" height="190" fill="black">
<rect fill="white" x="0.687988" y="0.12793" width="292" height="190"/>
<path d="M20.504 69.9599C16.984 69.9599 13.784 69.0959 10.904 67.3679C8.08799 65.5759 5.84799 63.2079 4.18399 60.2639C2.51999 57.3199 1.68799 54.0239 1.68799 50.3759L1.78399 20.4239C1.78399 16.9039 2.58399 13.7039 4.18399 10.8239C5.84799 7.87993 8.08799 5.54393 10.904 3.81593C13.784 2.02393 16.984 1.12793 20.504 1.12793C24.024 1.12793 27.192 1.99193 30.008 3.71993C32.824 5.44793 35.064 7.78393 36.728 10.7279C38.392 13.6079 39.224 16.8399 39.224 20.4239V24.8399C39.224 25.0959 39.096 25.2239 38.84 25.2239H28.088C27.832 25.2239 27.704 25.0959 27.704 24.8399V20.4239C27.704 18.3119 27 16.4879 25.592 14.9519C24.248 13.4159 22.552 12.6479 20.504 12.6479C18.2 12.6479 16.44 13.4479 15.224 15.0479C14.008 16.5839 13.4 18.3759 13.4 20.4239V50.3759C13.4 52.7439 14.072 54.6639 15.416 56.1359C16.824 57.6079 18.52 58.3439 20.504 58.3439C22.552 58.3439 24.248 57.5439 25.592 55.9439C27 54.2799 27.704 52.4239 27.704 50.3759V45.9599C27.704 45.7039 27.832 45.5759 28.088 45.5759H38.936C39.192 45.5759 39.32 45.7039 39.32 45.9599V50.3759C39.32 54.0239 38.456 57.3199 36.728 60.2639C35.064 63.2079 32.824 65.5759 30.008 67.3679C27.192 69.0959 24.024 69.9599 20.504 69.9599Z"/>
<path d="M46.724 68.9999C46.468 68.9999 46.34 68.8399 46.34 68.5199L46.436 2.66393C46.436 2.34393 46.596 2.18393 46.916 2.18393H57.572C57.892 2.18393 58.052 2.34393 58.052 2.66393L57.956 57.1919H77.732C78.052 57.1919 78.212 57.3519 78.212 57.6719V68.5199C78.212 68.8399 78.052 68.9999 77.732 68.9999H46.724Z"/>
<path d="M100.944 69.9599C97.4877 69.9599 94.3197 69.0959 91.4397 67.3679C88.6237 65.5759 86.3517 63.2399 84.6237 60.3599C82.8957 57.4159 82.0317 54.1839 82.0317 50.6639L82.1277 20.2319C82.1277 16.7119 82.9597 13.5119 84.6237 10.6319C86.3517 7.75193 88.6557 5.44793 91.5357 3.71993C94.4157 1.99193 97.5517 1.12793 100.944 1.12793C104.4 1.12793 107.536 1.99193 110.352 3.71993C113.168 5.44793 115.408 7.75193 117.072 10.6319C118.8 13.5119 119.664 16.7119 119.664 20.2319L119.76 50.6639C119.76 54.1839 118.896 57.4159 117.168 60.3599C115.504 63.2399 113.232 65.5759 110.352 67.3679C107.536 69.0959 104.4 69.9599 100.944 69.9599ZM100.944 58.3439C102.864 58.3439 104.528 57.5759 105.936 56.0399C107.408 54.4399 108.144 52.6479 108.144 50.6639L108.048 20.2319C108.048 18.1199 107.376 16.3279 106.032 14.8559C104.688 13.3839 102.992 12.6479 100.944 12.6479C98.9597 12.6479 97.2637 13.3839 95.8557 14.8559C94.4477 16.2639 93.7437 18.0559 93.7437 20.2319V50.6639C93.7437 52.7759 94.4477 54.5999 95.8557 56.1359C97.2637 57.6079 98.9597 58.3439 100.944 58.3439Z"/>
<path d="M142.803 69.9599C139.219 69.9599 135.987 69.1279 133.107 67.4639C130.291 65.7359 128.051 63.3999 126.387 60.4559C124.787 57.4479 123.987 54.0879 123.987 50.3759V45.9599C123.987 45.7039 124.115 45.5759 124.371 45.5759H135.219C135.475 45.5759 135.603 45.7359 135.603 46.0559V50.3759C135.603 52.7439 136.275 54.6639 137.619 56.1359C138.963 57.6079 140.691 58.3439 142.803 58.3439C144.723 58.3439 146.387 57.5439 147.795 55.9439C149.203 54.3439 149.907 52.4879 149.907 50.3759V2.66393C149.907 2.40793 150.035 2.27993 150.291 2.27993H161.043C161.299 2.27993 161.427 2.43993 161.427 2.75993L161.523 50.3759C161.523 53.8959 160.659 57.1599 158.931 60.1679C157.267 63.1119 155.027 65.4799 152.211 67.2719C149.395 69.0639 146.259 69.9599 142.803 69.9599Z"/>
<path d="M186.441 69.9599C183.049 69.9599 179.913 69.0959 177.033 67.3679C174.153 65.5759 171.849 63.2079 170.121 60.2639C168.457 57.3199 167.625 54.0879 167.625 50.5679L167.817 2.56793C167.817 2.31193 167.945 2.18393 168.201 2.18393H178.953C179.209 2.18393 179.337 2.31193 179.337 2.56793V50.5679C179.337 52.7439 180.009 54.5999 181.353 56.1359C182.761 57.6079 184.457 58.3439 186.441 58.3439C188.489 58.3439 190.185 57.6079 191.529 56.1359C192.937 54.5999 193.641 52.7439 193.641 50.5679V2.56793C193.641 2.31193 193.769 2.18393 194.025 2.18393H204.777C205.033 2.18393 205.161 2.31193 205.161 2.56793L205.353 50.5679C205.353 54.1519 204.489 57.4159 202.761 60.3599C201.097 63.3039 198.825 65.6399 195.945 67.3679C193.129 69.0959 189.961 69.9599 186.441 69.9599Z"/>
<path d="M213.318 68.9999C213.062 68.9999 212.934 68.8399 212.934 68.5199L213.126 2.56793C213.126 2.31193 213.254 2.18393 213.51 2.18393H232.902C236.358 2.18393 239.526 3.04793 242.406 4.77593C245.35 6.43993 247.686 8.71193 249.414 11.5919C251.142 14.4079 252.006 17.6079 252.006 21.1919C252.006 23.5599 251.654 25.7039 250.95 27.6239C250.246 29.4799 249.414 31.0799 248.454 32.4239C247.494 33.7039 246.63 34.6639 245.862 35.3039C249.318 39.1439 251.046 43.6559 251.046 48.8399L251.142 68.5199C251.142 68.8399 250.982 68.9999 250.662 68.9999H239.814C239.558 68.9999 239.43 68.9039 239.43 68.7119V48.8399C239.43 46.5359 238.598 44.5519 236.934 42.8879C235.334 41.1599 233.35 40.2959 230.982 40.2959H224.646L224.55 68.5199C224.55 68.8399 224.422 68.9999 224.166 68.9999H213.318ZM224.646 28.7759H232.902C234.886 28.7759 236.646 28.0399 238.182 26.5679C239.718 25.0959 240.486 23.3039 240.486 21.1919C240.486 19.1439 239.718 17.3839 238.182 15.9119C236.71 14.4399 234.95 13.7039 232.902 13.7039H224.646V28.7759Z"/>
<path d="M259.63 68.9999C259.374 68.9999 259.246 68.8399 259.246 68.5199L259.342 2.56793C259.342 2.31193 259.47 2.18393 259.726 2.18393H290.542C290.798 2.18393 290.926 2.34393 290.926 2.66393V13.4159C290.926 13.6719 290.798 13.7999 290.542 13.7999H270.862V28.7759H290.542C290.798 28.7759 290.926 28.9039 290.926 29.1599L291.022 40.0079C291.022 40.2639 290.894 40.3919 290.638 40.3919H270.862V57.1919H290.638C290.894 57.1919 291.022 57.3519 291.022 57.6719V68.6159C291.022 68.8719 290.894 68.9999 290.638 68.9999H259.63Z"/>
<path d="M3.31999 189C2.99999 189 2.83999 188.84 2.83999 188.52L3.03199 122.568C3.03199 122.312 3.15999 122.184 3.41599 122.184L21.368 122.088C24.888 122.024 28.088 122.856 30.968 124.584C33.912 126.312 36.248 128.648 37.976 131.592C39.704 134.472 40.568 137.672 40.568 141.192V168.744C40.568 172.456 39.672 175.848 37.88 178.92C36.088 181.928 33.688 184.328 30.68 186.12C27.672 187.912 24.28 188.84 20.504 188.904L3.31999 189ZM14.552 177.192H20.504C22.872 177.192 24.856 176.36 26.456 174.696C28.12 173.032 28.952 171.048 28.952 168.744V141.096C28.952 139.048 28.184 137.288 26.648 135.816C25.176 134.28 23.416 133.544 21.368 133.608L14.648 133.704L14.552 177.192Z"/>
<path d="M41.951 188.52L53.855 122.568C53.919 122.312 54.079 122.184 54.335 122.184H68.255C68.511 122.184 68.671 122.312 68.735 122.568L80.159 188.52C80.223 188.84 80.095 189 79.775 189H69.119C68.863 189 68.703 188.84 68.639 188.52L67.583 181.512H54.527L53.471 188.52C53.407 188.84 53.247 189 52.991 189H42.335C42.079 189 41.951 188.84 41.951 188.52ZM56.447 171.24H65.663L61.727 144.264L61.151 140.712L60.767 144.264L56.447 171.24Z"/>
<path d="M90.893 189C90.701 189 90.605 188.872 90.605 188.616L90.701 161.352L77.837 122.568C77.773 122.312 77.869 122.184 78.125 122.184H88.781C89.101 122.184 89.293 122.312 89.357 122.568L96.461 148.392L103.661 122.568C103.725 122.312 103.885 122.184 104.141 122.184H114.893C115.149 122.184 115.245 122.312 115.181 122.568L102.221 160.968L102.317 188.616C102.317 188.872 102.189 189 101.933 189H90.893Z"/>
</mask>
<path d="M20.504 69.9599C16.984 69.9599 13.784 69.0959 10.904 67.3679C8.08799 65.5759 5.84799 63.2079 4.18399 60.2639C2.51999 57.3199 1.68799 54.0239 1.68799 50.3759L1.78399 20.4239C1.78399 16.9039 2.58399 13.7039 4.18399 10.8239C5.84799 7.87993 8.08799 5.54393 10.904 3.81593C13.784 2.02393 16.984 1.12793 20.504 1.12793C24.024 1.12793 27.192 1.99193 30.008 3.71993C32.824 5.44793 35.064 7.78393 36.728 10.7279C38.392 13.6079 39.224 16.8399 39.224 20.4239V24.8399C39.224 25.0959 39.096 25.2239 38.84 25.2239H28.088C27.832 25.2239 27.704 25.0959 27.704 24.8399V20.4239C27.704 18.3119 27 16.4879 25.592 14.9519C24.248 13.4159 22.552 12.6479 20.504 12.6479C18.2 12.6479 16.44 13.4479 15.224 15.0479C14.008 16.5839 13.4 18.3759 13.4 20.4239V50.3759C13.4 52.7439 14.072 54.6639 15.416 56.1359C16.824 57.6079 18.52 58.3439 20.504 58.3439C22.552 58.3439 24.248 57.5439 25.592 55.9439C27 54.2799 27.704 52.4239 27.704 50.3759V45.9599C27.704 45.7039 27.832 45.5759 28.088 45.5759H38.936C39.192 45.5759 39.32 45.7039 39.32 45.9599V50.3759C39.32 54.0239 38.456 57.3199 36.728 60.2639C35.064 63.2079 32.824 65.5759 30.008 67.3679C27.192 69.0959 24.024 69.9599 20.504 69.9599Z" fill="#FF00D4"/>
<path d="M46.724 68.9999C46.468 68.9999 46.34 68.8399 46.34 68.5199L46.436 2.66393C46.436 2.34393 46.596 2.18393 46.916 2.18393H57.572C57.892 2.18393 58.052 2.34393 58.052 2.66393L57.956 57.1919H77.732C78.052 57.1919 78.212 57.3519 78.212 57.6719V68.5199C78.212 68.8399 78.052 68.9999 77.732 68.9999H46.724Z" fill="#FF00D4"/>
<path d="M100.944 69.9599C97.4877 69.9599 94.3197 69.0959 91.4397 67.3679C88.6237 65.5759 86.3517 63.2399 84.6237 60.3599C82.8957 57.4159 82.0317 54.1839 82.0317 50.6639L82.1277 20.2319C82.1277 16.7119 82.9597 13.5119 84.6237 10.6319C86.3517 7.75193 88.6557 5.44793 91.5357 3.71993C94.4157 1.99193 97.5517 1.12793 100.944 1.12793C104.4 1.12793 107.536 1.99193 110.352 3.71993C113.168 5.44793 115.408 7.75193 117.072 10.6319C118.8 13.5119 119.664 16.7119 119.664 20.2319L119.76 50.6639C119.76 54.1839 118.896 57.4159 117.168 60.3599C115.504 63.2399 113.232 65.5759 110.352 67.3679C107.536 69.0959 104.4 69.9599 100.944 69.9599ZM100.944 58.3439C102.864 58.3439 104.528 57.5759 105.936 56.0399C107.408 54.4399 108.144 52.6479 108.144 50.6639L108.048 20.2319C108.048 18.1199 107.376 16.3279 106.032 14.8559C104.688 13.3839 102.992 12.6479 100.944 12.6479C98.9597 12.6479 97.2637 13.3839 95.8557 14.8559C94.4477 16.2639 93.7437 18.0559 93.7437 20.2319V50.6639C93.7437 52.7759 94.4477 54.5999 95.8557 56.1359C97.2637 57.6079 98.9597 58.3439 100.944 58.3439Z" fill="#FF00D4"/>
<path d="M142.803 69.9599C139.219 69.9599 135.987 69.1279 133.107 67.4639C130.291 65.7359 128.051 63.3999 126.387 60.4559C124.787 57.4479 123.987 54.0879 123.987 50.3759V45.9599C123.987 45.7039 124.115 45.5759 124.371 45.5759H135.219C135.475 45.5759 135.603 45.7359 135.603 46.0559V50.3759C135.603 52.7439 136.275 54.6639 137.619 56.1359C138.963 57.6079 140.691 58.3439 142.803 58.3439C144.723 58.3439 146.387 57.5439 147.795 55.9439C149.203 54.3439 149.907 52.4879 149.907 50.3759V2.66393C149.907 2.40793 150.035 2.27993 150.291 2.27993H161.043C161.299 2.27993 161.427 2.43993 161.427 2.75993L161.523 50.3759C161.523 53.8959 160.659 57.1599 158.931 60.1679C157.267 63.1119 155.027 65.4799 152.211 67.2719C149.395 69.0639 146.259 69.9599 142.803 69.9599Z" fill="#FF00D4"/>
<path d="M186.441 69.9599C183.049 69.9599 179.913 69.0959 177.033 67.3679C174.153 65.5759 171.849 63.2079 170.121 60.2639C168.457 57.3199 167.625 54.0879 167.625 50.5679L167.817 2.56793C167.817 2.31193 167.945 2.18393 168.201 2.18393H178.953C179.209 2.18393 179.337 2.31193 179.337 2.56793V50.5679C179.337 52.7439 180.009 54.5999 181.353 56.1359C182.761 57.6079 184.457 58.3439 186.441 58.3439C188.489 58.3439 190.185 57.6079 191.529 56.1359C192.937 54.5999 193.641 52.7439 193.641 50.5679V2.56793C193.641 2.31193 193.769 2.18393 194.025 2.18393H204.777C205.033 2.18393 205.161 2.31193 205.161 2.56793L205.353 50.5679C205.353 54.1519 204.489 57.4159 202.761 60.3599C201.097 63.3039 198.825 65.6399 195.945 67.3679C193.129 69.0959 189.961 69.9599 186.441 69.9599Z" fill="#FF00D4"/>
<path d="M213.318 68.9999C213.062 68.9999 212.934 68.8399 212.934 68.5199L213.126 2.56793C213.126 2.31193 213.254 2.18393 213.51 2.18393H232.902C236.358 2.18393 239.526 3.04793 242.406 4.77593C245.35 6.43993 247.686 8.71193 249.414 11.5919C251.142 14.4079 252.006 17.6079 252.006 21.1919C252.006 23.5599 251.654 25.7039 250.95 27.6239C250.246 29.4799 249.414 31.0799 248.454 32.4239C247.494 33.7039 246.63 34.6639 245.862 35.3039C249.318 39.1439 251.046 43.6559 251.046 48.8399L251.142 68.5199C251.142 68.8399 250.982 68.9999 250.662 68.9999H239.814C239.558 68.9999 239.43 68.9039 239.43 68.7119V48.8399C239.43 46.5359 238.598 44.5519 236.934 42.8879C235.334 41.1599 233.35 40.2959 230.982 40.2959H224.646L224.55 68.5199C224.55 68.8399 224.422 68.9999 224.166 68.9999H213.318ZM224.646 28.7759H232.902C234.886 28.7759 236.646 28.0399 238.182 26.5679C239.718 25.0959 240.486 23.3039 240.486 21.1919C240.486 19.1439 239.718 17.3839 238.182 15.9119C236.71 14.4399 234.95 13.7039 232.902 13.7039H224.646V28.7759Z" fill="#FF00D4"/>
<path d="M259.63 68.9999C259.374 68.9999 259.246 68.8399 259.246 68.5199L259.342 2.56793C259.342 2.31193 259.47 2.18393 259.726 2.18393H290.542C290.798 2.18393 290.926 2.34393 290.926 2.66393V13.4159C290.926 13.6719 290.798 13.7999 290.542 13.7999H270.862V28.7759H290.542C290.798 28.7759 290.926 28.9039 290.926 29.1599L291.022 40.0079C291.022 40.2639 290.894 40.3919 290.638 40.3919H270.862V57.1919H290.638C290.894 57.1919 291.022 57.3519 291.022 57.6719V68.6159C291.022 68.8719 290.894 68.9999 290.638 68.9999H259.63Z" fill="#FF00D4"/>
<path d="M3.31999 189C2.99999 189 2.83999 188.84 2.83999 188.52L3.03199 122.568C3.03199 122.312 3.15999 122.184 3.41599 122.184L21.368 122.088C24.888 122.024 28.088 122.856 30.968 124.584C33.912 126.312 36.248 128.648 37.976 131.592C39.704 134.472 40.568 137.672 40.568 141.192V168.744C40.568 172.456 39.672 175.848 37.88 178.92C36.088 181.928 33.688 184.328 30.68 186.12C27.672 187.912 24.28 188.84 20.504 188.904L3.31999 189ZM14.552 177.192H20.504C22.872 177.192 24.856 176.36 26.456 174.696C28.12 173.032 28.952 171.048 28.952 168.744V141.096C28.952 139.048 28.184 137.288 26.648 135.816C25.176 134.28 23.416 133.544 21.368 133.608L14.648 133.704L14.552 177.192Z" fill="#FF00D4"/>
<path d="M41.951 188.52L53.855 122.568C53.919 122.312 54.079 122.184 54.335 122.184H68.255C68.511 122.184 68.671 122.312 68.735 122.568L80.159 188.52C80.223 188.84 80.095 189 79.775 189H69.119C68.863 189 68.703 188.84 68.639 188.52L67.583 181.512H54.527L53.471 188.52C53.407 188.84 53.247 189 52.991 189H42.335C42.079 189 41.951 188.84 41.951 188.52ZM56.447 171.24H65.663L61.727 144.264L61.151 140.712L60.767 144.264L56.447 171.24Z" fill="#FF00D4"/>
<path d="M90.893 189C90.701 189 90.605 188.872 90.605 188.616L90.701 161.352L77.837 122.568C77.773 122.312 77.869 122.184 78.125 122.184H88.781C89.101 122.184 89.293 122.312 89.357 122.568L96.461 148.392L103.661 122.568C103.725 122.312 103.885 122.184 104.141 122.184H114.893C115.149 122.184 115.245 122.312 115.181 122.568L102.221 160.968L102.317 188.616C102.317 188.872 102.189 189 101.933 189H90.893Z" fill="#FF00D4"/>
<path d="M20.504 69.9599C16.984 69.9599 13.784 69.0959 10.904 67.3679C8.08799 65.5759 5.84799 63.2079 4.18399 60.2639C2.51999 57.3199 1.68799 54.0239 1.68799 50.3759L1.78399 20.4239C1.78399 16.9039 2.58399 13.7039 4.18399 10.8239C5.84799 7.87993 8.08799 5.54393 10.904 3.81593C13.784 2.02393 16.984 1.12793 20.504 1.12793C24.024 1.12793 27.192 1.99193 30.008 3.71993C32.824 5.44793 35.064 7.78393 36.728 10.7279C38.392 13.6079 39.224 16.8399 39.224 20.4239V24.8399C39.224 25.0959 39.096 25.2239 38.84 25.2239H28.088C27.832 25.2239 27.704 25.0959 27.704 24.8399V20.4239C27.704 18.3119 27 16.4879 25.592 14.9519C24.248 13.4159 22.552 12.6479 20.504 12.6479C18.2 12.6479 16.44 13.4479 15.224 15.0479C14.008 16.5839 13.4 18.3759 13.4 20.4239V50.3759C13.4 52.7439 14.072 54.6639 15.416 56.1359C16.824 57.6079 18.52 58.3439 20.504 58.3439C22.552 58.3439 24.248 57.5439 25.592 55.9439C27 54.2799 27.704 52.4239 27.704 50.3759V45.9599C27.704 45.7039 27.832 45.5759 28.088 45.5759H38.936C39.192 45.5759 39.32 45.7039 39.32 45.9599V50.3759C39.32 54.0239 38.456 57.3199 36.728 60.2639C35.064 63.2079 32.824 65.5759 30.008 67.3679C27.192 69.0959 24.024 69.9599 20.504 69.9599Z" stroke="#FF00D4" stroke-width="2" mask="url(#path-1-outside-1)"/>
<path d="M46.724 68.9999C46.468 68.9999 46.34 68.8399 46.34 68.5199L46.436 2.66393C46.436 2.34393 46.596 2.18393 46.916 2.18393H57.572C57.892 2.18393 58.052 2.34393 58.052 2.66393L57.956 57.1919H77.732C78.052 57.1919 78.212 57.3519 78.212 57.6719V68.5199C78.212 68.8399 78.052 68.9999 77.732 68.9999H46.724Z" stroke="#FF00D4" stroke-width="2" mask="url(#path-1-outside-1)"/>
<path d="M100.944 69.9599C97.4877 69.9599 94.3197 69.0959 91.4397 67.3679C88.6237 65.5759 86.3517 63.2399 84.6237 60.3599C82.8957 57.4159 82.0317 54.1839 82.0317 50.6639L82.1277 20.2319C82.1277 16.7119 82.9597 13.5119 84.6237 10.6319C86.3517 7.75193 88.6557 5.44793 91.5357 3.71993C94.4157 1.99193 97.5517 1.12793 100.944 1.12793C104.4 1.12793 107.536 1.99193 110.352 3.71993C113.168 5.44793 115.408 7.75193 117.072 10.6319C118.8 13.5119 119.664 16.7119 119.664 20.2319L119.76 50.6639C119.76 54.1839 118.896 57.4159 117.168 60.3599C115.504 63.2399 113.232 65.5759 110.352 67.3679C107.536 69.0959 104.4 69.9599 100.944 69.9599ZM100.944 58.3439C102.864 58.3439 104.528 57.5759 105.936 56.0399C107.408 54.4399 108.144 52.6479 108.144 50.6639L108.048 20.2319C108.048 18.1199 107.376 16.3279 106.032 14.8559C104.688 13.3839 102.992 12.6479 100.944 12.6479C98.9597 12.6479 97.2637 13.3839 95.8557 14.8559C94.4477 16.2639 93.7437 18.0559 93.7437 20.2319V50.6639C93.7437 52.7759 94.4477 54.5999 95.8557 56.1359C97.2637 57.6079 98.9597 58.3439 100.944 58.3439Z" stroke="#FF00D4" stroke-width="2" mask="url(#path-1-outside-1)"/>
<path d="M142.803 69.9599C139.219 69.9599 135.987 69.1279 133.107 67.4639C130.291 65.7359 128.051 63.3999 126.387 60.4559C124.787 57.4479 123.987 54.0879 123.987 50.3759V45.9599C123.987 45.7039 124.115 45.5759 124.371 45.5759H135.219C135.475 45.5759 135.603 45.7359 135.603 46.0559V50.3759C135.603 52.7439 136.275 54.6639 137.619 56.1359C138.963 57.6079 140.691 58.3439 142.803 58.3439C144.723 58.3439 146.387 57.5439 147.795 55.9439C149.203 54.3439 149.907 52.4879 149.907 50.3759V2.66393C149.907 2.40793 150.035 2.27993 150.291 2.27993H161.043C161.299 2.27993 161.427 2.43993 161.427 2.75993L161.523 50.3759C161.523 53.8959 160.659 57.1599 158.931 60.1679C157.267 63.1119 155.027 65.4799 152.211 67.2719C149.395 69.0639 146.259 69.9599 142.803 69.9599Z" stroke="#FF00D4" stroke-width="2" mask="url(#path-1-outside-1)"/>
<path d="M186.441 69.9599C183.049 69.9599 179.913 69.0959 177.033 67.3679C174.153 65.5759 171.849 63.2079 170.121 60.2639C168.457 57.3199 167.625 54.0879 167.625 50.5679L167.817 2.56793C167.817 2.31193 167.945 2.18393 168.201 2.18393H178.953C179.209 2.18393 179.337 2.31193 179.337 2.56793V50.5679C179.337 52.7439 180.009 54.5999 181.353 56.1359C182.761 57.6079 184.457 58.3439 186.441 58.3439C188.489 58.3439 190.185 57.6079 191.529 56.1359C192.937 54.5999 193.641 52.7439 193.641 50.5679V2.56793C193.641 2.31193 193.769 2.18393 194.025 2.18393H204.777C205.033 2.18393 205.161 2.31193 205.161 2.56793L205.353 50.5679C205.353 54.1519 204.489 57.4159 202.761 60.3599C201.097 63.3039 198.825 65.6399 195.945 67.3679C193.129 69.0959 189.961 69.9599 186.441 69.9599Z" stroke="#FF00D4" stroke-width="2" mask="url(#path-1-outside-1)"/>
<path d="M213.318 68.9999C213.062 68.9999 212.934 68.8399 212.934 68.5199L213.126 2.56793C213.126 2.31193 213.254 2.18393 213.51 2.18393H232.902C236.358 2.18393 239.526 3.04793 242.406 4.77593C245.35 6.43993 247.686 8.71193 249.414 11.5919C251.142 14.4079 252.006 17.6079 252.006 21.1919C252.006 23.5599 251.654 25.7039 250.95 27.6239C250.246 29.4799 249.414 31.0799 248.454 32.4239C247.494 33.7039 246.63 34.6639 245.862 35.3039C249.318 39.1439 251.046 43.6559 251.046 48.8399L251.142 68.5199C251.142 68.8399 250.982 68.9999 250.662 68.9999H239.814C239.558 68.9999 239.43 68.9039 239.43 68.7119V48.8399C239.43 46.5359 238.598 44.5519 236.934 42.8879C235.334 41.1599 233.35 40.2959 230.982 40.2959H224.646L224.55 68.5199C224.55 68.8399 224.422 68.9999 224.166 68.9999H213.318ZM224.646 28.7759H232.902C234.886 28.7759 236.646 28.0399 238.182 26.5679C239.718 25.0959 240.486 23.3039 240.486 21.1919C240.486 19.1439 239.718 17.3839 238.182 15.9119C236.71 14.4399 234.95 13.7039 232.902 13.7039H224.646V28.7759Z" stroke="#FF00D4" stroke-width="2" mask="url(#path-1-outside-1)"/>
<path d="M259.63 68.9999C259.374 68.9999 259.246 68.8399 259.246 68.5199L259.342 2.56793C259.342 2.31193 259.47 2.18393 259.726 2.18393H290.542C290.798 2.18393 290.926 2.34393 290.926 2.66393V13.4159C290.926 13.6719 290.798 13.7999 290.542 13.7999H270.862V28.7759H290.542C290.798 28.7759 290.926 28.9039 290.926 29.1599L291.022 40.0079C291.022 40.2639 290.894 40.3919 290.638 40.3919H270.862V57.1919H290.638C290.894 57.1919 291.022 57.3519 291.022 57.6719V68.6159C291.022 68.8719 290.894 68.9999 290.638 68.9999H259.63Z" stroke="#FF00D4" stroke-width="2" mask="url(#path-1-outside-1)"/>
<path d="M3.31999 189C2.99999 189 2.83999 188.84 2.83999 188.52L3.03199 122.568C3.03199 122.312 3.15999 122.184 3.41599 122.184L21.368 122.088C24.888 122.024 28.088 122.856 30.968 124.584C33.912 126.312 36.248 128.648 37.976 131.592C39.704 134.472 40.568 137.672 40.568 141.192V168.744C40.568 172.456 39.672 175.848 37.88 178.92C36.088 181.928 33.688 184.328 30.68 186.12C27.672 187.912 24.28 188.84 20.504 188.904L3.31999 189ZM14.552 177.192H20.504C22.872 177.192 24.856 176.36 26.456 174.696C28.12 173.032 28.952 171.048 28.952 168.744V141.096C28.952 139.048 28.184 137.288 26.648 135.816C25.176 134.28 23.416 133.544 21.368 133.608L14.648 133.704L14.552 177.192Z" stroke="#FF00D4" stroke-width="2" mask="url(#path-1-outside-1)"/>
<path d="M41.951 188.52L53.855 122.568C53.919 122.312 54.079 122.184 54.335 122.184H68.255C68.511 122.184 68.671 122.312 68.735 122.568L80.159 188.52C80.223 188.84 80.095 189 79.775 189H69.119C68.863 189 68.703 188.84 68.639 188.52L67.583 181.512H54.527L53.471 188.52C53.407 188.84 53.247 189 52.991 189H42.335C42.079 189 41.951 188.84 41.951 188.52ZM56.447 171.24H65.663L61.727 144.264L61.151 140.712L60.767 144.264L56.447 171.24Z" stroke="#FF00D4" stroke-width="2" mask="url(#path-1-outside-1)"/>
<path d="M90.893 189C90.701 189 90.605 188.872 90.605 188.616L90.701 161.352L77.837 122.568C77.773 122.312 77.869 122.184 78.125 122.184H88.781C89.101 122.184 89.293 122.312 89.357 122.568L96.461 148.392L103.661 122.568C103.725 122.312 103.885 122.184 104.141 122.184H114.893C115.149 122.184 115.245 122.312 115.181 122.568L102.221 160.968L102.317 188.616C102.317 188.872 102.189 189 101.933 189H90.893Z" stroke="#FF00D4" stroke-width="2" mask="url(#path-1-outside-1)"/>
</svg>
