<?xml version="1.0" encoding="UTF-8"?><svg viewBox="0 0 133 34" xmlns="http://www.w3.org/2000/svg"><g fill="none" fill-rule="evenodd"><g transform="translate(-42 -35)" fill="#000"><g transform="translate(42 34.5)"><path d="m46.342 9.1025l3.0334 4.5676v0.17434h-2.7545l-2.8068-4.463h-2.0572v4.463h-2.3884v-12.203h5.3521c1.2436 0 2.2344 0.3661 2.9724 1.0983 0.73802 0.73221 1.107 1.6387 1.107 2.7196 0 0.8833-0.22082 1.6417-0.66247 2.2751s-1.0402 1.0896-1.7957 1.3685zm-4.585-5.3172v3.4693h2.8417c0.58112 0 1.017-0.16562 1.3075-0.49686 0.29056-0.33124 0.43584-0.75836 0.43584-1.2814 0-0.48814-0.14818-0.89201-0.44456-1.2116-0.29637-0.31962-0.7293-0.47942-1.2988-0.47942h-2.8417zm17.742-2.1443l4.2887 12.029v0.17434h-2.6325l-0.83681-2.5627h-4.7768l-0.83681 2.5627h-2.5104v-0.17434l4.2712-12.029h3.0334zm-3.2601 7.5313h3.3821l-1.6562-5.0906h-0.069734l-1.6562 5.0906zm11.431 4.6722v-12.203h2.4058v12.203h-2.4058zm7.386 0v-12.203h2.3884v10.059h5.631v2.1443h-8.0194zm16.016 0.1569c-1.5574 0-2.7632-0.37482-3.6175-1.1245s-1.3104-1.7695-1.3685-3.0596h2.4233c0.04649 0.6741 0.29346 1.1855 0.74093 1.5342 0.44746 0.34867 1.0547 0.52301 1.8218 0.52301 1.6504 0 2.4756-0.49976 2.4756-1.4993 0-0.40678-0.13366-0.7264-0.40097-0.95885-0.26732-0.23245-0.69153-0.41259-1.2726-0.54044l-1.7782-0.38354c-1.1622-0.24407-2.0542-0.63923-2.676-1.1855-0.6218-0.54625-0.93269-1.3366-0.93269-2.371s0.4155-1.8683 1.2465-2.5017c0.831-0.63342 1.9496-0.95013 3.356-0.95013 1.3714 0 2.4959 0.36029 3.3734 1.0809 0.87749 0.72059 1.322 1.6504 1.3337 2.7894h-2.4233c-0.034867-0.51139-0.24407-0.92688-0.62761-1.2465-0.38354-0.31962-0.94722-0.47942-1.6911-0.47942-0.69735 0-1.2233 0.11913-1.5777 0.35739-0.35448 0.23826-0.53172 0.55497-0.53172 0.95013 0 0.32543 0.11913 0.59855 0.35739 0.81938 0.23826 0.22083 0.64213 0.39516 1.2116 0.52301l1.6562 0.34867c1.2204 0.25569 2.1647 0.67119 2.833 1.2465 0.66829 0.57531 1.0024 1.3918 1.0024 2.4494 0 1.139-0.40968 2.0368-1.2291 2.6935-0.81938 0.65667-2.0542 0.985-3.7046 0.985zm-44.729 13.184l3.0334 4.5676v0.17434h-2.7545l-2.8068-4.463h-2.0572v4.463h-2.3884v-12.203h5.3521c1.2436 0 2.2344 0.3661 2.9724 1.0983 0.73802 0.73221 1.107 1.6387 1.107 2.7196 0 0.8833-0.22082 1.6417-0.66247 2.2751s-1.0402 1.0896-1.7957 1.3685zm-4.585-5.3172v3.4693h2.8417c0.58112 0 1.017-0.16562 1.3075-0.49686 0.29056-0.33124 0.43584-0.75836 0.43584-1.2814 0-0.48814-0.14818-0.89201-0.44456-1.2116-0.29637-0.31962-0.7293-0.47942-1.2988-0.47942h-2.8417zm11.535 10.059v-12.203h8.4553v2.1443h-6.0669v2.7022h5.5264v2.1269h-5.5264v3.1032h6.0669v2.1269h-8.4553zm19.084-12.203l4.2887 12.029v0.17434h-2.6325l-0.83681-2.5627h-4.7768l-0.83681 2.5627h-2.5104v-0.17434l4.2712-12.029h3.0334zm-3.2601 7.5313h3.3821l-1.6562-5.0906h-0.069734l-1.6562 5.0906zm16.26 4.8291c-1.8363 0-3.2543-0.57821-4.2538-1.7346-0.99953-1.1564-1.4993-2.6586-1.4993-4.5066 0-1.8596 0.49976-3.3705 1.4993-4.5327 0.99953-1.1622 2.4174-1.7434 4.2538-1.7434 1.4993 0 2.7254 0.43583 3.6785 1.3075 0.95304 0.87168 1.476 1.97 1.569 3.2949h-2.4407c-0.069734-0.70897-0.33995-1.2901-0.81066-1.7434-0.47071-0.45327-1.1361-0.67991-1.9961-0.67991-1.0925 0-1.9177 0.3661-2.4756 1.0983-0.55788 0.73221-0.83681 1.7317-0.83681 2.9986s0.27893 2.2635 0.83681 2.9899c0.55788 0.7264 1.3831 1.0896 2.4756 1.0896 0.82519 0 1.4702-0.21211 1.9351-0.63632 0.4649-0.42422 0.76126-0.98499 0.88911-1.6823h2.4233c-0.13947 1.3017-0.677 2.3739-1.6126 3.2165-0.9356 0.84263-2.1472 1.2639-3.6349 1.2639zm12.058-0.1569v-10.042h-3.5913v-2.1618h9.5884v2.1618h-3.5913v10.042h-2.4058zm14.987 0.1569c-1.8712 0-3.3007-0.58402-4.2887-1.7521-0.98791-1.1681-1.4819-2.6702-1.4819-4.5066s0.49394-3.3385 1.4819-4.5066c0.98791-1.1681 2.4174-1.7521 4.2887-1.7521 1.8596 0 3.2862 0.58402 4.2799 1.7521 0.99372 1.1681 1.4906 2.6702 1.4906 4.5066s-0.49685 3.3385-1.4906 4.5066c-0.99372 1.1681-2.4203 1.7521-4.2799 1.7521zm0-2.1792c1.1041 0 1.9351-0.3632 2.493-1.0896 0.55788-0.7264 0.83681-1.723 0.83681-2.9899 0-1.2668-0.27893-2.2635-0.83681-2.9899-0.55788-0.7264-1.3889-1.0896-2.493-1.0896s-1.9351 0.3632-2.493 1.0896c-0.55788 0.7264-0.83681 1.723-0.83681 2.9899 0 1.2668 0.27893 2.2635 0.83681 2.9899 0.55788 0.7264 1.3889 1.0896 2.493 1.0896zm17.044-2.7196l3.0334 4.5676v0.17434h-2.7545l-2.8068-4.463h-2.0572v4.463h-2.3884v-12.203h5.3521c1.2436 0 2.2344 0.3661 2.9724 1.0983 0.73802 0.73221 1.107 1.6387 1.107 2.7196 0 0.8833-0.22082 1.6417-0.66248 2.2751s-1.0402 1.0896-1.7957 1.3685zm-4.585-5.3172v3.4693h2.8417c0.58112 0 1.017-0.16562 1.3075-0.49686 0.29056-0.33124 0.43584-0.75836 0.43584-1.2814 0-0.48814-0.14818-0.89201-0.44456-1.2116s-0.7293-0.47942-1.2988-0.47942h-2.8417z"/><g transform="translate(.37529 .73395)"><polygon points="18.6 0.18503 13.2 14.298 0 14.298"/><polygon transform="translate(14.899 25.99) scale(-1) translate(-14.899 -25.99)" points="24.199 18.934 18.799 33.047 5.5993 33.047"/></g></g></g></g></svg>
