<?xml version="1.0" encoding="UTF-8"?><svg class="figure figure-logo" preserveAspectRatio="xMinYMid" viewBox="0 0 92 32" xmlns="http://www.w3.org/2000/svg"><g class="star-logo" fill-rule="evenodd"><g class="figure-star-text"><path d="m30.574 0c-14.484 12.612-15.904 12.612-30.385 0l-0.18965 0.18965c12.612 14.481 12.612 15.901 0 30.385l0.18965 0.18694c14.481-12.612 15.901-12.612 30.385 0l0.18694-0.18694c-12.609-14.484-12.609-15.904 0-30.385l-0.18694-0.18965z"/><path d="m58.417 22.2v-8.3338h-2.3869v-2.7499h2.3869v-3.3189l3.1319-1.2463v4.5651h2.9206v2.7499h-2.9206v7.5562c0 0.98618 0.47683 1.7041 1.3709 1.7041 0.59604 0 1.1623-0.24113 1.4007-0.50935l0.74776 2.3598c-0.56624 0.53915-1.4928 0.92658-2.9531 0.92658-2.4167 0-3.6982-1.314-3.6982-3.7036"/><path d="m41.622 20.048c1.3709 1.4657 3.5194 2.7499 6.2937 2.7499 2.861 0 3.9935-1.4061 3.9935-2.7201 0-1.7908-2.116-2.33-4.5299-2.9585-3.2511-0.80466-7.0685-1.761-7.0685-5.974 0-3.2864 2.8908-5.825 7.2446-5.825 3.1021 0 5.6082 0.98618 7.456 2.777l-1.9967 2.6009c-1.5524-1.5524-3.6684-2.2704-5.7545-2.2704-2.0591 0-3.3731 0.98618-3.3731 2.479 0 1.5524 2.0293 2.0618 4.3863 2.6578 3.2809 0.83717 7.185 1.8532 7.185 6.1853 0 3.3162-2.3246 6.1528-7.6917 6.1528-3.6684 0-6.3235-1.2842-8.0818-3.1644l1.9371-2.6903z"/><path d="m76.68 23.574c-1.1027 1.4332-2.7743 2.33-4.6247 2.33-3.6955 0-6.4102-2.8068-6.4102-7.5589 0-4.66 2.6849-7.586 6.4102-7.586 1.7908 0 3.4923 0.83717 4.6247 2.3598v-2.0022h3.1319v14.43h-3.1319v-1.9724zm0-8.0655c-0.71525-1.0756-2.2379-1.9426-3.728-1.9426-2.4763 0-4.0558 1.9724-4.0558 4.7792 0 2.7797 1.5795 4.7819 4.0558 4.7819 1.4901 0 3.0127-0.83717 3.728-1.9128v-5.7058z"/></g><g class="figure-star"><path d="m82.867 11.116h3.1319v2.1214c1.0729-1.3736 2.8014-2.4492 4.6816-2.4492 0.70983 0 1.3194 0.2032 1.3194 0.2032v3.1075s-0.59604-0.2926-2.097-0.2926-3.2782 0.89406-3.9041 1.91v9.8293h-3.1319v-14.43z"/></g></g></svg>
