<svg width="20" height="16" viewBox="0 0 20 16" fill="none" xmlns="http://www.w3.org/2000/svg">
<path d="M20 1.90009C19.2132 2.23346 18.4262 2.44164 17.6397 2.52527C18.528 2.00027 19.1289 1.25858 19.4419 0.300264C18.6293 0.775177 17.7623 1.10009 16.8402 1.27518C16.028 0.425176 15.0298 0 13.8451 0C12.7116 0 11.7451 0.393696 10.9453 1.18126C10.1459 1.96879 9.74622 2.9208 9.74622 4.03745C9.74622 4.3374 9.78 4.64585 9.84774 4.96249C8.17256 4.87917 6.60112 4.46459 5.13316 3.71875C3.66528 2.97282 2.41952 1.97903 1.39587 0.737393C1.02361 1.36226 0.837413 2.04156 0.837413 2.77488C0.837413 3.46656 1.00236 4.10833 1.33248 4.70001C1.66238 5.29161 2.10665 5.77073 2.66505 6.13745C2.00504 6.11241 1.38747 5.94152 0.812255 5.62484V5.67484C0.812255 6.64993 1.12317 7.50602 1.74492 8.24376C2.36676 8.98142 3.1515 9.44573 4.09897 9.6375C3.7436 9.72905 3.38397 9.7749 3.02024 9.7749C2.78333 9.7749 2.52526 9.7541 2.24613 9.71272C2.50837 10.5209 2.99064 11.1853 3.69275 11.7064C4.395 12.2272 5.19027 12.4957 6.07863 12.5128C4.58968 13.6626 2.89343 14.2375 0.989872 14.2375C0.626015 14.2375 0.296162 14.2212 0 14.1876C1.9036 15.3959 4.00172 16 6.29447 16C7.74963 16 9.11598 15.7732 10.3931 15.3189C11.6708 14.8649 12.7621 14.2564 13.6674 13.4937C14.5725 12.7313 15.3531 11.8541 16.0087 10.8625C16.6643 9.87078 17.1527 8.83544 17.4745 7.75628C17.7958 6.6769 17.9566 5.59586 17.9566 4.51232C17.9566 4.27895 17.9524 4.10404 17.9439 3.98731C18.7478 3.41258 19.4331 2.7166 20 1.90009Z" fill="#202020"/>
</svg>
